<?xml version="1.0" standalone="no"?>
<!DOCTYPE svg PUBLIC "-//W3C//DTD SVG 1.1//EN" "http://www.w3.org/Graphics/SVG/1.1/DTD/svg11.dtd" >
<svg>
<metadata>
Created by FontForge 20110222 at Sat May 24 02:34:02 2014
 By Orthosie Webhosting
Copyright (C) 2006, 2007 Hoefler &#38; Frere-Jones. http://www.typography.com
</metadata>
<defs>
<font id="GothamRoundedMediumItalic" horiz-adv-x="668" >
  <font-face 
    font-family="GothamRoundedMediumItalic"
    font-weight="350"
    font-style="italic"
    font-stretch="normal"
    units-per-em="1000"
    panose-1="0 0 0 0 0 0 0 0 0 0"
    ascent="800"
    descent="-200"
    x-height="528"
    cap-height="705"
    bbox="-149 -275 1221 1066"
    underline-thickness="50"
    underline-position="-50"
    slope="-15"
    unicode-range="U+0020-FB04"
  />
<missing-glyph horiz-adv-x="500" 
d="M0 -200v1000h500v-1000h-500zM71 750l179 -390l179 390h-358zM50 -76l172 376l-172 376v-752zM450 676l-172 -376l172 -376v752zM250 240l-179 -390h358z" />
    <glyph glyph-name="f_f" unicode="ff" horiz-adv-x="793" 
d="M268 424l-99 -369q-17 -60 -68 -60q-31 0 -45 21t-4 57l95 351h-14q-18 3 -32 16.5t-14 35.5t15 37t36 15h37l10 43q44 164 201 164q31 0 57 -7q41 -9 41 -48q0 -28 -17 -43.5t-39 -10.5q-19 6 -39 6q-67 0 -87 -74l-8 -30h85q22 0 36.5 -15t14.5 -37t-14.5 -37
t-36.5 -15h-111zM664 424l-99 -369q-17 -60 -68 -60q-31 0 -45 21t-4 57l95 351h-14q-18 3 -32 16.5t-14 35.5t15 37t36 15h37l10 43q44 164 201 164q31 0 57 -7q41 -9 41 -48q0 -28 -17 -43.5t-39 -10.5q-20 6 -39 6q-67 0 -87 -74l-8 -30h85q22 0 36.5 -15t14.5 -37
t-14.5 -37t-36.5 -15h-111z" />
    <glyph glyph-name="fi" unicode="fi" horiz-adv-x="683" 
d="M715 660q-6 -25 -28 -40.5t-51 -15.5q-30 0 -47.5 16.5t-11.5 40.5l3 12q6 26 27.5 41t51.5 15q29 0 46.5 -16.5t12.5 -40.5zM651 455l-107 -400q-17 -60 -68 -60q-31 0 -45 21t-4 57l108 400q16 61 67 61q31 0 45 -21.5t4 -57.5zM268 424l-99 -369q-17 -60 -68 -60
q-31 0 -45 21t-4 57l95 351h-14q-18 3 -32 16.5t-14 35.5t15 37t36 15h37l10 43q44 164 201 164q31 0 57 -7q41 -9 41 -48q0 -28 -17 -43.5t-39 -10.5q-19 6 -39 6q-67 0 -87 -74l-8 -30h85q22 0 36.5 -15t14.5 -37t-14.5 -37t-36.5 -15h-111z" />
    <glyph glyph-name="fl" unicode="fl" horiz-adv-x="683" 
d="M705 657l-161 -602q-17 -60 -68 -60q-31 0 -45 21t-4 57l162 602q16 60 68 60q31 0 44.5 -21t3.5 -57zM268 424l-99 -369q-17 -60 -68 -60q-31 0 -45 21t-4 57l95 351h-14q-18 3 -32 16.5t-14 35.5t15 37t36 15h37l10 43q44 164 201 164q31 0 57 -7q41 -9 41 -48
q0 -28 -17 -43.5t-39 -10.5q-19 6 -39 6q-67 0 -87 -74l-8 -30h85q22 0 36.5 -15t14.5 -37t-14.5 -37t-36.5 -15h-111z" />
    <glyph glyph-name="f_f_i" unicode="ffi" horiz-adv-x="1079" 
d="M1111 660q-6 -25 -28 -40.5t-51 -15.5q-30 0 -47.5 16.5t-11.5 40.5l3 12q6 26 27.5 41t51.5 15q29 0 46.5 -16.5t12.5 -40.5zM1047 455l-107 -400q-17 -60 -68 -60q-31 0 -45 21t-4 57l108 400q16 61 67 61q31 0 45 -21.5t4 -57.5zM268 424l-99 -369q-17 -60 -68 -60
q-31 0 -45 21t-4 57l95 351h-14q-18 3 -32 16.5t-14 35.5t15 37t36 15h37l10 43q44 164 201 164q31 0 57 -7q41 -9 41 -48q0 -28 -17 -43.5t-39 -10.5q-19 6 -39 6q-67 0 -87 -74l-8 -30h85q22 0 36.5 -15t14.5 -37t-14.5 -37t-36.5 -15h-111zM664 424l-99 -369
q-17 -60 -68 -60q-31 0 -45 21t-4 57l95 351h-14q-18 3 -32 16.5t-14 35.5t15 37t36 15h37l10 43q44 164 201 164q31 0 57 -7q41 -9 41 -48q0 -28 -17 -43.5t-39 -10.5q-20 6 -39 6q-67 0 -87 -74l-8 -30h85q22 0 36.5 -15t14.5 -37t-14.5 -37t-36.5 -15h-111z" />
    <glyph glyph-name="f_f_l" unicode="ffl" horiz-adv-x="1079" 
d="M1101 657l-161 -602q-17 -60 -68 -60q-31 0 -45 21t-4 57l162 602q16 60 68 60q31 0 44.5 -21t3.5 -57zM268 424l-99 -369q-17 -60 -68 -60q-31 0 -45 21t-4 57l95 351h-14q-18 3 -32 16.5t-14 35.5t15 37t36 15h37l10 43q44 164 201 164q31 0 57 -7q41 -9 41 -48
q0 -28 -17 -43.5t-39 -10.5q-19 6 -39 6q-67 0 -87 -74l-8 -30h85q22 0 36.5 -15t14.5 -37t-14.5 -37t-36.5 -15h-111zM664 424l-99 -369q-17 -60 -68 -60q-31 0 -45 21t-4 57l95 351h-14q-18 3 -32 16.5t-14 35.5t15 37t36 15h37l10 43q44 164 201 164q31 0 57 -7
q41 -9 41 -48q0 -28 -17 -43.5t-39 -10.5q-20 6 -39 6q-67 0 -87 -74l-8 -30h85q22 0 36.5 -15t14.5 -37t-14.5 -37t-36.5 -15h-111z" />
    <glyph glyph-name=".notdef" horiz-adv-x="500" 
d="M0 -200v1000h500v-1000h-500zM71 750l179 -390l179 390h-358zM50 -76l172 376l-172 376v-752zM450 676l-172 -376l172 -376v752zM250 240l-179 -390h358z" />
    <glyph glyph-name=".null" horiz-adv-x="0" 
 />
    <glyph glyph-name="nonmarkingreturn" horiz-adv-x="333" 
 />
    <glyph glyph-name="space" unicode=" " horiz-adv-x="300" 
 />
    <glyph glyph-name="exclam" unicode="!" horiz-adv-x="303" 
d="M326 659l-143 -412q-12 -31 -40 -31q-17 0 -25.5 11t-5.5 30l76 404q4 18 16 30t29 12h67q17 0 25 -13t1 -31zM170 76l-4 -17q-7 -30 -28 -47t-51 -17q-31 0 -49 20t-12 47l4 17q7 29 28 46.5t51 17.5q31 0 49 -20t12 -47z" />
    <glyph glyph-name="quotedbl" unicode="&#x22;" horiz-adv-x="493" 
d="M177 426q-16 -31 -43 -31q-16 0 -23 11t-2 27l63 216q16 54 64 54h33q27 0 33 -19.5t-8 -41.5zM400 426q-15 -31 -42 -31q-16 0 -23 11t-2 27l63 216q6 24 23 39t41 15h33q27 0 32.5 -19.5t-7.5 -41.5z" />
    <glyph glyph-name="numbersign" unicode="#" horiz-adv-x="687" 
d="M258 265h156l61 174h-157zM392 649l-37 -106h156l42 119q7 19 23.5 31t36.5 12q25 0 37.5 -17t4.5 -39l-37 -106h37q21 0 36.5 -15t15.5 -37q0 -21 -15.5 -36.5t-36.5 -15.5h-73l-61 -174h48q22 0 37 -15t15 -37q0 -21 -15 -36.5t-37 -15.5h-84l-43 -123
q-6 -19 -22.5 -31t-35.5 -12q-25 0 -38.5 17t-5.5 39l38 110h-156l-43 -123q-16 -43 -59 -43q-25 0 -38.5 16.5t-4.5 39.5l38 110h-36q-22 0 -37 15t-15 37q0 21 15 36.5t37 15.5h72l61 174h-49q-21 0 -36.5 15.5t-15.5 36.5t15.5 36.5t36.5 15.5h85l42 119q15 43 58 43
q25 0 38 -17t6 -39z" />
    <glyph glyph-name="dollar" unicode="$" horiz-adv-x="631" 
d="M185 -48l16 57q-104 21 -165 77q-26 20 -26 50q0 25 17 41.5t43 16.5q20 0 41 -16q52 -49 125 -65l56 195q-86 32 -127.5 72t-41.5 110q0 90 75.5 150t186.5 60q14 0 19 -1l6 21q14 43 49 43q22 0 32.5 -14.5t3.5 -40.5l-6 -20q65 -14 119 -56q30 -21 30 -49
q0 -25 -17.5 -41.5t-43.5 -16.5q-19 0 -41 15q-37 29 -82 42l-53 -186q83 -30 124 -72t41 -111q0 -94 -78 -153.5t-196 -59.5h-6l-17 -60q-15 -44 -49 -44q-22 0 -32 15t-3 41zM328 424l48 169q-58 1 -92.5 -25t-34.5 -65q0 -26 17.5 -43.5t61.5 -35.5zM314 107q57 2 91 27
t34 67q0 26 -16.5 44t-57.5 36z" />
    <glyph glyph-name="percent" unicode="%" horiz-adv-x="862" 
d="M236 346q-67 0 -108 42t-41 109q0 82 55.5 146.5t137.5 64.5q66 0 107.5 -42.5t41.5 -108.5q0 -82 -55.5 -146.5t-137.5 -64.5zM628 -8q-66 0 -107.5 42.5t-41.5 108.5q0 83 55.5 147t137.5 64q67 0 108 -42t41 -108q0 -83 -55.5 -147.5t-137.5 -64.5zM241 420
q44 0 74 41.5t30 91.5q0 38 -18.5 59.5t-52.5 21.5q-44 0 -74 -42t-30 -91q0 -38 19 -59.5t52 -21.5zM633 66q44 0 74.5 42t30.5 91q0 38 -19 60t-52 22q-44 0 -74.5 -42t-30.5 -92q0 -37 19 -59t52 -22zM785 636l-602 -623q-18 -18 -37 -18q-16 0 -27 10t-11 26q0 18 15 33
l602 624q18 18 37 18q16 0 27 -10.5t11 -26.5t-15 -33z" />
    <glyph glyph-name="ampersand" unicode="&#x26;" horiz-adv-x="694" 
d="M341 429q79 25 110 52.5t31 62.5q0 29 -21 50t-58 21q-41 0 -68.5 -27.5t-27.5 -65.5q0 -41 34 -93zM255 92q74 0 157 63l-124 171q-73 -23 -109 -61.5t-36 -82.5q0 -41 29.5 -65.5t82.5 -24.5zM517 13l-47 65q-110 -88 -229 -88q-95 0 -155.5 49.5t-60.5 134.5
q0 73 53 132.5t160 91.5q-40 67 -40 125q0 78 59.5 133.5t151.5 55.5q82 0 133 -45t51 -116q0 -130 -199 -193l97 -134q40 46 71 91q22 29 45 29q19 0 32.5 -11.5t13.5 -29.5q0 -17 -10 -33q-47 -70 -93 -120l46 -65q19 -24 19 -42q0 -23 -15 -38t-38 -15q-28 0 -45 23z" />
    <glyph glyph-name="quotesingle" unicode="'" horiz-adv-x="269" 
d="M177 426q-16 -31 -43 -31q-16 0 -23 11t-2 27l63 216q16 54 64 54h33q27 0 33 -19.5t-8 -41.5z" />
    <glyph glyph-name="parenleft" unicode="(" horiz-adv-x="441" 
d="M304 -42q15 -18 15 -41q0 -22 -14.5 -36.5t-38.5 -14.5q-27 0 -43 16q-153 145 -153 330q0 154 93 281t270 209q14 7 30 7q22 0 36 -14t14 -36q0 -31 -34 -49q-141 -72 -213 -174t-72 -220q0 -131 110 -258z" />
    <glyph glyph-name="parenright" unicode=")" horiz-adv-x="441" 
d="M149 617q-15 18 -15 41q0 22 14.5 36.5t38.5 14.5q27 0 43 -16q153 -145 153 -329q0 -155 -93 -282t-270 -209q-14 -7 -30 -7q-22 0 -36 14t-14 36q0 32 34 50q141 71 213 173.5t72 220.5q0 130 -110 257z" />
    <glyph glyph-name="asterisk" unicode="*" horiz-adv-x="430" 
d="M294 500l-14 -88q-3 -32 -33 -32q-17 0 -25.5 14t-1.5 31l33 86l-83 -32q-13 -5 -23 -5q-12 0 -21 8.5t-10 21.5q-1 14 7.5 23.5t23.5 10.5l95 15l-74 59q-17 14 -17 29q0 13 9.5 23t23.5 10q17 0 29 -15l59 -75l14 87q5 33 33 33q20 0 27.5 -13t-0.5 -33l-33 -85l83 32
q13 5 25 5t20 -8.5t9 -21.5q0 -30 -31 -35l-95 -14l73 -58q18 -13 18 -30q0 -13 -9.5 -23t-23.5 -10q-17 0 -29 16z" />
    <glyph glyph-name="plus" unicode="+" horiz-adv-x="634" 
d="M383 297l-36 -135q-8 -29 -25.5 -45t-39.5 -16q-29 0 -42.5 20t-3.5 55l33 121h-127q-23 0 -39.5 16t-16.5 39t16.5 39t39.5 16h156l36 136q8 28 25.5 44t39.5 16q29 0 42.5 -20t3.5 -55l-32 -121h126q23 0 39.5 -16t16.5 -39t-16.5 -39t-39.5 -16h-156z" />
    <glyph glyph-name="comma" unicode="," horiz-adv-x="293" 
d="M-31 -90q85 23 94 90q-49 13 -40 65l4 13q6 30 26.5 47.5t49.5 17.5q35 0 50.5 -23.5t7.5 -64.5l-4 -17q-18 -85 -79 -136q-49 -43 -106 -46q-31 -3 -31 26q0 22 28 28z" />
    <glyph glyph-name="hyphen" unicode="-" horiz-adv-x="411" 
d="M311 247h-188q-24 0 -41.5 17.5t-17.5 41.5q0 25 17.5 42.5t41.5 17.5h188q25 0 42.5 -17.5t17.5 -42.5q0 -24 -17.5 -41.5t-42.5 -17.5z" />
    <glyph glyph-name="period" unicode="." horiz-adv-x="293" 
d="M166 76l-4 -17q-7 -30 -28 -47t-51 -17q-31 0 -49 20t-12 47l4 17q7 29 28 46.5t51 17.5q31 0 49 -20t12 -47z" />
    <glyph glyph-name="slash" unicode="/" horiz-adv-x="521" 
d="M-72 -49l613 820q24 33 54 33q19 0 30.5 -11t11.5 -30t-19 -44l-613 -820q-24 -33 -54 -33q-19 0 -30 11t-11 30q0 20 18 44z" />
    <glyph glyph-name="zero" unicode="0" horiz-adv-x="724" 
d="M330 -12q-120 0 -191 77.5t-71 204.5q0 108 44 208t131 167t196 67q120 0 190.5 -77.5t70.5 -204.5q0 -80 -26.5 -158.5t-72.5 -141.5t-117.5 -102.5t-153.5 -39.5zM339 99q65 0 120.5 51.5t84.5 127t29 152.5q0 79 -38 125t-106 46q-97 0 -165.5 -105t-68.5 -226
q0 -79 38 -125t106 -46z" />
    <glyph glyph-name="one" unicode="1" horiz-adv-x="404" 
d="M389 643l-158 -588q-16 -60 -68 -60q-31 0 -45 21t-4 58l136 503l-77 -21q-12 -2 -18 -2q-20 0 -34.5 13.5t-14.5 37.5q0 19 12 34t32 21l128 38q38 11 63 11h1q28 0 41 -19t6 -47z" />
    <glyph glyph-name="two" unicode="2" horiz-adv-x="606" 
d="M453 0h-403q-30 0 -48 14t-18 40q0 34 32 57l357 257q56 40 82 74t26 71q0 40 -28.5 63t-77.5 23q-78 0 -148 -64q-21 -19 -43 -19q-23 0 -39 16.5t-16 39.5q0 25 21 44q103 94 230 94q102 0 165 -51.5t63 -133.5q0 -63 -36 -115t-123 -114l-260 -188h264q23 0 38.5 -16
t15.5 -38t-15.5 -38t-38.5 -16z" />
    <glyph glyph-name="three" unicode="3" horiz-adv-x="605" 
d="M23 78q-20 22 -20 45q0 24 17.5 41.5t41.5 17.5q23 0 41 -18q31 -34 63.5 -49.5t83.5 -15.5q67 0 112 35.5t45 85.5q0 48 -41 73t-114 25h-6q-22 0 -34.5 12t-12.5 34q0 24 27 45l218 184h-235q-22 0 -37.5 15.5t-15.5 37.5t15.5 38t37.5 16h360q28 0 44.5 -13t16.5 -36
q0 -20 -9.5 -33.5t-31.5 -30.5l-223 -183q76 -13 121 -56t45 -117q0 -103 -83.5 -173t-204.5 -70q-145 0 -221 90z" />
    <glyph glyph-name="four" unicode="4" horiz-adv-x="655" 
d="M177 258h223l75 279zM490 157l-27 -102q-16 -60 -66 -60q-29 0 -42.5 21.5t-3.5 57.5l22 83h-296q-26 0 -43.5 14t-17.5 38q0 36 33 67l430 394q43 40 89 40q29 0 45 -18t8 -46l-104 -388h41q21 0 36 -14.5t15 -36.5q0 -21 -15 -35.5t-36 -14.5h-68z" />
    <glyph glyph-name="five" unicode="5" horiz-adv-x="607" 
d="M39 69q-25 23 -25 50q0 24 16.5 41t40.5 17q21 0 44 -18q59 -59 146 -59q73 0 120 40t47 95q0 48 -37 78t-100 30q-19 0 -36.5 -3.5t-37.5 -9.5t-28 -8q-27 -2 -54 19q-28 22 -17 58l84 253q17 48 60 48h300q22 0 38.5 -16t16.5 -39q0 -22 -16 -38t-39 -16h-264l-53 -161
q44 16 90 16q99 0 159.5 -54t60.5 -145q0 -106 -85 -182t-219 -76q-122 0 -212 80z" />
    <glyph glyph-name="six" unicode="6" horiz-adv-x="642" 
d="M622 659q28 -16 28 -51q0 -24 -16.5 -40.5t-40.5 -16.5q-13 0 -39 13q-51 37 -115 37q-87 0 -149 -63q-69 -69 -87 -166q27 32 75 54.5t103 22.5q94 0 155 -54.5t61 -143.5q0 -105 -82.5 -184t-200.5 -79q-113 0 -177 64q-71 71 -71 196q0 105 36.5 200.5t101.5 160.5
q105 103 245 103q98 0 173 -53zM315 93q68 0 112.5 43t44.5 101q0 48 -33.5 79.5t-91.5 31.5q-71 0 -116 -41.5t-45 -98.5q0 -49 32 -79q36 -36 97 -36z" />
    <glyph glyph-name="seven" unicode="7" horiz-adv-x="600" 
d="M612 590l-416 -556q-30 -39 -67 -39q-24 0 -38 12.5t-14 34.5q0 23 20 51l379 499h-282q-23 0 -39 16t-16 38t16 38t39 16h390q56 0 56 -45q0 -30 -28 -65z" />
    <glyph glyph-name="eight" unicode="8" horiz-adv-x="656" 
d="M299 -10q-112 0 -188.5 55t-76.5 139q0 77 52 126t138 67q-42 20 -67 57t-25 82q0 77 71 135.5t188 58.5q107 0 175 -52t68 -133q0 -67 -44 -114t-117 -63q50 -19 81 -58.5t31 -93.5q0 -85 -79.5 -145.5t-206.5 -60.5zM377 405q62 0 101 31t39 75q1 42 -34.5 69.5
t-96.5 27.5q-59 0 -98 -30t-40 -75q-1 -42 35 -70t94 -28zM305 91q69 0 113.5 31t45.5 80q0 44 -41.5 74t-108.5 30q-70 0 -114 -32.5t-44 -79.5q-1 -45 40.5 -74t108.5 -29z" />
    <glyph glyph-name="nine" unicode="9" horiz-adv-x="642" 
d="M243 -12q-103 0 -179 58q-32 20 -32 53q0 24 16.5 40.5t40.5 16.5q16 0 39 -14q57 -44 122 -44q85 0 149 65q64 63 85 158q-28 -32 -75 -55t-103 -23q-95 0 -155.5 55t-60.5 146q1 111 83 189.5t201 78.5q52 0 99.5 -16.5t77.5 -47.5q71 -69 71 -206q0 -101 -37 -193
t-103 -158q-101 -103 -239 -103zM343 345q69 0 114 43t45 102q0 49 -32 81q-36 36 -97 36q-69 0 -113.5 -43.5t-44.5 -105.5q0 -50 34.5 -81.5t93.5 -31.5z" />
    <glyph glyph-name="colon" unicode=":" horiz-adv-x="296" 
d="M167 76l-4 -17q-7 -30 -28 -47t-51 -17q-31 0 -49 20t-12 47l4 17q7 29 28 46.5t51 17.5q31 0 49 -20t12 -47zM272 467l-4 -17q-7 -30 -28 -47t-51 -17q-31 0 -49 20t-12 47l4 17q7 29 28 46.5t51 17.5q31 0 49 -20t12 -47z" />
    <glyph glyph-name="semicolon" unicode=";" horiz-adv-x="296" 
d="M-30 -90q85 22 94 90q-50 13 -39 65l3 13q7 30 27.5 47.5t48.5 17.5q35 0 51 -24t7 -64l-4 -17q-18 -85 -78 -136q-51 -43 -107 -46q-30 -3 -30 26q0 22 27 28zM272 467l-4 -17q-7 -30 -28 -47t-51 -17q-31 0 -49 20t-12 47l4 17q7 29 28 46.5t51 17.5q31 0 49 -20
t12 -47z" />
    <glyph glyph-name="less" unicode="&#x3c;" horiz-adv-x="634" 
d="M140 420l407 173q18 8 34 8q20 0 33 -12t13 -32q0 -36 -35 -51l-384 -159l278 -148q33 -17 33 -50q0 -23 -15 -39t-38 -16q-13 0 -32 8l-297 164q-53 30 -53 73v4q0 53 56 77z" />
    <glyph glyph-name="equal" unicode="=" horiz-adv-x="634" 
d="M192 421q-23 0 -39.5 16.5t-16.5 39.5t16.5 39.5t39.5 16.5h366q23 0 39.5 -16.5t16.5 -39.5t-16.5 -39.5t-39.5 -16.5h-366zM125 171q-23 0 -39.5 16.5t-16.5 39.5t16.5 39.5t39.5 16.5h366q23 0 39.5 -16.5t16.5 -39.5t-16.5 -39.5t-39.5 -16.5h-366z" />
    <glyph glyph-name="greater" unicode="&#x3e;" horiz-adv-x="634" 
d="M539 284l-407 -173q-20 -9 -34 -9q-20 0 -33 12.5t-13 32.5q0 36 34 51l384 159l-277 148q-33 17 -33 50q0 23 15 39t38 16q12 0 31 -8l298 -165q53 -28 53 -72v-5q0 -52 -56 -76z" />
    <glyph glyph-name="question" unicode="?" horiz-adv-x="541" 
d="M195 553q-26 -15 -43 -15q-21 0 -35 15t-14 34q0 30 26 50q91 72 210 72q99 0 157.5 -52t58.5 -128q0 -90 -68 -146.5t-191 -74.5l-19 -53q-15 -39 -50 -39h-6q-17 0 -26.5 12t-7.5 31l14 91q4 36 52 43q78 10 125.5 41t47.5 81q0 39 -27 60.5t-76 21.5q-63 0 -128 -44z
M255 76l-4 -17q-7 -30 -28 -47t-51 -17q-31 0 -49 20t-12 47l4 17q7 29 28 46.5t51 17.5q31 0 49 -20t12 -47z" />
    <glyph glyph-name="at" unicode="@" horiz-adv-x="980" 
d="M456 151q60 0 109.5 52.5t49.5 120.5q0 44 -27.5 70.5t-72.5 26.5q-59 0 -105 -51.5t-46 -122.5q0 -45 25 -70.5t67 -25.5zM687 -112q-97 -45 -211 -45q-186 0 -302 108.5t-116 280.5q0 95 38.5 184t103.5 154t156 104.5t191 39.5q182 0 291 -100.5t109 -246.5
q0 -143 -68 -221.5t-159 -78.5q-51 0 -86 22.5t-48 61.5q-76 -85 -168 -85q-68 0 -114 45t-46 123q0 114 76.5 193.5t172.5 79.5t138 -81l8 26q16 49 55 49q23 0 36 -18t4 -44l-67 -213q-16 -53 1.5 -84t60.5 -31q60 0 112 69.5t52 186.5q0 131 -98.5 220.5t-261.5 89.5
q-123 0 -227 -61.5t-163 -164t-59 -219.5q0 -156 105 -254t273 -98q98 0 192 39q5 3 12 3q8 0 13 -5t5 -13q0 -10 -11 -16z" />
    <glyph glyph-name="A" unicode="A" horiz-adv-x="758" 
d="M272 278h247l-48 283zM574 651l103 -565q4 -22 4 -32q0 -24 -18 -41.5t-45 -17.5q-25 0 -41 14t-19 36l-21 124h-341l-95 -135q-28 -39 -63 -39q-23 0 -37 13.5t-14 35.5t15 40l414 576q34 50 87 50h3q57 0 68 -59z" />
    <glyph glyph-name="B" unicode="B" horiz-adv-x="717" 
d="M249 405h173q74 0 116 28t42 79q0 79 -116 79h-166zM169 109h203q73 0 115.5 29t42.5 80q0 39 -33 61t-90 22h-187zM355 0h-265q-31 0 -45.5 21.5t-4.5 56.5l150 560q8 29 26.5 45.5t43.5 16.5h215q111 0 170 -46.5t59 -121.5q0 -70 -44 -116t-116 -62q109 -42 109 -143
q0 -95 -79.5 -153t-218.5 -58z" />
    <glyph glyph-name="C" unicode="C" horiz-adv-x="730" 
d="M629 72q-96 -84 -238 -84q-138 0 -227 81t-89 217q0 111 56.5 209t154.5 157.5t212 59.5q146 0 234 -98q25 -23 25 -52q0 -26 -18 -44.5t-45 -18.5q-29 0 -44 19q-32 40 -70 60.5t-96 20.5q-112 0 -196.5 -92.5t-84.5 -215.5q0 -86 53 -137.5t138 -51.5q49 0 83 13.5
t76 45.5q24 15 42 15q24 0 40 -17t16 -41q0 -28 -22 -46z" />
    <glyph glyph-name="D" unicode="D" horiz-adv-x="775" 
d="M172 112h113q161 0 256 95q78 78 78 193q0 80 -49 129q-59 59 -182 59h-87zM260 700h137q183 0 274 -91q76 -76 76 -204q0 -161 -113 -274q-131 -131 -364 -131h-180q-31 0 -45.5 21.5t-4.5 56.5l150 560q8 29 26.5 45.5t43.5 16.5z" />
    <glyph glyph-name="E" unicode="E" horiz-adv-x="660" 
d="M503 0h-413q-31 0 -45.5 21.5t-4.5 56.5l150 560q8 29 26.5 45.5t43.5 16.5h396q22 0 38.5 -16t16.5 -39t-16 -39t-39 -16h-356l-49 -183h281q23 0 39.5 -16t16.5 -39q0 -22 -16.5 -38t-39.5 -16h-310l-51 -188h332q23 0 39 -16t16 -39t-16 -39t-39 -16z" />
    <glyph glyph-name="F" unicode="F" horiz-adv-x="661" 
d="M260 700h402q23 0 39.5 -16.5t16.5 -39.5t-16.5 -39.5t-39.5 -16.5h-362l-51 -191h286q24 0 40.5 -16.5t16.5 -39.5t-16.5 -39.5t-40.5 -16.5h-316l-61 -229q-18 -61 -69 -61q-31 0 -45.5 21t-4.5 56l151 566q8 29 26.5 45.5t43.5 16.5z" />
    <glyph glyph-name="G" unicode="G" horiz-adv-x="782" 
d="M720 313l-60 -210q-12 -45 -51 -66q-89 -49 -214 -49q-132 0 -226.5 79.5t-94.5 221.5q0 108 55.5 205t156.5 157.5t222 60.5q161 0 243 -86q24 -22 24 -50q0 -25 -17.5 -42.5t-42.5 -17.5q-24 0 -40 14q-74 69 -176 69q-124 0 -210 -92t-86 -214q0 -90 56 -141t144 -51
q83 0 148 36l43 147h-123q-23 0 -38.5 15.5t-15.5 37.5q0 23 15.5 38.5t38.5 15.5h199q31 0 45.5 -21.5t4.5 -56.5z" />
    <glyph glyph-name="H" unicode="H" horiz-adv-x="756" 
d="M763 626l-153 -571q-8 -28 -26.5 -44t-42.5 -16q-31 0 -45.5 21t-4.5 58l60 221h-329l-65 -240q-16 -60 -68 -60q-31 0 -45.5 21.5t-4.5 57.5l153 571q8 28 26.5 44t42.5 16q31 0 45.5 -21t4.5 -58l-58 -217h329l63 236q16 60 68 60q31 0 45.5 -21.5t4.5 -57.5z" />
    <glyph glyph-name="I" unicode="I" horiz-adv-x="317" 
d="M318 626l-154 -571q-16 -60 -68 -60q-31 0 -45.5 21.5t-4.5 57.5l153 571q8 28 26.5 44t42.5 16q31 0 45.5 -21t4.5 -58z" />
    <glyph glyph-name="J" unicode="J" horiz-adv-x="564" 
d="M581 626l-97 -361q-21 -77 -42.5 -122t-56.5 -81q-73 -72 -195 -72q-115 0 -183 85q-21 21 -21 46t17 42t41 17t45 -20q38 -56 107 -56q63 0 106 43q36 36 66 146l94 352q8 28 26.5 44t42.5 16q31 0 45.5 -21t4.5 -58z" />
    <glyph glyph-name="K" unicode="K" horiz-adv-x="718" 
d="M192 186l-35 -131q-16 -60 -68 -60q-31 0 -45.5 21.5t-4.5 57.5l153 571q8 28 26.5 44t42.5 16q31 0 45.5 -21t4.5 -58l-75 -279l405 335q27 23 51 23q26 0 41 -15.5t15 -39.5q0 -28 -22 -46l-260 -211l144 -302q10 -21 10 -41q0 -24 -18.5 -39.5t-42.5 -15.5
q-43 0 -63 43l-131 286z" />
    <glyph glyph-name="L" unicode="L" horiz-adv-x="618" 
d="M475 0h-385q-31 0 -45.5 21.5t-4.5 56.5l152 567q8 28 26.5 44t42.5 16q31 0 45.5 -21t4.5 -58l-138 -514h302q23 0 39.5 -16.5t16.5 -39.5q0 -24 -16.5 -40t-39.5 -16z" />
    <glyph glyph-name="M" unicode="M" horiz-adv-x="868" 
d="M815 704h10q31 0 45.5 -21.5t4.5 -58.5l-153 -569q-7 -28 -26 -44t-44 -16q-30 0 -44.5 21.5t-5.5 57.5l107 400l-227 -242q-34 -37 -66 -37q-37 0 -53 44l-94 235l-112 -418q-16 -61 -68 -61q-31 0 -45.5 21.5t-4.5 57.5l152 566q18 64 70 64h7q44 0 63 -50l123 -315
l285 325q35 40 76 40z" />
    <glyph glyph-name="N" unicode="N" horiz-adv-x="786" 
d="M558 205l119 440q16 60 68 60q31 0 45 -21t4 -58l-155 -573q-15 -57 -65 -57h-2q-48 0 -70 47l-225 466l-122 -454q-16 -60 -67 -60q-31 0 -45 21t-4 58l152 568q17 62 73 62h6q50 0 73 -51z" />
    <glyph glyph-name="O" unicode="O" horiz-adv-x="836" 
d="M390 -12q-139 0 -226.5 87.5t-87.5 219.5q0 106 52.5 201.5t149 155.5t213.5 60q140 0 227.5 -87.5t87.5 -219.5q0 -106 -52.5 -201.5t-149.5 -155.5t-214 -60zM403 101q78 0 142.5 44.5t98.5 112.5t34 140q0 88 -53.5 144.5t-145.5 56.5q-78 0 -142.5 -44.5
t-98.5 -112.5t-34 -140q0 -89 53.5 -145t145.5 -56z" />
    <glyph glyph-name="P" unicode="P" horiz-adv-x="674" 
d="M204 227l-47 -172q-16 -60 -68 -60q-31 0 -45.5 21.5t-4.5 57.5l151 564q8 29 26.5 45.5t43.5 16.5h168q144 0 212 -69q52 -52 52 -138q0 -124 -95 -195t-247 -71h-146zM233 336h124q96 0 151.5 39t55.5 108q0 42 -27 69q-36 36 -113 36h-124z" />
    <glyph glyph-name="Q" unicode="Q" horiz-adv-x="836" 
d="M546 292l62 -85q70 84 70 191q0 88 -53.5 144.5t-145.5 56.5q-78 0 -142.5 -44.5t-98.5 -112.5t-34 -140q0 -89 53.5 -145t145.5 -56q63 0 119 32l-60 73q-22 31 -22 51q0 25 17.5 42.5t42.5 17.5q30 0 46 -25zM618 -2l-32 41q-91 -51 -196 -51q-139 0 -226.5 87.5
t-87.5 219.5q0 106 52.5 201.5t149 155.5t213.5 60q140 0 227.5 -87.5t87.5 -219.5q0 -83 -33.5 -161t-93.5 -137l26 -30q20 -23 20 -48t-16.5 -41.5t-41.5 -16.5q-33 0 -49 27z" />
    <glyph glyph-name="R" unicode="R" horiz-adv-x="723" 
d="M208 244l-51 -189q-16 -60 -68 -60q-31 0 -45.5 21.5t-4.5 57.5l151 564q8 29 26.5 45.5t43.5 16.5h201q145 0 212 -68q51 -51 51 -132q0 -98 -64 -160q-57 -59 -168 -83l99 -165q14 -20 14 -41q0 -26 -18 -41t-42 -15q-47 0 -70 40l-121 209h-146zM238 353h158
q114 0 165 53q35 35 35 84q0 37 -25 64q-36 34 -117 34h-153z" />
    <glyph glyph-name="S" unicode="S" horiz-adv-x="637" 
d="M303 99q59 0 97 27t38 70q0 32 -27.5 54.5t-101.5 51.5q-90 36 -135 78t-45 110q0 97 77 158.5t192 61.5q126 0 217 -69q28 -21 28 -52q0 -25 -17.5 -42.5t-42.5 -17.5q-23 0 -36 13q-71 59 -158 59q-59 0 -94.5 -27.5t-35.5 -64.5q0 -33 28.5 -54.5t107.5 -52.5
q88 -34 131 -76.5t43 -111.5q0 -100 -79.5 -162t-193.5 -62q-165 0 -260 90q-24 20 -24 51q0 26 17 44t43 18q23 0 41 -16q45 -42 88 -60t102 -18z" />
    <glyph glyph-name="T" unicode="T" horiz-adv-x="619" 
d="M455 586l-143 -531q-16 -60 -68 -60q-31 0 -45.5 21.5t-4.5 57.5l138 512h-155q-23 0 -40 17t-17 40t17 40t40 17h464q23 0 40 -17t17 -40t-17 -40t-40 -17h-186z" />
    <glyph glyph-name="U" unicode="U" horiz-adv-x="762" 
d="M776 626l-93 -343q-36 -134 -109 -207q-87 -87 -229 -87q-122 0 -190.5 62t-68.5 169q0 50 16 111l83 314q8 28 26.5 44t42.5 16q31 0 45.5 -21t4.5 -58l-84 -312q-10 -46 -10 -77q0 -60 38 -97t109 -37q79 0 131 52q53 53 77 147l92 343q7 28 26 44t43 16q31 0 45.5 -21
t4.5 -58z" />
    <glyph glyph-name="V" unicode="V" horiz-adv-x="721" 
d="M769 622l-400 -581q-36 -51 -83 -51h-5q-50 0 -59 56l-88 573q-3 13 -3 30q0 24 18 40t47 16q59 0 65 -57l64 -483l336 500q25 40 65 40q55 0 55 -45q0 -21 -12 -38z" />
    <glyph glyph-name="W" unicode="W" horiz-adv-x="1098" 
d="M1145 621l-364 -580q-31 -51 -82 -51h-5q-54 0 -57 55l-33 447l-274 -451q-32 -51 -80 -51h-6q-52 0 -57 55l-51 574q-2 16 -2 29q0 24 18 40.5t46 16.5q27 0 43.5 -14t17.5 -38l34 -472l284 478q27 48 70 48h7q52 0 55 -49l31 -477l292 483q25 41 67 41q25 0 41 -13.5
t16 -36.5q0 -14 -11 -34z" />
    <glyph glyph-name="X" unicode="X" horiz-adv-x="698" 
d="M450 348l133 -247q16 -27 16 -47q0 -25 -18 -42t-44 -17q-43 0 -64 43l-113 225l-236 -234q-32 -34 -63 -34q-22 0 -37.5 14.5t-15.5 39.5q0 27 24 49l268 265l-129 236q-15 28 -15 47q0 25 18 42t44 17q43 0 63 -43l111 -217l223 227q33 33 63 33q22 0 37.5 -14.5
t15.5 -38.5q0 -26 -22 -48z" />
    <glyph glyph-name="Y" unicode="Y" horiz-adv-x="655" 
d="M382 261l-55 -206q-8 -28 -26.5 -44t-42.5 -16q-31 0 -45.5 21t-4.5 58l54 200l-138 327q-12 28 -12 46q0 25 18.5 41.5t47.5 16.5q43 0 60 -48l108 -276l270 290q33 35 67 35q24 0 38 -13.5t14 -37.5q0 -27 -22 -49z" />
    <glyph glyph-name="Z" unicode="Z" horiz-adv-x="681" 
d="M26 110l514 481h-323q-23 0 -39 16t-16 38q0 23 16 39t39 16h458q25 0 39 -12.5t14 -34.5v-2q0 -29 -34 -61l-514 -481h341q23 0 39 -16.5t16 -38.5t-16 -38t-39 -16h-476q-24 0 -38.5 12.5t-14.5 34.5v2q0 27 34 61z" />
    <glyph glyph-name="bracketleft" unicode="[" horiz-adv-x="455" 
d="M474 605h-163l-172 -640h137q20 0 34 -14t14 -33q0 -20 -14 -34t-34 -14h-210q-28 0 -43 18.5t-8 44.5l189 705q7 28 26.5 45t48.5 17h195q19 0 33 -14t14 -34t-13.5 -33.5t-33.5 -13.5z" />
    <glyph glyph-name="backslash" unicode="\" horiz-adv-x="521" 
d="M238 755l185 -806q5 -28 5 -37q0 -20 -13 -32.5t-34 -12.5q-42 0 -52 48l-185 806q-5 27 -5 37q0 20 13 32.5t34 12.5q42 0 52 -48z" />
    <glyph glyph-name="bracketright" unicode="]" horiz-adv-x="455" 
d="M187 -130h-195q-20 0 -34 14t-14 34q0 19 14 33t34 14h162l172 640h-137q-20 0 -34 14t-14 33q0 20 14.5 34t33.5 14h211q27 0 42 -19t8 -44l-189 -705q-7 -28 -26.5 -45t-47.5 -17z" />
    <glyph glyph-name="asciicircum" unicode="^" horiz-adv-x="500" 
d="M146 542l126 126q36 36 69 36h8q39 0 57 -38l59 -128q9 -20 9 -29q0 -21 -28 -21q-24 0 -36.5 7.5t-26.5 35.5l-48 94l-99 -96q-45 -41 -76 -41q-14 0 -21.5 7t-7.5 17q0 15 15 30z" />
    <glyph glyph-name="underscore" unicode="_" horiz-adv-x="600" 
d="M-101 -160q-20 0 -34 14t-14 33t14 33t34 14h604q19 0 33 -14t14 -33t-14 -33t-33 -14h-604z" />
    <glyph glyph-name="grave" unicode="`" horiz-adv-x="500" 
d="M336 617l-51 64q-12 17 -12 27q0 15 23 28.5t48 13.5q35 0 45 -31l32 -85q4 -9 4 -18q0 -26 -38 -26q-18 0 -28.5 5.5t-22.5 21.5z" />
    <glyph glyph-name="a" unicode="a" horiz-adv-x="583" 
d="M219 76q55 0 101.5 36.5t61.5 89.5l7 24q-62 20 -128 20q-57 0 -92.5 -27t-35.5 -72q0 -32 23.5 -51.5t62.5 -19.5zM391 -5q-57 0 -51 56l5 19q-73 -81 -174 -81q-69 0 -114 40t-45 104q0 89 64.5 140t166.5 51q77 0 164 -26l3 9q6 26 6 44q0 80 -117 80q-51 0 -104 -15
q-10 -3 -21 -3q-21 0 -34.5 14t-13.5 35q0 36 38 48q77 25 159 25q103 0 157 -42.5t54 -120.5q0 -29 -11 -77l-64 -240q-17 -60 -68 -60z" />
    <glyph glyph-name="b" unicode="b" 
d="M330 -11q-122 0 -179 105l-10 -39q-16 -60 -67 -60q-31 0 -45 21t-4 57l160 602q17 60 68 60q31 0 45 -21t4 -57l-54 -199q81 81 169 81q90 0 148 -61.5t58 -164.5q0 -137 -88.5 -230.5t-204.5 -93.5zM315 93q75 0 128.5 62t53.5 150q0 60 -34 95t-91 35q-74 0 -132 -63
t-58 -146q0 -58 37.5 -95.5t95.5 -37.5z" />
    <glyph glyph-name="c" unicode="c" horiz-adv-x="561" 
d="M468 54q-80 -66 -182 -66q-104 0 -173 64.5t-69 170.5q0 129 93 222.5t219 93.5q115 0 183 -77q21 -23 21 -48q0 -23 -16.5 -39.5t-40.5 -16.5q-27 0 -42 19q-42 57 -115 57q-72 0 -126.5 -63t-54.5 -147q0 -60 36 -96t89 -36q58 0 111 40q20 14 37 14q21 0 35 -15
t14 -36q0 -24 -19 -41z" />
    <glyph glyph-name="d" unicode="d" 
d="M296 93q74 0 132 63t58 146q0 58 -37.5 95.5t-96.5 37.5q-74 0 -128 -62t-54 -150q0 -60 34.5 -95t91.5 -35zM466 -5q-26 0 -40 14.5t-13 38.5l6 22q-81 -81 -169 -81q-90 0 -148 61.5t-58 164.5q0 137 88.5 230.5t205.5 93.5q121 0 178 -105l64 241q16 60 68 60
q31 0 44.5 -21t3.5 -57l-160 -602q-16 -60 -70 -60z" />
    <glyph glyph-name="e" unicode="e" horiz-adv-x="600" 
d="M296 87q59 0 106 32q22 12 38 12q20 0 33 -13t13 -34q0 -26 -23 -41q-75 -55 -179 -55q-110 0 -175 62.5t-65 168.5q0 79 38.5 152t111.5 120.5t161 47.5q99 0 155 -58t56 -147q0 -24 -6 -58q-12 -54 -60 -54h-340v-10q2 -58 37.5 -91.5t98.5 -33.5zM172 302h274
q5 15 5 37q0 44 -26.5 72.5t-78.5 28.5q-60 0 -107 -38.5t-67 -99.5z" />
    <glyph glyph-name="f" unicode="f" horiz-adv-x="396" 
d="M268 424l-99 -369q-17 -60 -68 -60q-31 0 -45 21t-4 57l95 351h-14q-18 3 -32 16.5t-14 35.5t15 37t36 15h37l10 43q44 164 201 164q31 0 57 -7q41 -9 41 -48q0 -28 -17 -43.5t-39 -10.5q-19 6 -39 6q-67 0 -87 -74l-8 -30h85q22 0 36.5 -15t14.5 -37t-14.5 -37
t-36.5 -15h-111z" />
    <glyph glyph-name="g" unicode="g" horiz-adv-x="666" 
d="M296 141q73 0 128.5 53.5t55.5 123.5q0 51 -35 84.5t-93 33.5q-72 0 -125 -53.5t-53 -128.5q0 -54 34.5 -83.5t87.5 -29.5zM514 433l11 40q16 61 67 61q31 0 45 -21.5t4 -57.5l-97 -363q-19 -71 -39 -110.5t-51 -69.5q-74 -74 -208 -74q-126 0 -230 57q-33 17 -33 47
q0 22 14.5 37.5t36.5 15.5q18 0 37 -10q79 -49 168 -49q82 0 129 47q35 35 55 107l9 32q-86 -80 -181 -80q-83 0 -143 51.5t-60 139.5q0 128 89 217t203 89q68 0 108 -29t66 -77z" />
    <glyph glyph-name="h" unicode="h" horiz-adv-x="618" 
d="M554 288l-62 -233q-16 -60 -67 -60q-31 0 -45 21t-4 57l59 220q8 27 8 53q0 40 -24 61.5t-68 21.5q-50 0 -89.5 -36.5t-55.5 -95.5l-65 -242q-16 -60 -67 -60q-31 0 -45 21t-4 57l160 602q17 60 68 60q31 0 45 -21t4 -57l-53 -196q80 78 161 78q73 0 116.5 -42.5
t43.5 -115.5q0 -31 -16 -93z" />
    <glyph glyph-name="i" unicode="i" horiz-adv-x="286" 
d="M319 660q-6 -25 -28 -40.5t-51 -15.5q-30 0 -47.5 16.5t-11.5 40.5l3 12q6 26 27.5 41t51.5 15q29 0 46.5 -16.5t12.5 -40.5zM255 455l-107 -400q-17 -60 -68 -60q-31 0 -45 21t-4 57l108 400q16 61 67 61q31 0 45 -21.5t4 -57.5z" />
    <glyph glyph-name="j" unicode="j" horiz-adv-x="285" 
d="M255 455l-124 -462q-41 -156 -179 -156q-75 0 -75 51q0 22 14.5 37t35.5 13q15 -3 26 -3q22 0 36 16t24 52l126 470q16 61 67 61q31 0 45 -21.5t4 -57.5zM319 660q-6 -25 -28 -40.5t-51 -15.5q-30 0 -47.5 16.5t-11.5 40.5l3 12q6 26 27.5 41t51.5 15q29 0 46.5 -16.5
t12.5 -40.5z" />
    <glyph glyph-name="k" unicode="k" horiz-adv-x="582" 
d="M303 657l-97 -362l278 217q28 22 47 22q22 0 36 -14t14 -35q0 -27 -23 -42l-182 -139l97 -213q12 -27 12 -42q0 -25 -19 -39.5t-44 -14.5q-44 0 -62 43l-89 191l-105 -80l-25 -94q-16 -60 -67 -60q-31 0 -45 21t-4 57l162 602q16 60 67 60q31 0 45 -21t4 -57z" />
    <glyph glyph-name="l" unicode="l" horiz-adv-x="286" 
d="M309 657l-161 -602q-17 -60 -68 -60q-31 0 -45 21t-4 57l162 602q16 60 68 60q31 0 44.5 -21t3.5 -57z" />
    <glyph glyph-name="m" unicode="m" horiz-adv-x="950" 
d="M367 73l59 220q7 30 7 53q0 40 -22.5 61.5t-63.5 21.5q-49 0 -87 -36t-54 -96l-65 -242q-16 -60 -67 -60q-31 0 -45 21t-4 57l107 400q16 61 69 61q26 0 40.5 -15t13.5 -37l-6 -21q78 78 155 78q56 0 93 -29t51 -77q79 106 198 106q71 0 114 -43t43 -115q0 -27 -17 -93
l-62 -233q-16 -60 -67 -60q-31 0 -45 21t-4 57l59 220q7 30 7 53q0 40 -22.5 61.5t-63.5 21.5q-49 0 -87 -36.5t-53 -95.5l-65 -242q-16 -60 -68 -60q-31 0 -44.5 21t-3.5 57z" />
    <glyph glyph-name="n" unicode="n" horiz-adv-x="617" 
d="M201 534q26 0 40.5 -15t13.5 -37l-6 -21q80 78 161 78q73 0 116.5 -42.5t43.5 -115.5q0 -31 -16 -93l-62 -233q-16 -60 -67 -60q-31 0 -45 21t-4 57l59 220q8 27 8 53q0 40 -24 61.5t-68 21.5q-50 0 -89.5 -36.5t-55.5 -95.5l-65 -242q-16 -60 -67 -60q-31 0 -45 21
t-4 57l107 400q16 61 69 61z" />
    <glyph glyph-name="o" unicode="o" horiz-adv-x="646" 
d="M293 -12q-112 0 -180 67.5t-68 173.5q0 122 91 216t217 94q112 0 180 -68t68 -174q0 -122 -91.5 -215.5t-216.5 -93.5zM300 93q74 0 127.5 63.5t53.5 137.5q0 66 -37 103t-98 37q-75 0 -128 -63.5t-53 -137.5q0 -66 37 -103t98 -37z" />
    <glyph glyph-name="p" unicode="p" 
d="M372 435q-74 0 -132 -63t-58 -146q0 -58 37.5 -95.5t95.5 -37.5q75 0 128.5 62t53.5 150q0 60 -34 95t-91 35zM201 534q26 0 40 -14.5t13 -39.5l-6 -22q81 81 169 81q90 0 148 -61.5t58 -164.5q0 -137 -88.5 -230.5t-204.5 -93.5q-122 0 -179 105l-53 -199
q-16 -60 -67 -60q-31 0 -45 21t-4 57l150 560q16 61 69 61z" />
    <glyph glyph-name="q" unicode="q" 
d="M338 539q122 0 178 -104l11 38q16 61 67 61q31 0 44.5 -21.5t3.5 -57.5l-148 -560q-17 -60 -68 -60q-31 0 -45 21t-4 57l42 158q-79 -82 -169 -82t-148 61.5t-58 164.5q0 137 88.5 230.5t205.5 93.5zM352 435q-74 0 -128 -62t-54 -150q0 -60 34.5 -95t91.5 -35
q74 0 132 63t58 147q0 58 -37.5 95t-96.5 37z" />
    <glyph glyph-name="r" unicode="r" horiz-adv-x="412" 
d="M249 462l-12 -45q33 57 73.5 87.5t82.5 30.5q25 0 39 -14.5t14 -40.5q0 -50 -57 -64q-160 -36 -210 -220l-38 -141q-17 -60 -68 -60q-31 0 -45 21t-4 57l108 400q16 61 67 61q30 0 44 -20t6 -52z" />
    <glyph glyph-name="s" unicode="s" horiz-adv-x="499" 
d="M227 83q36 0 60 17t24 46q0 19 -18 34t-59 32q-78 32 -115 63.5t-37 87.5q0 76 57 126t150 50q90 0 170 -50q28 -16 28 -46q0 -22 -14.5 -37.5t-36.5 -15.5q-14 0 -33 12q-61 42 -123 42q-38 0 -59.5 -17t-21.5 -43q0 -20 19 -35t65 -34q71 -30 108 -62.5t37 -85.5
q0 -81 -59.5 -130t-151.5 -49q-112 0 -204 69q-22 16 -22 43q0 22 14.5 37t34.5 15q18 0 35 -13q70 -56 152 -56z" />
    <glyph glyph-name="t" unicode="t" horiz-adv-x="409" 
d="M172 528l25 90q16 60 67 60q31 0 45 -21t4 -57l-20 -72h81q21 0 36 -15t15 -37t-15 -37t-36 -15h-109l-68 -255q-4 -20 -4 -30q0 -41 51 -41q11 0 21 2q21 2 34 -10t13 -35q0 -37 -33 -50q-32 -14 -81 -14q-64 0 -99 28t-35 76q0 31 9 61l71 268h-14q-18 3 -32 16.5
t-14 35.5t15 37t36 15h37z" />
    <glyph glyph-name="u" unicode="u" horiz-adv-x="618" 
d="M417 -5q-25 0 -40 14.5t-14 36.5l6 22q-79 -79 -160 -79q-74 0 -117.5 42.5t-43.5 115.5q0 31 16 93l62 233q16 61 67 61q31 0 45 -21.5t4 -57.5l-59 -220q-7 -28 -7 -53q0 -40 24 -61.5t67 -21.5q50 0 89.5 36.5t55.5 95.5l65 242q16 61 67 61q31 0 45 -21.5t4 -57.5
l-106 -400q-17 -60 -70 -60z" />
    <glyph glyph-name="v" unicode="v" horiz-adv-x="582" 
d="M584 452l-287 -411q-35 -50 -80 -50h-3q-54 0 -61 54l-65 401q-3 14 -3 31q0 24 18.5 40.5t42.5 16.5q27 0 43.5 -14t18.5 -39l41 -339l230 352q27 40 64 40q24 0 37.5 -12.5t13.5 -34.5q0 -18 -10 -35z" />
    <glyph glyph-name="w" unicode="w" horiz-adv-x="853" 
d="M117 47l-28 399q-2 18 -2 30q0 24 19 41t43 17q27 0 43.5 -14.5t17.5 -38.5l15 -313l188 318q27 48 71 48h6q51 0 54 -49l18 -318l195 329q21 38 58 38q23 0 36 -12.5t13 -33.5q0 -15 -11 -35l-252 -413q-28 -49 -78 -49h-4q-53 0 -56 56l-19 310l-189 -316
q-29 -50 -78 -50h-4q-53 0 -56 56z" />
    <glyph glyph-name="x" unicode="x" horiz-adv-x="572" 
d="M231 490l74 -139l156 152q28 26 44 30q7 2 15 2q21 0 35 -13.5t14 -34.5q0 -30 -28 -54l-185 -169l99 -167q15 -25 15 -47q0 -26 -16.5 -42t-42.5 -16q-36 0 -60 46l-78 148l-167 -161q-2 -2 -9 -8t-9.5 -8t-8.5 -6t-10 -5.5t-10 -3t-12 -1.5q-21 0 -35 13.5t-14 35.5
q0 29 28 54l195 177l-94 158q-16 24 -16 47q0 24 16 40.5t41 16.5q23 0 36.5 -10.5t26.5 -34.5z" />
    <glyph glyph-name="y" unicode="y" horiz-adv-x="585" 
d="M30 -48q31 -12 53 -12q43 0 85 59l-74 447q-2 18 -2 30q0 25 17 41.5t43 16.5q25 0 41.5 -14.5t18.5 -39.5l47 -346l220 360q23 40 63 40q24 0 38.5 -13t14.5 -35q0 -16 -16 -42l-296 -459q-53 -81 -102.5 -114.5t-112.5 -33.5q-47 0 -77 15q-37 16 -37 53
q0 22 14.5 37.5t34.5 15.5q7 0 27 -6z" />
    <glyph glyph-name="z" unicode="z" horiz-adv-x="554" 
d="M160 528h347q25 0 39.5 -12t14.5 -32v-1q0 -29 -29 -54l-370 -330h241q20 0 35 -14.5t15 -35.5q0 -20 -15 -34.5t-35 -14.5h-361q-25 0 -39.5 12t-14.5 33v1q0 28 29 53l370 330h-227q-21 0 -35.5 14.5t-14.5 34.5q0 21 14.5 35.5t35.5 14.5z" />
    <glyph glyph-name="braceleft" unicode="{" horiz-adv-x="487" 
d="M104 333h6q71 0 101 34.5t44 128.5q16 106 73.5 157.5t167.5 59.5q26 2 40 -9t14 -32q0 -36 -39 -43q-76 -11 -107.5 -47t-42.5 -113q-13 -101 -49 -141.5t-111 -49.5q39 -7 60 -30t21 -57q0 -27 -16 -71q-18 -56 -18 -84q0 -60 63 -87q29 -13 29 -42q0 -23 -16.5 -35.5
t-40.5 -6.5q-151 36 -151 151q0 34 21 96q13 41 13 67q0 28 -13 42t-46 18q-53 10 -53 48q0 20 14 33t36 13z" />
    <glyph glyph-name="bar" unicode="|" horiz-adv-x="331" 
d="M135 -85v840q0 20 14 34t34 14t34.5 -14t14.5 -34v-840q0 -20 -14.5 -34t-34.5 -14t-34 14t-14 34z" />
    <glyph glyph-name="braceright" unicode="}" horiz-adv-x="487" 
d="M395 241h-6q-70 0 -100.5 -35t-44.5 -128q-16 -106 -73.5 -157.5t-167.5 -59.5q-26 -2 -40 9t-14 32q0 36 39 43q76 11 107.5 47t42.5 113q13 101 49.5 141.5t110.5 49.5q-80 15 -80 87q0 30 15 71q18 56 18 84q0 61 -63 87q-29 13 -29 42q0 23 16.5 35.5t40.5 6.5
q152 -36 152 -151q0 -34 -21 -96q-14 -39 -14 -67t13 -42t46 -18h1q52 -10 52 -48q0 -20 -14 -33t-36 -13z" />
    <glyph glyph-name="asciitilde" unicode="~" horiz-adv-x="495" 
d="M108 229q-15 0 -25.5 9.5t-10.5 24.5q0 13 8 26q52 93 123 93q37 0 75 -31q36 -27 52 -27q27 0 53 37q17 20 38 20q15 0 25 -9t10 -24q0 -14 -7 -27q-53 -92 -123 -92q-37 0 -76 31q-36 27 -51 27q-26 0 -54 -37q-16 -21 -37 -21z" />
    <glyph glyph-name="uni00A0" unicode="&#xa0;" horiz-adv-x="300" 
 />
    <glyph glyph-name="exclamdown" unicode="&#xa1;" horiz-adv-x="303" 
d="M22 41l143 412q12 31 40 31q17 0 25.5 -11t5.5 -30l-76 -404q-4 -18 -16 -30t-29 -12h-67q-17 0 -25 13t-1 31zM178 624l4 17q7 30 28 47t51 17q31 0 49 -20t12 -47l-4 -17q-7 -29 -28 -46.5t-51 -17.5q-31 0 -49 20t-12 47z" />
    <glyph glyph-name="cent" unicode="&#xa2;" horiz-adv-x="578" 
d="M505 134q-80 -55 -177 -55q-16 0 -46 4l-21 -52q-16 -42 -48 -42q-22 0 -32.5 16t-1.5 40l24 59q-63 29 -98.5 85t-35.5 130q0 131 90.5 221t222.5 90q17 0 26 -1l16 40q18 42 49 42q22 0 32 -15.5t1 -40.5l-17 -43q59 -22 89 -62q23 -23 23 -46q0 -24 -16.5 -40.5
t-41.5 -16.5t-41 18q-24 31 -57 45l-127 -325q3 -1 10 -1q60 1 114 36q22 12 40 12q21 0 34 -15t13 -36q0 -30 -24 -47zM189 321q0 -78 58 -113l124 317h-4q-76 -5 -127 -65.5t-51 -138.5z" />
    <glyph glyph-name="sterling" unicode="&#xa3;" horiz-adv-x="638" 
d="M451 596q-49 0 -84 -35q-32 -32 -49 -95l-24 -84h191q21 0 36.5 -15.5t15.5 -36.5q0 -22 -15.5 -37t-36.5 -15h-218l-45 -171h261q23 0 38.5 -15.5t15.5 -38.5q0 -22 -15.5 -37.5t-38.5 -15.5h-438q-21 0 -34.5 12.5t-13.5 30.5q0 35 40 46l61 17l46 172h-18
q-21 0 -36.5 15t-15.5 37q0 21 15.5 36.5t36.5 15.5h46l28 105q26 98 80 152q70 70 180 70q106 0 166 -65q26 -24 26 -50q0 -27 -17 -45t-44 -18q-23 0 -42 19q-39 46 -98 46z" />
    <glyph glyph-name="yen" unicode="&#xa5;" horiz-adv-x="708" 
d="M384 406l250 265q33 35 60 35q24 0 37.5 -13.5t13.5 -37.5t-23 -49l-251 -253h106q19 0 32 -13t13 -32q0 -18 -13 -31t-32 -13h-166l-19 -73h142q19 0 32 -13t13 -32q0 -18 -13 -31t-32 -13h-166l-12 -47q-8 -28 -26 -44t-41 -16q-30 0 -44 19.5t-4 54.5l8 33h-141
q-18 0 -31.5 13t-13.5 31q0 19 13.5 32t31.5 13h165l19 73h-141q-19 0 -32 13t-13 31q0 19 13 32t32 13h130l-110 248q-13 30 -13 45q0 25 18 42t44 17q44 0 60 -41z" />
    <glyph glyph-name="section" unicode="&#xa7;" horiz-adv-x="632" 
d="M397 275q37 0 63 18t26 43q0 22 -23 37.5t-77 32.5q-64 21 -105 21q-37 0 -63 -18t-26 -43q0 -22 23 -37.5t77 -32.5q64 -21 105 -21zM292 84q38 0 62 14t24 36q0 20 -24.5 35t-88.5 34q-96 29 -142 59.5t-46 84.5q0 52 40.5 86t113.5 44q-48 36 -48 87q0 65 60.5 106
t153.5 41q108 0 188 -55q25 -17 25 -45q0 -22 -15 -37t-37 -15q-16 0 -31 11q-70 48 -139 48q-40 0 -64 -13.5t-24 -36.5q0 -20 24.5 -35t88.5 -34q95 -28 141.5 -58.5t46.5 -84.5q0 -52 -40.5 -86.5t-113.5 -44.5q48 -36 48 -87q0 -65 -60 -106t-150 -41q-124 0 -208 67
q-21 16 -21 42q0 22 14.5 37t35.5 15t35 -12q70 -56 151 -56z" />
    <glyph glyph-name="dieresis" unicode="&#xa8;" horiz-adv-x="500" 
d="M263 720q28 0 44.5 -17.5t10.5 -41.5l-4 -16q-6 -24 -26.5 -40t-47.5 -16q-29 0 -45.5 17.5t-10.5 41.5l4 16q7 25 27.5 40.5t47.5 15.5zM462 720q28 0 44.5 -17.5t10.5 -41.5l-4 -16q-6 -24 -26.5 -40t-47.5 -16q-29 0 -45.5 17.5t-10.5 41.5l4 16q7 25 27.5 40.5
t47.5 15.5z" />
    <glyph glyph-name="copyright" unicode="&#xa9;" horiz-adv-x="830" 
d="M436 -12q-151 0 -256 105.5t-105 254.5v2q0 149 106 255.5t257 106.5t256 -105.5t105 -254.5v-2q0 -149 -106 -255.5t-257 -106.5zM436 24q138 0 231.5 95.5t93.5 230.5v2q0 135 -93 229.5t-230 94.5q-138 0 -231 -95.5t-93 -230.5v-2q0 -135 92.5 -229.5t229.5 -94.5z
M441 159q-82 0 -137 56t-55 138v2q0 82 55.5 139t139.5 57q76 0 129 -43q16 -11 16 -30q0 -16 -10.5 -26.5t-25.5 -10.5q-11 0 -24 10q-41 32 -86 32q-50 0 -84 -37t-34 -90v-2q0 -53 34 -90t85 -37q49 0 91 36q9 9 22 9q14 0 24.5 -10.5t10.5 -24.5q0 -15 -12 -25
q-60 -53 -139 -53z" />
    <glyph glyph-name="ordfeminine" unicode="&#xaa;" horiz-adv-x="390" 
d="M217 453q29 0 55.5 20.5t33.5 48.5l2 10q-37 11 -65 11q-31 0 -50 -15t-19 -39q0 -16 12 -26t31 -10zM261 643q-29 0 -53 -7q-15 -3 -17 -3q-26 0 -26 27q0 23 23 31q41 13 88 13q57 0 87 -23.5t30 -66.5q0 -15 -6 -43l-36 -131q-10 -35 -39 -35q-17 0 -24.5 9.5
t-5.5 23.5l3 10q-43 -45 -96 -45q-38 0 -62 22t-24 56q0 49 36.5 78t91.5 29q41 0 88 -15l2 7q4 14 4 20q0 43 -64 43zM80 282q-12 0 -20.5 8.5t-8.5 20.5t8.5 20.5t20.5 8.5h221q12 0 20.5 -8.5t8.5 -20.5t-8.5 -20.5t-20.5 -8.5h-221z" />
    <glyph glyph-name="guillemotleft" unicode="&#xab;" horiz-adv-x="605" 
d="M67 281l176 173q29 25 49 25q21 0 33.5 -12t12.5 -33q0 -24 -18 -38l-155 -150l65 -130q8 -19 8 -32q0 -21 -15 -35t-37 -14q-32 0 -48 31l-74 147q-13 26 -13 36q0 18 16 32zM318 281l175 173q29 25 49 25q21 0 33.5 -12t12.5 -33q0 -23 -17 -38l-156 -150l65 -130
q8 -16 8 -32q0 -21 -15 -35t-37 -14q-32 0 -48 31l-74 147q-13 26 -13 36q0 17 17 32z" />
    <glyph glyph-name="registered" unicode="&#xae;" horiz-adv-x="382" 
d="M266 360q-73 0 -123.5 51t-50.5 123v1q0 72 51 123.5t123 51.5q73 0 123.5 -51t50.5 -123v-1q0 -72 -51 -123.5t-123 -51.5zM266 379q65 0 109.5 46t44.5 110v1q0 64 -44.5 109.5t-109.5 45.5t-109.5 -46t-44.5 -110v-1q0 -64 44.5 -109.5t109.5 -45.5zM194 466v140
q0 10 6.5 16.5t15.5 6.5h63q33 0 53 -15.5t20 -44.5q0 -40 -36 -55l27 -33q6 -6 6 -16q0 -9 -6 -15t-16 -6q-9 0 -18 9l-42 52h-29v-39q0 -9 -6.5 -15.5t-15.5 -6.5t-15.5 6.5t-6.5 15.5zM238 541h38q31 0 31 25t-31 25h-38v-50z" />
    <glyph glyph-name="macron" unicode="&#xaf;" horiz-adv-x="500" 
d="M486 606h-265q-18 0 -31 13t-13 31t13 31t31 13h265q19 0 32 -13t13 -31t-13 -31t-32 -13z" />
    <glyph glyph-name="degree" unicode="&#xb0;" horiz-adv-x="421" 
d="M239 377q-68 0 -109.5 41t-41.5 105q0 74 54 129.5t130 55.5q67 0 108.5 -41t41.5 -105q0 -73 -54 -129t-129 -56zM242 445q44 0 74 35t30 79q0 37 -21.5 59.5t-56.5 22.5q-43 0 -73.5 -35.5t-30.5 -78.5q0 -37 21.5 -59.5t56.5 -22.5z" />
    <glyph glyph-name="plusminus" unicode="&#xb1;" horiz-adv-x="634" 
d="M401 373l-34 -128q-16 -58 -62 -58q-28 0 -40.5 19t-3.5 53l30 114h-123q-22 0 -37 15.5t-15 37.5t15 37.5t37 15.5h152l34 127q16 58 62 58q28 0 40.5 -19t3.5 -53l-30 -113h123q22 0 37 -15.5t15 -37.5t-15 -37.5t-37 -15.5h-152zM453 0h-386q-21 0 -36 15t-15 36
q0 22 15 37t36 15h386q22 0 37 -15t15 -37q0 -21 -15 -36t-37 -15z" />
    <glyph glyph-name="acute" unicode="&#xb4;" horiz-adv-x="500" 
d="M440 681l-85 -64q-37 -27 -74 -27q-33 0 -33 23q0 12 10 22l80 88q28 28 48 28q25 0 49 -13.5t24 -28.5q0 -14 -19 -28z" />
    <glyph glyph-name="paragraph" unicode="&#xb6;" horiz-adv-x="565" 
d="M575 637l-155 -582q-8 -28 -26.5 -44t-42.5 -16q-31 0 -45.5 21.5t-4.5 57.5l40 153q-117 4 -183 54.5t-66 149.5q0 121 89 195t255 74h89q28 0 42.5 -18.5t7.5 -44.5z" />
    <glyph glyph-name="periodcentered" unicode="&#xb7;" horiz-adv-x="293" 
d="M226 313l-4 -17q-7 -30 -28 -47t-51 -17q-31 0 -49 20t-12 47l4 17q7 29 28 46.5t51 17.5q31 0 49 -20t12 -47z" />
    <glyph glyph-name="cedilla" unicode="&#xb8;" horiz-adv-x="500" 
d="M267 10l-100 -144q-17 -26 -42 -26q-19 0 -37.5 13.5t-18.5 29.5q0 14 14 29l93 98h91z" />
    <glyph glyph-name="ordmasculine" unicode="&#xba;" horiz-adv-x="398" 
d="M246 401q-63 0 -101 37.5t-38 96.5q0 68 49.5 119t119.5 51q62 0 100.5 -37.5t38.5 -96.5q0 -68 -49.5 -119t-119.5 -51zM249 462q40 0 68 33t28 73q0 34 -20 55t-52 21q-41 0 -68.5 -32.5t-27.5 -73.5q0 -34 20 -55t52 -21zM81 282q-11 0 -20 8.5t-9 20.5t9 20.5t20 8.5
h236q12 0 20.5 -8.5t8.5 -20.5t-8.5 -20.5t-20.5 -8.5h-236z" />
    <glyph glyph-name="guillemotright" unicode="&#xbb;" horiz-adv-x="605" 
d="M535 240l-176 -173q-27 -25 -48 -25t-34 12t-13 33q0 22 18 38l155 150l-64 130q-9 18 -9 32q0 21 15.5 35t36.5 14q32 0 48 -31l74 -147q13 -26 13 -36q0 -18 -16 -32zM285 240l-176 -173q-27 -25 -49 -25q-21 0 -33.5 12t-12.5 33q0 24 18 38l155 150l-65 130
q-8 19 -8 32q0 21 15.5 35t36.5 14q32 0 48 -31l74 -147q13 -26 13 -36q0 -18 -16 -32z" />
    <glyph glyph-name="questiondown" unicode="&#xbf;" horiz-adv-x="541" 
d="M392 147q26 15 43 15q21 0 35 -15t14 -34q0 -30 -26 -50q-91 -72 -210 -72q-99 0 -157.5 52t-58.5 128q0 90 68 146.5t191 74.5l19 53q15 39 50 39h6q17 0 26.5 -12t7.5 -31l-14 -91q-4 -36 -52 -43q-78 -10 -125.5 -41t-47.5 -81q0 -39 27 -60.5t76 -21.5q63 0 128 44z
M332 624l4 17q7 30 28 47t51 17q31 0 49 -20t12 -47l-4 -17q-7 -29 -28 -46.5t-51 -17.5q-31 0 -49 20t-12 47z" />
    <glyph glyph-name="Agrave" unicode="&#xc0;" horiz-adv-x="758" 
d="M272 278h247l-48 283zM574 651l103 -565q4 -22 4 -32q0 -24 -18 -41.5t-45 -17.5q-25 0 -41 14t-19 36l-21 124h-341l-95 -135q-28 -39 -63 -39q-23 0 -37 13.5t-14 35.5t15 40l414 576q34 50 87 50h3q57 0 68 -59zM456 790l-51 64q-12 17 -12 27q0 15 23 28.5t48 13.5
q35 0 45 -31l32 -85q4 -9 4 -18q0 -26 -38 -26q-18 0 -28.5 5.5t-22.5 21.5z" />
    <glyph glyph-name="Aacute" unicode="&#xc1;" horiz-adv-x="758" 
d="M272 278h247l-48 283zM574 651l103 -565q4 -22 4 -32q0 -24 -18 -41.5t-45 -17.5q-25 0 -41 14t-19 36l-21 124h-341l-95 -135q-28 -39 -63 -39q-23 0 -37 13.5t-14 35.5t15 40l414 576q34 50 87 50h3q57 0 68 -59zM690 854l-85 -64q-37 -27 -74 -27q-33 0 -33 23
q0 12 10 22l80 88q28 28 48 28q25 0 49 -13.5t24 -28.5q0 -14 -19 -28z" />
    <glyph glyph-name="Acircumflex" unicode="&#xc2;" horiz-adv-x="758" 
d="M272 278h247l-48 283zM574 651l103 -565q4 -22 4 -32q0 -24 -18 -41.5t-45 -17.5q-25 0 -41 14t-19 36l-21 124h-341l-95 -135q-28 -39 -63 -39q-23 0 -37 13.5t-14 35.5t15 40l414 576q34 50 87 50h3q57 0 68 -59zM628 887l41 -78q11 -18 11 -26q0 -20 -28 -20
q-25 0 -40 4.5t-31 22.5l-39 45l-64 -45q-39 -27 -77 -27q-26 0 -26 19q0 11 14 27l86 81q29 29 64 29h33q40 0 56 -32z" />
    <glyph glyph-name="Atilde" unicode="&#xc3;" horiz-adv-x="758" 
d="M272 278h247l-48 283zM574 651l103 -565q4 -22 4 -32q0 -24 -18 -41.5t-45 -17.5q-25 0 -41 14t-19 36l-21 124h-341l-95 -135q-28 -39 -63 -39q-23 0 -37 13.5t-14 35.5t15 40l414 576q34 50 87 50h3q57 0 68 -59zM384 764q-15 0 -25.5 9.5t-10.5 24.5q0 13 8 26
q52 93 123 93q37 0 75 -31q36 -27 52 -27q27 0 53 37q17 20 38 20q15 0 25 -9t10 -24q0 -14 -7 -27q-53 -92 -123 -92q-37 0 -76 31q-36 27 -51 27q-26 0 -54 -37q-16 -21 -37 -21z" />
    <glyph glyph-name="Adieresis" unicode="&#xc4;" horiz-adv-x="758" 
d="M272 278h247l-48 283zM574 651l103 -565q4 -22 4 -32q0 -24 -18 -41.5t-45 -17.5q-25 0 -41 14t-19 36l-21 124h-341l-95 -135q-28 -39 -63 -39q-23 0 -37 13.5t-14 35.5t15 40l414 576q34 50 87 50h3q57 0 68 -59zM452 893q28 0 44.5 -17.5t10.5 -41.5l-4 -16
q-6 -24 -26.5 -40t-47.5 -16q-29 0 -45.5 17.5t-10.5 41.5l4 16q7 25 27.5 40.5t47.5 15.5zM651 893q28 0 44.5 -17.5t10.5 -41.5l-4 -16q-6 -24 -26.5 -40t-47.5 -16q-29 0 -45.5 17.5t-10.5 41.5l4 16q7 25 27.5 40.5t47.5 15.5z" />
    <glyph glyph-name="Aring" unicode="&#xc5;" horiz-adv-x="758" 
d="M38 -5q-23 0 -37 13.5t-14 35.5t15 40l434 604q-33 27 -33 72q0 51 37 87.5t89 36.5q48 0 77 -28t29 -69q0 -34 -18 -63.5t-48 -44.5l108 -593q4 -22 4 -32q0 -24 -18 -41.5t-45 -17.5q-25 0 -41 14t-19 36l-21 124h-341l-95 -135q-28 -39 -63 -39zM272 278h247l-48 283z
M511 710q29 0 48.5 23t19.5 53q0 22 -14 36t-37 14q-30 0 -49.5 -23t-19.5 -53q0 -22 14 -36t38 -14z" />
    <glyph glyph-name="AE" unicode="&#xc6;" horiz-adv-x="1061" 
d="M311 278h196l84 315h-21zM572 700h480q22 0 38.5 -16t16.5 -39t-16 -39t-39 -16h-339l-49 -183h264q23 0 39.5 -16t16.5 -39q0 -22 -16.5 -38t-39.5 -16h-293l-51 -188h315q23 0 39 -16t16 -39t-16 -39t-39 -16h-396q-31 0 -45.5 21.5t-4.5 56.5l25 91h-256l-113 -138
q-31 -36 -62 -36q-22 0 -34.5 12t-12.5 32q0 25 19 48l469 566q40 47 84 47z" />
    <glyph glyph-name="Ccedilla" unicode="&#xc7;" horiz-adv-x="730" 
d="M629 72q-96 -84 -238 -84h-8l-84 -122q-17 -26 -42 -26q-19 0 -37.5 13.5t-18.5 29.5q0 14 14 29l82 87q-101 25 -161.5 100.5t-60.5 186.5t56.5 209t154.5 157.5t212 59.5q146 0 234 -98q25 -23 25 -52q0 -26 -18 -44.5t-45 -18.5q-29 0 -44 19q-32 40 -70 60.5
t-96 20.5q-112 0 -196.5 -92.5t-84.5 -215.5q0 -86 53 -137.5t138 -51.5q49 0 83 13.5t76 45.5q24 15 42 15q24 0 40 -17t16 -41q0 -28 -22 -46z" />
    <glyph glyph-name="Egrave" unicode="&#xc8;" horiz-adv-x="660" 
d="M503 0h-413q-31 0 -45.5 21.5t-4.5 56.5l150 560q8 29 26.5 45.5t43.5 16.5h396q22 0 38.5 -16t16.5 -39t-16 -39t-39 -16h-356l-49 -183h281q23 0 39.5 -16t16.5 -39q0 -22 -16.5 -38t-39.5 -16h-310l-51 -188h332q23 0 39 -16t16 -39t-16 -39t-39 -16zM410 780l-51 64
q-12 17 -12 27q0 15 23 28.5t48 13.5q35 0 45 -31l32 -85q4 -9 4 -18q0 -26 -38 -26q-18 0 -28.5 5.5t-22.5 21.5z" />
    <glyph glyph-name="Eacute" unicode="&#xc9;" horiz-adv-x="660" 
d="M644 844l-85 -64q-37 -27 -74 -27q-33 0 -33 23q0 12 10 22l80 88q28 28 48 28q25 0 49 -13.5t24 -28.5q0 -14 -19 -28zM503 0h-413q-31 0 -45.5 21.5t-4.5 56.5l150 560q8 29 26.5 45.5t43.5 16.5h396q22 0 38.5 -16t16.5 -39t-16 -39t-39 -16h-356l-49 -183h281
q23 0 39.5 -16t16.5 -39q0 -22 -16.5 -38t-39.5 -16h-310l-51 -188h332q23 0 39 -16t16 -39t-16 -39t-39 -16z" />
    <glyph glyph-name="Ecircumflex" unicode="&#xca;" horiz-adv-x="660" 
d="M581 877l41 -78q11 -18 11 -26q0 -20 -28 -20q-25 0 -40 4.5t-31 22.5l-39 45l-64 -45q-39 -27 -77 -27q-26 0 -26 19q0 11 14 27l86 81q29 29 64 29h33q40 0 56 -32zM503 0h-413q-31 0 -45.5 21.5t-4.5 56.5l150 560q8 29 26.5 45.5t43.5 16.5h396q22 0 38.5 -16
t16.5 -39t-16 -39t-39 -16h-356l-49 -183h281q23 0 39.5 -16t16.5 -39q0 -22 -16.5 -38t-39.5 -16h-310l-51 -188h332q23 0 39 -16t16 -39t-16 -39t-39 -16z" />
    <glyph glyph-name="Edieresis" unicode="&#xcb;" horiz-adv-x="660" 
d="M405 883q28 0 44.5 -17.5t10.5 -41.5l-4 -16q-6 -24 -26.5 -40t-47.5 -16q-29 0 -45.5 17.5t-10.5 41.5l4 16q7 25 27.5 40.5t47.5 15.5zM604 883q28 0 44.5 -17.5t10.5 -41.5l-4 -16q-6 -24 -26.5 -40t-47.5 -16q-29 0 -45.5 17.5t-10.5 41.5l4 16q7 25 27.5 40.5
t47.5 15.5zM503 0h-413q-31 0 -45.5 21.5t-4.5 56.5l150 560q8 29 26.5 45.5t43.5 16.5h396q22 0 38.5 -16t16.5 -39t-16 -39t-39 -16h-356l-49 -183h281q23 0 39.5 -16t16.5 -39q0 -22 -16.5 -38t-39.5 -16h-310l-51 -188h332q23 0 39 -16t16 -39t-16 -39t-39 -16z" />
    <glyph glyph-name="Igrave" unicode="&#xcc;" horiz-adv-x="317" 
d="M318 626l-154 -571q-16 -60 -68 -60q-31 0 -45.5 21.5t-4.5 57.5l153 571q8 28 26.5 44t42.5 16q31 0 45.5 -21t4.5 -58zM225 780l-51 64q-12 17 -12 27q0 15 23 28.5t48 13.5q35 0 45 -31l32 -85q4 -9 4 -18q0 -26 -38 -26q-18 0 -28.5 5.5t-22.5 21.5z" />
    <glyph glyph-name="Iacute" unicode="&#xcd;" horiz-adv-x="317" 
d="M318 626l-154 -571q-16 -60 -68 -60q-31 0 -45.5 21.5t-4.5 57.5l153 571q8 28 26.5 44t42.5 16q31 0 45.5 -21t4.5 -58zM457 844l-85 -64q-37 -27 -74 -27q-33 0 -33 23q0 12 10 22l80 88q28 28 48 28q25 0 49 -13.5t24 -28.5q0 -14 -19 -28z" />
    <glyph glyph-name="Icircumflex" unicode="&#xce;" horiz-adv-x="317" 
d="M318 626l-154 -571q-16 -60 -68 -60q-31 0 -45.5 21.5t-4.5 57.5l153 571q8 28 26.5 44t42.5 16q31 0 45.5 -21t4.5 -58zM396 877l41 -78q11 -18 11 -26q0 -20 -28 -20q-25 0 -40 4.5t-31 22.5l-39 45l-64 -45q-39 -27 -77 -27q-26 0 -26 19q0 11 14 27l86 81
q29 29 64 29h33q40 0 56 -32z" />
    <glyph glyph-name="Idieresis" unicode="&#xcf;" horiz-adv-x="317" 
d="M318 626l-154 -571q-16 -60 -68 -60q-31 0 -45.5 21.5t-4.5 57.5l153 571q8 28 26.5 44t42.5 16q31 0 45.5 -21t4.5 -58zM220 883q28 0 44.5 -17.5t10.5 -41.5l-4 -16q-6 -24 -26.5 -40t-47.5 -16q-29 0 -45.5 17.5t-10.5 41.5l4 16q7 25 27.5 40.5t47.5 15.5zM419 883
q28 0 44.5 -17.5t10.5 -41.5l-4 -16q-6 -24 -26.5 -40t-47.5 -16q-29 0 -45.5 17.5t-10.5 41.5l4 16q7 25 27.5 40.5t47.5 15.5z" />
    <glyph glyph-name="Eth" unicode="&#xd0;" horiz-adv-x="798" 
d="M283 700h137q183 0 274 -91q76 -76 76 -204q0 -161 -113 -274q-131 -131 -364 -131h-180q-31 0 -45.5 21.5t-4.5 56.5l58 219h-16q-22 0 -38 16t-16 39t15.5 39t38.5 16h46l62 231q8 29 26.5 45.5t43.5 16.5zM195 112h113q161 0 256 95q78 78 78 193q0 80 -49 129
q-59 59 -182 59h-87l-49 -181h104q23 0 39 -16t16 -39t-16 -39t-39 -16h-134z" />
    <glyph glyph-name="Ntilde" unicode="&#xd1;" horiz-adv-x="786" 
d="M558 205l119 440q16 60 68 60q31 0 45 -21t4 -58l-155 -573q-15 -57 -65 -57h-2q-48 0 -70 47l-225 466l-122 -454q-16 -60 -67 -60q-31 0 -45 21t-4 58l152 568q17 62 73 62h6q50 0 73 -51zM386 754q-15 0 -25.5 9.5t-10.5 24.5q0 13 8 26q52 93 123 93q37 0 75 -31
q36 -27 52 -27q27 0 53 37q17 20 38 20q15 0 25 -9t10 -24q0 -14 -7 -27q-53 -92 -123 -92q-37 0 -76 31q-36 27 -51 27q-26 0 -54 -37q-16 -21 -37 -21z" />
    <glyph glyph-name="Ograve" unicode="&#xd2;" horiz-adv-x="836" 
d="M390 -12q-139 0 -226.5 87.5t-87.5 219.5q0 106 52.5 201.5t149 155.5t213.5 60q140 0 227.5 -87.5t87.5 -219.5q0 -106 -52.5 -201.5t-149.5 -155.5t-214 -60zM403 101q78 0 142.5 44.5t98.5 112.5t34 140q0 88 -53.5 144.5t-145.5 56.5q-78 0 -142.5 -44.5
t-98.5 -112.5t-34 -140q0 -89 53.5 -145t145.5 -56zM477 790l-51 64q-12 17 -12 27q0 15 23 28.5t48 13.5q35 0 45 -31l32 -85q4 -9 4 -18q0 -26 -38 -26q-18 0 -28.5 5.5t-22.5 21.5z" />
    <glyph glyph-name="Oacute" unicode="&#xd3;" horiz-adv-x="836" 
d="M710 854l-85 -64q-37 -27 -74 -27q-33 0 -33 23q0 12 10 22l80 88q28 28 48 28q25 0 49 -13.5t24 -28.5q0 -14 -19 -28zM390 -12q-139 0 -226.5 87.5t-87.5 219.5q0 106 52.5 201.5t149 155.5t213.5 60q140 0 227.5 -87.5t87.5 -219.5q0 -106 -52.5 -201.5t-149.5 -155.5
t-214 -60zM403 101q78 0 142.5 44.5t98.5 112.5t34 140q0 88 -53.5 144.5t-145.5 56.5q-78 0 -142.5 -44.5t-98.5 -112.5t-34 -140q0 -89 53.5 -145t145.5 -56z" />
    <glyph glyph-name="Ocircumflex" unicode="&#xd4;" horiz-adv-x="836" 
d="M647 887l41 -78q11 -18 11 -26q0 -20 -28 -20q-25 0 -40 4.5t-31 22.5l-39 45l-64 -45q-39 -27 -77 -27q-26 0 -26 19q0 11 14 27l86 81q29 29 64 29h33q40 0 56 -32zM390 -12q-139 0 -226.5 87.5t-87.5 219.5q0 106 52.5 201.5t149 155.5t213.5 60q140 0 227.5 -87.5
t87.5 -219.5q0 -106 -52.5 -201.5t-149.5 -155.5t-214 -60zM403 101q78 0 142.5 44.5t98.5 112.5t34 140q0 88 -53.5 144.5t-145.5 56.5q-78 0 -142.5 -44.5t-98.5 -112.5t-34 -140q0 -89 53.5 -145t145.5 -56z" />
    <glyph glyph-name="Otilde" unicode="&#xd5;" horiz-adv-x="836" 
d="M390 -12q-139 0 -226.5 87.5t-87.5 219.5q0 106 52.5 201.5t149 155.5t213.5 60q140 0 227.5 -87.5t87.5 -219.5q0 -106 -52.5 -201.5t-149.5 -155.5t-214 -60zM403 101q78 0 142.5 44.5t98.5 112.5t34 140q0 88 -53.5 144.5t-145.5 56.5q-78 0 -142.5 -44.5
t-98.5 -112.5t-34 -140q0 -89 53.5 -145t145.5 -56zM404 764q-15 0 -25.5 9.5t-10.5 24.5q0 13 8 26q52 93 123 93q37 0 75 -31q36 -27 52 -27q27 0 53 37q17 20 38 20q15 0 25 -9t10 -24q0 -14 -7 -27q-53 -92 -123 -92q-37 0 -76 31q-36 27 -51 27q-26 0 -54 -37
q-16 -21 -37 -21z" />
    <glyph glyph-name="Odieresis" unicode="&#xd6;" horiz-adv-x="836" 
d="M471 893q28 0 44.5 -17.5t10.5 -41.5l-4 -16q-6 -24 -26.5 -40t-47.5 -16q-29 0 -45.5 17.5t-10.5 41.5l4 16q7 25 27.5 40.5t47.5 15.5zM670 893q28 0 44.5 -17.5t10.5 -41.5l-4 -16q-6 -24 -26.5 -40t-47.5 -16q-29 0 -45.5 17.5t-10.5 41.5l4 16q7 25 27.5 40.5
t47.5 15.5zM390 -12q-139 0 -226.5 87.5t-87.5 219.5q0 106 52.5 201.5t149 155.5t213.5 60q140 0 227.5 -87.5t87.5 -219.5q0 -106 -52.5 -201.5t-149.5 -155.5t-214 -60zM403 101q78 0 142.5 44.5t98.5 112.5t34 140q0 88 -53.5 144.5t-145.5 56.5q-78 0 -142.5 -44.5
t-98.5 -112.5t-34 -140q0 -89 53.5 -145t145.5 -56z" />
    <glyph glyph-name="multiply" unicode="&#xd7;" horiz-adv-x="634" 
d="M417 345l90 -121q14 -19 14 -37q0 -23 -17 -40t-40 -17q-29 0 -47 25l-86 123l-168 -135q-17 -12 -35 -12q-21 0 -36.5 15.5t-15.5 37.5q0 24 22 43l171 132l-90 121q-14 19 -14 37q0 24 17 40.5t40 16.5q30 0 47 -25l87 -123l168 135q15 12 34 12q22 0 37 -15.5
t15 -37.5q0 -24 -22 -43z" />
    <glyph glyph-name="Oslash" unicode="&#xd8;" horiz-adv-x="836" 
d="M200 302q0 -51 18 -93l404 340q-54 54 -143 54q-78 0 -143.5 -45.5t-100.5 -114.5t-35 -141zM403 96q78 0 143.5 46t100.5 115t35 141q0 46 -17 86l-402 -337q53 -51 140 -51zM171 69l-72 -60q-21 -19 -42 -19q-17 0 -27 10t-10 25q0 19 25 42l75 63q-44 71 -44 165
q0 106 52.5 201.5t149 155.5t213.5 60q134 0 223 -84l76 64q22 18 42 18q18 0 27.5 -10t9.5 -25q0 -19 -25 -42l-80 -68q42 -72 42 -160q0 -106 -52.5 -201.5t-149.5 -155.5t-214 -60q-130 0 -219 81z" />
    <glyph glyph-name="Ugrave" unicode="&#xd9;" horiz-adv-x="762" 
d="M776 626l-93 -343q-36 -134 -109 -207q-87 -87 -229 -87q-122 0 -190.5 62t-68.5 169q0 50 16 111l83 314q8 28 26.5 44t42.5 16q31 0 45.5 -21t4.5 -58l-84 -312q-10 -46 -10 -77q0 -60 38 -97t109 -37q79 0 131 52q53 53 77 147l92 343q7 28 26 44t43 16q31 0 45.5 -21
t4.5 -58zM439 780l-51 64q-12 17 -12 27q0 15 23 28.5t48 13.5q35 0 45 -31l32 -85q4 -9 4 -18q0 -26 -38 -26q-18 0 -28.5 5.5t-22.5 21.5z" />
    <glyph glyph-name="Uacute" unicode="&#xda;" horiz-adv-x="762" 
d="M672 844l-85 -64q-37 -27 -74 -27q-33 0 -33 23q0 12 10 22l80 88q28 28 48 28q25 0 49 -13.5t24 -28.5q0 -14 -19 -28zM776 626l-93 -343q-36 -134 -109 -207q-87 -87 -229 -87q-122 0 -190.5 62t-68.5 169q0 50 16 111l83 314q8 28 26.5 44t42.5 16q31 0 45.5 -21
t4.5 -58l-84 -312q-10 -46 -10 -77q0 -60 38 -97t109 -37q79 0 131 52q53 53 77 147l92 343q7 28 26 44t43 16q31 0 45.5 -21t4.5 -58z" />
    <glyph glyph-name="Ucircumflex" unicode="&#xdb;" horiz-adv-x="762" 
d="M609 877l41 -78q11 -18 11 -26q0 -20 -28 -20q-25 0 -40 4.5t-31 22.5l-39 45l-64 -45q-39 -27 -77 -27q-26 0 -26 19q0 11 14 27l86 81q29 29 64 29h33q40 0 56 -32zM776 626l-93 -343q-36 -134 -109 -207q-87 -87 -229 -87q-122 0 -190.5 62t-68.5 169q0 50 16 111
l83 314q8 28 26.5 44t42.5 16q31 0 45.5 -21t4.5 -58l-84 -312q-10 -46 -10 -77q0 -60 38 -97t109 -37q79 0 131 52q53 53 77 147l92 343q7 28 26 44t43 16q31 0 45.5 -21t4.5 -58z" />
    <glyph glyph-name="Udieresis" unicode="&#xdc;" horiz-adv-x="762" 
d="M433 883q28 0 44.5 -17.5t10.5 -41.5l-4 -16q-6 -24 -26.5 -40t-47.5 -16q-29 0 -45.5 17.5t-10.5 41.5l4 16q7 25 27.5 40.5t47.5 15.5zM632 883q28 0 44.5 -17.5t10.5 -41.5l-4 -16q-6 -24 -26.5 -40t-47.5 -16q-29 0 -45.5 17.5t-10.5 41.5l4 16q7 25 27.5 40.5
t47.5 15.5zM776 626l-93 -343q-36 -134 -109 -207q-87 -87 -229 -87q-122 0 -190.5 62t-68.5 169q0 50 16 111l83 314q8 28 26.5 44t42.5 16q31 0 45.5 -21t4.5 -58l-84 -312q-10 -46 -10 -77q0 -60 38 -97t109 -37q79 0 131 52q53 53 77 147l92 343q7 28 26 44t43 16
q31 0 45.5 -21t4.5 -58z" />
    <glyph glyph-name="Yacute" unicode="&#xdd;" horiz-adv-x="655" 
d="M382 261l-55 -206q-8 -28 -26.5 -44t-42.5 -16q-31 0 -45.5 21t-4.5 58l54 200l-138 327q-12 28 -12 46q0 25 18.5 41.5t47.5 16.5q43 0 60 -48l108 -276l270 290q33 35 67 35q24 0 38 -13.5t14 -37.5q0 -27 -22 -49zM612 844l-85 -64q-37 -27 -74 -27q-33 0 -33 23
q0 12 10 22l80 88q28 28 48 28q25 0 49 -13.5t24 -28.5q0 -14 -19 -28z" />
    <glyph glyph-name="Thorn" unicode="&#xde;" horiz-adv-x="683" 
d="M204 226h123q97 0 152.5 39t55.5 109q0 41 -27 68q-36 37 -114 37h-123zM399 591q143 0 212 -69q52 -54 52 -138q0 -125 -95 -195.5t-247 -70.5h-146l-18 -63q-16 -60 -68 -60q-31 0 -45.5 21.5t-4.5 57.5l153 571q8 28 26.5 44t42.5 16q31 0 45.5 -21t4.5 -58l-9 -35h97
z" />
    <glyph glyph-name="germandbls" unicode="&#xdf;" horiz-adv-x="628" 
d="M359 407q137 40 137 138q0 41 -27 65t-70 24q-51 0 -87.5 -37t-54.5 -105l-116 -437q-16 -60 -67 -60q-31 0 -45 21t-4 57l115 429q30 109 87 166q71 69 177 69q95 0 151.5 -51t56.5 -130q0 -144 -172 -197q121 -42 121 -146q0 -92 -77.5 -154t-197.5 -62q-53 0 -53 50
q0 19 11.5 32t31.5 14q89 6 129 39.5t40 83.5q0 63 -87 91q-41 15 -41 48q0 39 42 52z" />
    <glyph glyph-name="agrave" unicode="&#xe0;" horiz-adv-x="583" 
d="M219 76q55 0 101.5 36.5t61.5 89.5l7 24q-62 20 -128 20q-57 0 -92.5 -27t-35.5 -72q0 -32 23.5 -51.5t62.5 -19.5zM391 -5q-57 0 -51 56l5 19q-73 -81 -174 -81q-69 0 -114 40t-45 104q0 89 64.5 140t166.5 51q77 0 164 -26l3 9q6 26 6 44q0 80 -117 80q-51 0 -104 -15
q-10 -3 -21 -3q-21 0 -34.5 14t-13.5 35q0 36 38 48q77 25 159 25q103 0 157 -42.5t54 -120.5q0 -29 -11 -77l-64 -240q-17 -60 -68 -60zM303 617l-51 64q-12 17 -12 27q0 15 23 28.5t48 13.5q35 0 45 -31l32 -85q4 -9 4 -18q0 -26 -38 -26q-18 0 -28.5 5.5t-22.5 21.5z" />
    <glyph glyph-name="aacute" unicode="&#xe1;" horiz-adv-x="583" 
d="M219 76q55 0 101.5 36.5t61.5 89.5l7 24q-62 20 -128 20q-57 0 -92.5 -27t-35.5 -72q0 -32 23.5 -51.5t62.5 -19.5zM391 -5q-57 0 -51 56l5 19q-73 -81 -174 -81q-69 0 -114 40t-45 104q0 89 64.5 140t166.5 51q77 0 164 -26l3 9q6 26 6 44q0 80 -117 80q-51 0 -104 -15
q-10 -3 -21 -3q-21 0 -34.5 14t-13.5 35q0 36 38 48q77 25 159 25q103 0 157 -42.5t54 -120.5q0 -29 -11 -77l-64 -240q-17 -60 -68 -60zM535 681l-85 -64q-37 -27 -74 -27q-33 0 -33 23q0 12 10 22l80 88q28 28 48 28q25 0 49 -13.5t24 -28.5q0 -14 -19 -28z" />
    <glyph glyph-name="acircumflex" unicode="&#xe2;" horiz-adv-x="583" 
d="M219 76q55 0 101.5 36.5t61.5 89.5l7 24q-62 20 -128 20q-57 0 -92.5 -27t-35.5 -72q0 -32 23.5 -51.5t62.5 -19.5zM391 -5q-57 0 -51 56l5 19q-73 -81 -174 -81q-69 0 -114 40t-45 104q0 89 64.5 140t166.5 51q77 0 164 -26l3 9q6 26 6 44q0 80 -117 80q-51 0 -104 -15
q-10 -3 -21 -3q-21 0 -34.5 14t-13.5 35q0 36 38 48q77 25 159 25q103 0 157 -42.5t54 -120.5q0 -29 -11 -77l-64 -240q-17 -60 -68 -60zM473 714l41 -78q11 -18 11 -26q0 -20 -28 -20q-25 0 -40 4.5t-31 22.5l-39 45l-64 -45q-39 -27 -77 -27q-26 0 -26 19q0 11 14 27
l86 81q29 29 64 29h33q40 0 56 -32z" />
    <glyph glyph-name="atilde" unicode="&#xe3;" horiz-adv-x="583" 
d="M219 76q55 0 101.5 36.5t61.5 89.5l7 24q-62 20 -128 20q-57 0 -92.5 -27t-35.5 -72q0 -32 23.5 -51.5t62.5 -19.5zM391 -5q-57 0 -51 56l5 19q-73 -81 -174 -81q-69 0 -114 40t-45 104q0 89 64.5 140t166.5 51q77 0 164 -26l3 9q6 26 6 44q0 80 -117 80q-51 0 -104 -15
q-10 -3 -21 -3q-21 0 -34.5 14t-13.5 35q0 36 38 48q77 25 159 25q103 0 157 -42.5t54 -120.5q0 -29 -11 -77l-64 -240q-17 -60 -68 -60zM229 591q-15 0 -25.5 9.5t-10.5 24.5q0 13 8 26q52 93 123 93q37 0 75 -31q36 -27 52 -27q27 0 53 37q17 20 38 20q15 0 25 -9t10 -24
q0 -14 -7 -27q-53 -92 -123 -92q-37 0 -76 31q-36 27 -51 27q-26 0 -54 -37q-16 -21 -37 -21z" />
    <glyph glyph-name="adieresis" unicode="&#xe4;" horiz-adv-x="583" 
d="M219 76q55 0 101.5 36.5t61.5 89.5l7 24q-62 20 -128 20q-57 0 -92.5 -27t-35.5 -72q0 -32 23.5 -51.5t62.5 -19.5zM391 -5q-57 0 -51 56l5 19q-73 -81 -174 -81q-69 0 -114 40t-45 104q0 89 64.5 140t166.5 51q77 0 164 -26l3 9q6 26 6 44q0 80 -117 80q-51 0 -104 -15
q-10 -3 -21 -3q-21 0 -34.5 14t-13.5 35q0 36 38 48q77 25 159 25q103 0 157 -42.5t54 -120.5q0 -29 -11 -77l-64 -240q-17 -60 -68 -60zM296 720q28 0 44.5 -17.5t10.5 -41.5l-4 -16q-6 -24 -26.5 -40t-47.5 -16q-29 0 -45.5 17.5t-10.5 41.5l4 16q7 25 27.5 40.5
t47.5 15.5zM495 720q28 0 44.5 -17.5t10.5 -41.5l-4 -16q-6 -24 -26.5 -40t-47.5 -16q-29 0 -45.5 17.5t-10.5 41.5l4 16q7 25 27.5 40.5t47.5 15.5z" />
    <glyph glyph-name="aring" unicode="&#xe5;" horiz-adv-x="583" 
d="M219 76q55 0 101.5 36.5t61.5 89.5l7 24q-62 20 -128 20q-57 0 -92.5 -27t-35.5 -72q0 -32 23.5 -51.5t62.5 -19.5zM391 -5q-57 0 -51 56l5 19q-73 -81 -174 -81q-69 0 -114 40t-45 104q0 89 64.5 140t166.5 51q77 0 164 -26l3 9q6 26 6 44q0 80 -117 80q-51 0 -104 -15
q-10 -3 -21 -3q-21 0 -34.5 14t-13.5 35q0 36 38 48q77 25 159 25q103 0 157 -42.5t54 -120.5q0 -29 -11 -77l-64 -240q-17 -60 -68 -60zM388 594q-48 0 -76.5 27.5t-28.5 69.5q0 51 37 87.5t89 36.5q48 0 76.5 -27.5t28.5 -69.5q0 -50 -37 -87t-89 -37zM389 642
q30 0 50 22.5t20 52.5q0 22 -14 36t-37 14q-30 0 -50 -22.5t-20 -52.5q0 -22 14 -36t37 -14z" />
    <glyph glyph-name="ae" unicode="&#xe6;" horiz-adv-x="948" 
d="M262 246q-57 0 -93 -27t-36 -71q0 -33 24.5 -52.5t70.5 -19.5q45 0 92.5 22.5t86.5 62.5q-5 23 -5 46q0 9 1 13q-64 26 -141 26zM914 334q0 -32 -6 -58q-12 -54 -60 -54h-339q-1 -3 -1 -10q3 -58 38 -91.5t98 -33.5q58 0 107 32q20 12 37 12q20 0 33.5 -13t13.5 -34
q0 -26 -24 -41q-75 -55 -178 -55q-147 0 -204 110q-104 -109 -244 -109q-80 0 -126.5 39t-46.5 107q0 88 65.5 138.5t166.5 50.5q83 0 163 -26l3 9q6 26 6 44q0 80 -117 80q-54 0 -104 -15q-10 -3 -21 -3q-21 0 -34.5 14t-13.5 35q0 36 38 48q75 25 159 25q142 0 181 -92
q86 96 203 96q96 0 151.5 -58t55.5 -147zM520 302h275q4 18 4 37q0 44 -26 72.5t-79 28.5q-60 0 -106.5 -38.5t-67.5 -99.5z" />
    <glyph glyph-name="ccedilla" unicode="&#xe7;" horiz-adv-x="561" 
d="M468 54q-78 -65 -181 -66l-84 -122q-17 -26 -42 -26q-19 0 -37.5 13.5t-18.5 29.5q0 14 14 29l84 88q-72 23 -115.5 81.5t-43.5 141.5q0 129 93 222.5t219 93.5q115 0 183 -77q21 -23 21 -48q0 -23 -16.5 -39.5t-40.5 -16.5q-27 0 -42 19q-42 57 -115 57
q-72 0 -126.5 -63t-54.5 -147q0 -60 36 -96t89 -36q58 0 111 40q20 14 37 14q21 0 35 -15t14 -36q0 -24 -19 -41z" />
    <glyph glyph-name="egrave" unicode="&#xe8;" horiz-adv-x="600" 
d="M296 87q59 0 106 32q22 12 38 12q20 0 33 -13t13 -34q0 -26 -23 -41q-75 -55 -179 -55q-110 0 -175 62.5t-65 168.5q0 79 38.5 152t111.5 120.5t161 47.5q99 0 155 -58t56 -147q0 -24 -6 -58q-12 -54 -60 -54h-340v-10q2 -58 37.5 -91.5t98.5 -33.5zM172 302h274
q5 15 5 37q0 44 -26.5 72.5t-78.5 28.5q-60 0 -107 -38.5t-67 -99.5zM318 617l-51 64q-12 17 -12 27q0 15 23 28.5t48 13.5q35 0 45 -31l32 -85q4 -9 4 -18q0 -26 -38 -26q-18 0 -28.5 5.5t-22.5 21.5z" />
    <glyph glyph-name="eacute" unicode="&#xe9;" horiz-adv-x="600" 
d="M296 87q59 0 106 32q22 12 38 12q20 0 33 -13t13 -34q0 -26 -23 -41q-75 -55 -179 -55q-110 0 -175 62.5t-65 168.5q0 79 38.5 152t111.5 120.5t161 47.5q99 0 155 -58t56 -147q0 -24 -6 -58q-12 -54 -60 -54h-340v-10q2 -58 37.5 -91.5t98.5 -33.5zM172 302h274
q5 15 5 37q0 44 -26.5 72.5t-78.5 28.5q-60 0 -107 -38.5t-67 -99.5zM551 681l-85 -64q-37 -27 -74 -27q-33 0 -33 23q0 12 10 22l80 88q28 28 48 28q25 0 49 -13.5t24 -28.5q0 -14 -19 -28z" />
    <glyph glyph-name="ecircumflex" unicode="&#xea;" horiz-adv-x="600" 
d="M296 87q59 0 106 32q22 12 38 12q20 0 33 -13t13 -34q0 -26 -23 -41q-75 -55 -179 -55q-110 0 -175 62.5t-65 168.5q0 79 38.5 152t111.5 120.5t161 47.5q99 0 155 -58t56 -147q0 -24 -6 -58q-12 -54 -60 -54h-340v-10q2 -58 37.5 -91.5t98.5 -33.5zM172 302h274
q5 15 5 37q0 44 -26.5 72.5t-78.5 28.5q-60 0 -107 -38.5t-67 -99.5zM489 714l41 -78q11 -18 11 -26q0 -20 -28 -20q-25 0 -40 4.5t-31 22.5l-39 45l-64 -45q-39 -27 -77 -27q-26 0 -26 19q0 11 14 27l86 81q29 29 64 29h33q40 0 56 -32z" />
    <glyph glyph-name="edieresis" unicode="&#xeb;" horiz-adv-x="600" 
d="M296 87q59 0 106 32q22 12 38 12q20 0 33 -13t13 -34q0 -26 -23 -41q-75 -55 -179 -55q-110 0 -175 62.5t-65 168.5q0 79 38.5 152t111.5 120.5t161 47.5q99 0 155 -58t56 -147q0 -24 -6 -58q-12 -54 -60 -54h-340v-10q2 -58 37.5 -91.5t98.5 -33.5zM172 302h274
q5 15 5 37q0 44 -26.5 72.5t-78.5 28.5q-60 0 -107 -38.5t-67 -99.5zM313 720q28 0 44.5 -17.5t10.5 -41.5l-4 -16q-6 -24 -26.5 -40t-47.5 -16q-29 0 -45.5 17.5t-10.5 41.5l4 16q7 25 27.5 40.5t47.5 15.5zM512 720q28 0 44.5 -17.5t10.5 -41.5l-4 -16q-6 -24 -26.5 -40
t-47.5 -16q-29 0 -45.5 17.5t-10.5 41.5l4 16q7 25 27.5 40.5t47.5 15.5z" />
    <glyph glyph-name="igrave" unicode="&#xec;" horiz-adv-x="286" 
d="M255 455l-107 -400q-17 -60 -68 -60q-31 0 -45 21t-4 57l108 400q16 61 67 61q31 0 45 -21.5t4 -57.5zM166 617l-51 64q-12 17 -12 27q0 15 23 28.5t48 13.5q35 0 45 -31l32 -85q4 -9 4 -18q0 -26 -38 -26q-18 0 -28.5 5.5t-22.5 21.5z" />
    <glyph glyph-name="iacute" unicode="&#xed;" horiz-adv-x="286" 
d="M399 681l-85 -64q-37 -27 -74 -27q-33 0 -33 23q0 12 10 22l80 88q28 28 48 28q25 0 49 -13.5t24 -28.5q0 -14 -19 -28zM255 455l-107 -400q-17 -60 -68 -60q-31 0 -45 21t-4 57l108 400q16 61 67 61q31 0 45 -21.5t4 -57.5z" />
    <glyph glyph-name="icircumflex" unicode="&#xee;" horiz-adv-x="286" 
d="M337 714l41 -78q11 -18 11 -26q0 -20 -28 -20q-25 0 -40 4.5t-31 22.5l-39 45l-64 -45q-39 -27 -77 -27q-26 0 -26 19q0 11 14 27l86 81q29 29 64 29h33q40 0 56 -32zM255 455l-107 -400q-17 -60 -68 -60q-31 0 -45 21t-4 57l108 400q16 61 67 61q31 0 45 -21.5t4 -57.5z
" />
    <glyph glyph-name="idieresis" unicode="&#xef;" horiz-adv-x="286" 
d="M162 720q28 0 44.5 -17.5t10.5 -41.5l-4 -16q-6 -24 -26.5 -40t-47.5 -16q-29 0 -45.5 17.5t-10.5 41.5l4 16q7 25 27.5 40.5t47.5 15.5zM361 720q28 0 44.5 -17.5t10.5 -41.5l-4 -16q-6 -24 -26.5 -40t-47.5 -16q-29 0 -45.5 17.5t-10.5 41.5l4 16q7 25 27.5 40.5
t47.5 15.5zM255 455l-107 -400q-17 -60 -68 -60q-31 0 -45 21t-4 57l108 400q16 61 67 61q31 0 45 -21.5t4 -57.5z" />
    <glyph glyph-name="eth" unicode="&#xf0;" horiz-adv-x="631" 
d="M250 611l110 42l-2 5q-6 12 -6 27q0 22 16 37.5t39 15.5q38 0 51 -31l5 -14l98 38q10 4 21 4q14 0 23.5 -9.5t9.5 -24.5q0 -26 -30 -37l-94 -36l49 -116q45 -103 45 -200q0 -136 -83 -230t-220 -94q-107 0 -174 64t-67 165q0 111 79.5 190t187.5 79q88 0 152 -57l-71 159
l-115 -44q-10 -4 -20 -4q-14 0 -24 9.5t-10 24.5q0 25 30 37zM289 92q73 0 123 52.5t50 121.5q0 57 -37 94t-98 37q-71 0 -120 -51.5t-49 -121.5q0 -61 36.5 -96.5t94.5 -35.5z" />
    <glyph glyph-name="ntilde" unicode="&#xf1;" horiz-adv-x="617" 
d="M201 534q26 0 40.5 -15t13.5 -37l-6 -21q80 78 161 78q73 0 116.5 -42.5t43.5 -115.5q0 -31 -16 -93l-62 -233q-16 -60 -67 -60q-31 0 -45 21t-4 57l59 220q8 27 8 53q0 40 -24 61.5t-68 21.5q-50 0 -89.5 -36.5t-55.5 -95.5l-65 -242q-16 -60 -67 -60q-31 0 -45 21
t-4 57l107 400q16 61 69 61zM251 591q-15 0 -25.5 9.5t-10.5 24.5q0 13 8 26q52 93 123 93q37 0 75 -31q36 -27 52 -27q27 0 53 37q17 20 38 20q15 0 25 -9t10 -24q0 -14 -7 -27q-53 -92 -123 -92q-37 0 -76 31q-36 27 -51 27q-26 0 -54 -37q-16 -21 -37 -21z" />
    <glyph glyph-name="ograve" unicode="&#xf2;" horiz-adv-x="646" 
d="M293 -12q-112 0 -180 67.5t-68 173.5q0 122 91 216t217 94q112 0 180 -68t68 -174q0 -122 -91.5 -215.5t-216.5 -93.5zM300 93q74 0 127.5 63.5t53.5 137.5q0 66 -37 103t-98 37q-75 0 -128 -63.5t-53 -137.5q0 -66 37 -103t98 -37zM340 617l-51 64q-12 17 -12 27
q0 15 23 28.5t48 13.5q35 0 45 -31l32 -85q4 -9 4 -18q0 -26 -38 -26q-18 0 -28.5 5.5t-22.5 21.5z" />
    <glyph glyph-name="oacute" unicode="&#xf3;" horiz-adv-x="646" 
d="M573 681l-85 -64q-37 -27 -74 -27q-33 0 -33 23q0 12 10 22l80 88q28 28 48 28q25 0 49 -13.5t24 -28.5q0 -14 -19 -28zM293 -12q-112 0 -180 67.5t-68 173.5q0 122 91 216t217 94q112 0 180 -68t68 -174q0 -122 -91.5 -215.5t-216.5 -93.5zM300 93q74 0 127.5 63.5
t53.5 137.5q0 66 -37 103t-98 37q-75 0 -128 -63.5t-53 -137.5q0 -66 37 -103t98 -37z" />
    <glyph glyph-name="ocircumflex" unicode="&#xf4;" horiz-adv-x="646" 
d="M511 714l41 -78q11 -18 11 -26q0 -20 -28 -20q-25 0 -40 4.5t-31 22.5l-39 45l-64 -45q-39 -27 -77 -27q-26 0 -26 19q0 11 14 27l86 81q29 29 64 29h33q40 0 56 -32zM293 -12q-112 0 -180 67.5t-68 173.5q0 122 91 216t217 94q112 0 180 -68t68 -174
q0 -122 -91.5 -215.5t-216.5 -93.5zM300 93q74 0 127.5 63.5t53.5 137.5q0 66 -37 103t-98 37q-75 0 -128 -63.5t-53 -137.5q0 -66 37 -103t98 -37z" />
    <glyph glyph-name="otilde" unicode="&#xf5;" horiz-adv-x="646" 
d="M293 -12q-112 0 -180 67.5t-68 173.5q0 122 91 216t217 94q112 0 180 -68t68 -174q0 -122 -91.5 -215.5t-216.5 -93.5zM300 93q74 0 127.5 63.5t53.5 137.5q0 66 -37 103t-98 37q-75 0 -128 -63.5t-53 -137.5q0 -66 37 -103t98 -37zM268 591q-15 0 -25.5 9.5t-10.5 24.5
q0 13 8 26q52 93 123 93q37 0 75 -31q36 -27 52 -27q27 0 53 37q17 20 38 20q15 0 25 -9t10 -24q0 -14 -7 -27q-53 -92 -123 -92q-37 0 -76 31q-36 27 -51 27q-26 0 -54 -37q-16 -21 -37 -21z" />
    <glyph glyph-name="odieresis" unicode="&#xf6;" horiz-adv-x="646" 
d="M335 720q28 0 44.5 -17.5t10.5 -41.5l-4 -16q-6 -24 -26.5 -40t-47.5 -16q-29 0 -45.5 17.5t-10.5 41.5l4 16q7 25 27.5 40.5t47.5 15.5zM534 720q28 0 44.5 -17.5t10.5 -41.5l-4 -16q-6 -24 -26.5 -40t-47.5 -16q-29 0 -45.5 17.5t-10.5 41.5l4 16q7 25 27.5 40.5
t47.5 15.5zM293 -12q-112 0 -180 67.5t-68 173.5q0 122 91 216t217 94q112 0 180 -68t68 -174q0 -122 -91.5 -215.5t-216.5 -93.5zM300 93q74 0 127.5 63.5t53.5 137.5q0 66 -37 103t-98 37q-75 0 -128 -63.5t-53 -137.5q0 -66 37 -103t98 -37z" />
    <glyph glyph-name="divide" unicode="&#xf7;" horiz-adv-x="634" 
d="M542 300h-405q-21 0 -36.5 15.5t-15.5 36.5t15.5 36.5t36.5 15.5h405q22 0 37 -15.5t15 -36.5t-15 -36.5t-37 -15.5zM406 629q27 0 44 -17t15 -42l-1 -10q-3 -29 -25.5 -49t-53.5 -20q-27 0 -44 16.5t-15 42.5l1 10q3 29 25.5 49t53.5 20zM295 213q27 0 44 -17t15 -42
l-1 -10q-3 -29 -25.5 -49t-53.5 -20q-27 0 -44 16.5t-15 42.5l1 10q3 29 25.5 49t53.5 20z" />
    <glyph glyph-name="oslash" unicode="&#xf8;" horiz-adv-x="646" 
d="M300 89q75 0 130 64t55 141q0 30 -10 58l-262 -237q34 -26 87 -26zM161 233q0 -28 8 -54l260 234q-31 25 -83 25q-75 0 -130 -64.5t-55 -140.5zM132 40l-37 -33q-19 -17 -40 -17q-16 0 -26.5 9.5t-10.5 24.5q0 18 20 38l42 35q-35 54 -35 132q0 122 91 216t217 94
q93 0 156 -50l37 33q21 17 40 17q16 0 26.5 -9.5t10.5 -24.5q0 -18 -20 -38l-39 -33q37 -60 37 -137q0 -122 -91.5 -215.5t-216.5 -93.5q-95 0 -161 52z" />
    <glyph glyph-name="ugrave" unicode="&#xf9;" horiz-adv-x="618" 
d="M417 -5q-25 0 -40 14.5t-14 36.5l6 22q-79 -79 -160 -79q-74 0 -117.5 42.5t-43.5 115.5q0 31 16 93l62 233q16 61 67 61q31 0 45 -21.5t4 -57.5l-59 -220q-7 -28 -7 -53q0 -40 24 -61.5t67 -21.5q50 0 89.5 36.5t55.5 95.5l65 242q16 61 67 61q31 0 45 -21.5t4 -57.5
l-106 -400q-17 -60 -70 -60zM326 617l-51 64q-12 17 -12 27q0 15 23 28.5t48 13.5q35 0 45 -31l32 -85q4 -9 4 -18q0 -26 -38 -26q-18 0 -28.5 5.5t-22.5 21.5z" />
    <glyph glyph-name="uacute" unicode="&#xfa;" horiz-adv-x="618" 
d="M558 681l-85 -64q-37 -27 -74 -27q-33 0 -33 23q0 12 10 22l80 88q28 28 48 28q25 0 49 -13.5t24 -28.5q0 -14 -19 -28zM417 -5q-25 0 -40 14.5t-14 36.5l6 22q-79 -79 -160 -79q-74 0 -117.5 42.5t-43.5 115.5q0 31 16 93l62 233q16 61 67 61q31 0 45 -21.5t4 -57.5
l-59 -220q-7 -28 -7 -53q0 -40 24 -61.5t67 -21.5q50 0 89.5 36.5t55.5 95.5l65 242q16 61 67 61q31 0 45 -21.5t4 -57.5l-106 -400q-17 -60 -70 -60z" />
    <glyph glyph-name="ucircumflex" unicode="&#xfb;" horiz-adv-x="618" 
d="M495 714l41 -78q11 -18 11 -26q0 -20 -28 -20q-25 0 -40 4.5t-31 22.5l-39 45l-64 -45q-39 -27 -77 -27q-26 0 -26 19q0 11 14 27l86 81q29 29 64 29h33q40 0 56 -32zM417 -5q-25 0 -40 14.5t-14 36.5l6 22q-79 -79 -160 -79q-74 0 -117.5 42.5t-43.5 115.5q0 31 16 93
l62 233q16 61 67 61q31 0 45 -21.5t4 -57.5l-59 -220q-7 -28 -7 -53q0 -40 24 -61.5t67 -21.5q50 0 89.5 36.5t55.5 95.5l65 242q16 61 67 61q31 0 45 -21.5t4 -57.5l-106 -400q-17 -60 -70 -60z" />
    <glyph glyph-name="udieresis" unicode="&#xfc;" horiz-adv-x="618" 
d="M319 720q28 0 44.5 -17.5t10.5 -41.5l-4 -16q-6 -24 -26.5 -40t-47.5 -16q-29 0 -45.5 17.5t-10.5 41.5l4 16q7 25 27.5 40.5t47.5 15.5zM518 720q28 0 44.5 -17.5t10.5 -41.5l-4 -16q-6 -24 -26.5 -40t-47.5 -16q-29 0 -45.5 17.5t-10.5 41.5l4 16q7 25 27.5 40.5
t47.5 15.5zM417 -5q-25 0 -40 14.5t-14 36.5l6 22q-79 -79 -160 -79q-74 0 -117.5 42.5t-43.5 115.5q0 31 16 93l62 233q16 61 67 61q31 0 45 -21.5t4 -57.5l-59 -220q-7 -28 -7 -53q0 -40 24 -61.5t67 -21.5q50 0 89.5 36.5t55.5 95.5l65 242q16 61 67 61q31 0 45 -21.5
t4 -57.5l-106 -400q-17 -60 -70 -60z" />
    <glyph glyph-name="yacute" unicode="&#xfd;" horiz-adv-x="585" 
d="M30 -48q31 -12 53 -12q43 0 85 59l-74 447q-2 18 -2 30q0 25 17 41.5t43 16.5q25 0 41.5 -14.5t18.5 -39.5l47 -346l220 360q23 40 63 40q24 0 38.5 -13t14.5 -35q0 -16 -16 -42l-296 -459q-53 -81 -102.5 -114.5t-112.5 -33.5q-47 0 -77 15q-37 16 -37 53
q0 22 14.5 37.5t34.5 15.5q7 0 27 -6zM530 681l-85 -64q-37 -27 -74 -27q-33 0 -33 23q0 12 10 22l80 88q28 28 48 28q25 0 49 -13.5t24 -28.5q0 -14 -19 -28z" />
    <glyph glyph-name="thorn" unicode="&#xfe;" 
d="M315 93q75 0 128.5 62t53.5 150q0 60 -34 95t-91 35q-74 0 -132 -63t-58 -146q0 -58 37.5 -95.5t95.5 -37.5zM-18 -87l204 762q16 60 68 60q31 0 44.5 -21t3.5 -57l-54 -199q81 81 169 81q90 0 148 -61.5t58 -164.5q0 -137 -88.5 -230.5t-204.5 -93.5q-122 0 -179 105
l-53 -199q-16 -60 -67 -60q-31 0 -45 21t-4 57z" />
    <glyph glyph-name="ydieresis" unicode="&#xff;" horiz-adv-x="585" 
d="M30 -48q31 -12 53 -12q43 0 85 59l-74 447q-2 18 -2 30q0 25 17 41.5t43 16.5q25 0 41.5 -14.5t18.5 -39.5l47 -346l220 360q23 40 63 40q24 0 38.5 -13t14.5 -35q0 -16 -16 -42l-296 -459q-53 -81 -102.5 -114.5t-112.5 -33.5q-47 0 -77 15q-37 16 -37 53
q0 22 14.5 37.5t34.5 15.5q7 0 27 -6zM292 720q28 0 44.5 -17.5t10.5 -41.5l-4 -16q-6 -24 -26.5 -40t-47.5 -16q-29 0 -45.5 17.5t-10.5 41.5l4 16q7 25 27.5 40.5t47.5 15.5zM491 720q28 0 44.5 -17.5t10.5 -41.5l-4 -16q-6 -24 -26.5 -40t-47.5 -16q-29 0 -45.5 17.5
t-10.5 41.5l4 16q7 25 27.5 40.5t47.5 15.5z" />
    <glyph glyph-name="Amacron" unicode="&#x100;" horiz-adv-x="758" 
d="M272 278h247l-48 283zM574 651l103 -565q4 -22 4 -32q0 -24 -18 -41.5t-45 -17.5q-25 0 -41 14t-19 36l-21 124h-341l-95 -135q-28 -39 -63 -39q-23 0 -37 13.5t-14 35.5t15 40l414 576q34 50 87 50h3q57 0 68 -59zM671 779h-265q-18 0 -31 13t-13 31t13 31t31 13h265
q19 0 32 -13t13 -31t-13 -31t-32 -13z" />
    <glyph glyph-name="amacron" unicode="&#x101;" horiz-adv-x="583" 
d="M219 76q55 0 101.5 36.5t61.5 89.5l7 24q-62 20 -128 20q-57 0 -92.5 -27t-35.5 -72q0 -32 23.5 -51.5t62.5 -19.5zM391 -5q-57 0 -51 56l5 19q-73 -81 -174 -81q-69 0 -114 40t-45 104q0 89 64.5 140t166.5 51q77 0 164 -26l3 9q6 26 6 44q0 80 -117 80q-51 0 -104 -15
q-10 -3 -21 -3q-21 0 -34.5 14t-13.5 35q0 36 38 48q77 25 159 25q103 0 157 -42.5t54 -120.5q0 -29 -11 -77l-64 -240q-17 -60 -68 -60zM515 606h-265q-18 0 -31 13t-13 31t13 31t31 13h265q19 0 32 -13t13 -31t-13 -31t-32 -13z" />
    <glyph glyph-name="Abreve" unicode="&#x102;" horiz-adv-x="758" 
d="M272 278h247l-48 283zM574 651l103 -565q4 -22 4 -32q0 -24 -18 -41.5t-45 -17.5q-25 0 -41 14t-19 36l-21 124h-341l-95 -135q-28 -39 -63 -39q-23 0 -37 13.5t-14 35.5t15 40l414 576q34 50 87 50h3q57 0 68 -59zM536 766q-64 0 -104.5 33t-40.5 78q0 19 13 31t31 12
q28 0 40 -24q18 -45 72 -45q48 0 84 45q21 24 44 24q17 0 27.5 -10t10.5 -26q0 -15 -11 -29q-27 -39 -70 -64t-96 -25z" />
    <glyph glyph-name="abreve" unicode="&#x103;" horiz-adv-x="583" 
d="M219 76q55 0 101.5 36.5t61.5 89.5l7 24q-62 20 -128 20q-57 0 -92.5 -27t-35.5 -72q0 -32 23.5 -51.5t62.5 -19.5zM391 -5q-57 0 -51 56l5 19q-73 -81 -174 -81q-69 0 -114 40t-45 104q0 89 64.5 140t166.5 51q77 0 164 -26l3 9q6 26 6 44q0 80 -117 80q-51 0 -104 -15
q-10 -3 -21 -3q-21 0 -34.5 14t-13.5 35q0 36 38 48q77 25 159 25q103 0 157 -42.5t54 -120.5q0 -29 -11 -77l-64 -240q-17 -60 -68 -60zM382 593q-64 0 -104.5 33t-40.5 78q0 19 13 31t31 12q28 0 40 -24q18 -45 72 -45q48 0 84 45q21 24 44 24q17 0 27.5 -10t10.5 -26
q0 -15 -11 -29q-27 -39 -70 -64t-96 -25z" />
    <glyph glyph-name="Aogonek" unicode="&#x104;" horiz-adv-x="758" 
d="M602 -167q-49 0 -76.5 18.5t-27.5 48.5q0 48 79 109q-16 13 -19 33l-21 127h-341l-95 -135q-28 -39 -63 -39q-23 0 -37 13.5t-14 35.5t15 40l414 576q34 50 87 50h3q57 0 68 -59l103 -565q4 -22 4 -32q0 -25 -23 -47q-62 -54 -62 -82q0 -12 8.5 -18t28.5 -11
q28 -9 27 -30q-2 -33 -58 -33zM272 278h247l-48 283z" />
    <glyph glyph-name="aogonek" unicode="&#x105;" horiz-adv-x="583" 
d="M429 6q-61 -54 -61 -81q0 -12 8.5 -18t28.5 -11q28 -9 27 -30q-2 -33 -58 -33q-49 0 -76.5 18.5t-27.5 48.5q0 49 80 110q0 2 1 4q-10 8 -6 56q-73 -81 -174 -81q-69 0 -114 40t-45 104q0 89 64.5 140t166.5 51q77 0 164 -26l3 9q6 26 6 44q0 80 -117 80q-51 0 -104 -15
q-10 -3 -21 -3q-21 0 -34.5 14t-13.5 35q0 36 38 48q77 25 159 25q103 0 157 -42.5t54 -120.5q0 -29 -11 -77l-64 -240q-8 -27 -30 -49zM219 76q55 0 101.5 36.5t61.5 89.5l7 24q-62 20 -128 20q-57 0 -92.5 -27t-35.5 -72q0 -32 23.5 -51.5t62.5 -19.5z" />
    <glyph glyph-name="Cacute" unicode="&#x106;" horiz-adv-x="730" 
d="M693 854l-85 -64q-37 -27 -74 -27q-33 0 -33 23q0 12 10 22l80 88q28 28 48 28q25 0 49 -13.5t24 -28.5q0 -14 -19 -28zM629 72q-96 -84 -238 -84q-138 0 -227 81t-89 217q0 111 56.5 209t154.5 157.5t212 59.5q146 0 234 -98q25 -23 25 -52q0 -26 -18 -44.5t-45 -18.5
q-29 0 -44 19q-32 40 -70 60.5t-96 20.5q-112 0 -196.5 -92.5t-84.5 -215.5q0 -86 53 -137.5t138 -51.5q49 0 83 13.5t76 45.5q24 15 42 15q24 0 40 -17t16 -41q0 -28 -22 -46z" />
    <glyph glyph-name="cacute" unicode="&#x107;" horiz-adv-x="561" 
d="M545 681l-85 -64q-37 -27 -74 -27q-33 0 -33 23q0 12 10 22l80 88q28 28 48 28q25 0 49 -13.5t24 -28.5q0 -14 -19 -28zM468 54q-80 -66 -182 -66q-104 0 -173 64.5t-69 170.5q0 129 93 222.5t219 93.5q115 0 183 -77q21 -23 21 -48q0 -23 -16.5 -39.5t-40.5 -16.5
q-27 0 -42 19q-42 57 -115 57q-72 0 -126.5 -63t-54.5 -147q0 -60 36 -96t89 -36q58 0 111 40q20 14 37 14q21 0 35 -15t14 -36q0 -24 -19 -41z" />
    <glyph glyph-name="Cdotaccent" unicode="&#x10a;" horiz-adv-x="730" 
d="M629 72q-96 -84 -238 -84q-138 0 -227 81t-89 217q0 111 56.5 209t154.5 157.5t212 59.5q146 0 234 -98q25 -23 25 -52q0 -26 -18 -44.5t-45 -18.5q-29 0 -44 19q-32 40 -70 60.5t-96 20.5q-112 0 -196.5 -92.5t-84.5 -215.5q0 -86 53 -137.5t138 -51.5q49 0 83 13.5
t76 45.5q24 15 42 15q24 0 40 -17t16 -41q0 -28 -22 -46zM553 893q28 0 45 -17.5t11 -41.5l-4 -16q-6 -24 -27 -40t-48 -16q-29 0 -46 17.5t-11 41.5l4 16q7 25 28 40.5t48 15.5z" />
    <glyph glyph-name="cdotaccent" unicode="&#x10b;" horiz-adv-x="561" 
d="M468 54q-80 -66 -182 -66q-104 0 -173 64.5t-69 170.5q0 129 93 222.5t219 93.5q115 0 183 -77q21 -23 21 -48q0 -23 -16.5 -39.5t-40.5 -16.5q-27 0 -42 19q-42 57 -115 57q-72 0 -126.5 -63t-54.5 -147q0 -60 36 -96t89 -36q58 0 111 40q20 14 37 14q21 0 35 -15
t14 -36q0 -24 -19 -41zM407 720q28 0 45 -17.5t11 -41.5l-4 -16q-6 -24 -27 -40t-48 -16q-29 0 -46 17.5t-11 41.5l4 16q7 25 28 40.5t48 15.5z" />
    <glyph glyph-name="Ccaron" unicode="&#x10c;" horiz-adv-x="730" 
d="M459 796l-41 78q-10 20 -10 26q0 20 28 20q25 0 40 -5t31 -23l38 -44l65 45q40 27 76 27q27 0 27 -19q0 -13 -14 -27l-86 -81q-29 -29 -64 -29h-33q-40 0 -57 32zM629 72q-96 -84 -238 -84q-138 0 -227 81t-89 217q0 111 56.5 209t154.5 157.5t212 59.5q146 0 234 -98
q25 -23 25 -52q0 -26 -18 -44.5t-45 -18.5q-29 0 -44 19q-32 40 -70 60.5t-96 20.5q-112 0 -196.5 -92.5t-84.5 -215.5q0 -86 53 -137.5t138 -51.5q49 0 83 13.5t76 45.5q24 15 42 15q24 0 40 -17t16 -41q0 -28 -22 -46z" />
    <glyph glyph-name="ccaron" unicode="&#x10d;" horiz-adv-x="561" 
d="M312 623l-41 78q-10 20 -10 26q0 20 28 20q25 0 40 -5t31 -23l38 -44l65 45q40 27 76 27q27 0 27 -19q0 -13 -14 -27l-86 -81q-29 -29 -64 -29h-33q-40 0 -57 32zM468 54q-80 -66 -182 -66q-104 0 -173 64.5t-69 170.5q0 129 93 222.5t219 93.5q115 0 183 -77
q21 -23 21 -48q0 -23 -16.5 -39.5t-40.5 -16.5q-27 0 -42 19q-42 57 -115 57q-72 0 -126.5 -63t-54.5 -147q0 -60 36 -96t89 -36q58 0 111 40q20 14 37 14q21 0 35 -15t14 -36q0 -24 -19 -41z" />
    <glyph glyph-name="Dcaron" unicode="&#x10e;" horiz-adv-x="775" 
d="M416 786l-41 78q-10 20 -10 26q0 20 28 20q25 0 40 -5t31 -23l38 -44l65 45q40 27 76 27q27 0 27 -19q0 -13 -14 -27l-86 -81q-29 -29 -64 -29h-33q-40 0 -57 32zM172 112h113q161 0 256 95q78 78 78 193q0 80 -49 129q-59 59 -182 59h-87zM260 700h137q183 0 274 -91
q76 -76 76 -204q0 -161 -113 -274q-131 -131 -364 -131h-180q-31 0 -45.5 21.5t-4.5 56.5l150 560q8 29 26.5 45.5t43.5 16.5z" />
    <glyph glyph-name="dcaron" unicode="&#x10f;" 
d="M733 566l37 125q11 41 53 41h20q24 0 24 -20q0 -11 -11 -31l-69 -123q-15 -24 -35 -24q-22 0 -22 19q0 7 3 13zM296 93q74 0 132 63t58 146q0 58 -37.5 95.5t-96.5 37.5q-74 0 -128 -62t-54 -150q0 -60 34.5 -95t91.5 -35zM466 -5q-26 0 -40 14.5t-13 38.5l6 22
q-81 -81 -169 -81q-90 0 -148 61.5t-58 164.5q0 137 88.5 230.5t205.5 93.5q121 0 178 -105l64 241q16 60 68 60q31 0 44.5 -21t3.5 -57l-160 -602q-16 -60 -70 -60z" />
    <glyph glyph-name="Dcroat" unicode="&#x110;" horiz-adv-x="798" 
d="M283 700h137q183 0 274 -91q76 -76 76 -204q0 -161 -113 -274q-131 -131 -364 -131h-180q-31 0 -45.5 21.5t-4.5 56.5l58 219h-16q-22 0 -38 16t-16 39t15.5 39t38.5 16h46l62 231q8 29 26.5 45.5t43.5 16.5zM195 112h113q161 0 256 95q78 78 78 193q0 80 -49 129
q-59 59 -182 59h-87l-49 -181h104q23 0 39 -16t16 -39t-16 -39t-39 -16h-134z" />
    <glyph glyph-name="dcroat" unicode="&#x111;" 
d="M466 -5q-26 0 -40 14.5t-13 38.5l6 22q-81 -81 -169 -81q-90 0 -148 61.5t-58 164.5q0 137 88.5 230.5t205.5 93.5q121 0 178 -105l44 168h-123q-15 0 -25.5 10.5t-10.5 25.5q0 14 10.5 25t25.5 11h142l1 1q16 60 68 60q27 0 41 -16.5t10 -44.5h30q15 0 25.5 -11
t10.5 -25q0 -15 -10.5 -25.5t-25.5 -10.5h-48l-145 -547q-16 -60 -70 -60zM296 93q74 0 132 63t58 146q0 58 -37.5 95.5t-96.5 37.5q-74 0 -128 -62t-54 -150q0 -60 34.5 -95t91.5 -35z" />
    <glyph glyph-name="Emacron" unicode="&#x112;" horiz-adv-x="660" 
d="M503 0h-413q-31 0 -45.5 21.5t-4.5 56.5l150 560q8 29 26.5 45.5t43.5 16.5h396q22 0 38.5 -16t16.5 -39t-16 -39t-39 -16h-356l-49 -183h281q23 0 39.5 -16t16.5 -39q0 -22 -16.5 -38t-39.5 -16h-310l-51 -188h332q23 0 39 -16t16 -39t-16 -39t-39 -16zM624 769h-265
q-18 0 -31 13t-13 31t13 31t31 13h265q19 0 32 -13t13 -31t-13 -31t-32 -13z" />
    <glyph glyph-name="emacron" unicode="&#x113;" horiz-adv-x="600" 
d="M296 87q59 0 106 32q22 12 38 12q20 0 33 -13t13 -34q0 -26 -23 -41q-75 -55 -179 -55q-110 0 -175 62.5t-65 168.5q0 79 38.5 152t111.5 120.5t161 47.5q99 0 155 -58t56 -147q0 -24 -6 -58q-12 -54 -60 -54h-340v-10q2 -58 37.5 -91.5t98.5 -33.5zM172 302h274
q5 15 5 37q0 44 -26.5 72.5t-78.5 28.5q-60 0 -107 -38.5t-67 -99.5zM532 606h-265q-18 0 -31 13t-13 31t13 31t31 13h265q19 0 32 -13t13 -31t-13 -31t-32 -13z" />
    <glyph glyph-name="Ebreve" unicode="&#x114;" horiz-adv-x="660" 
d="M503 0h-413q-31 0 -45.5 21.5t-4.5 56.5l150 560q8 29 26.5 45.5t43.5 16.5h396q22 0 38.5 -16t16.5 -39t-16 -39t-39 -16h-356l-49 -183h281q23 0 39.5 -16t16.5 -39q0 -22 -16.5 -38t-39.5 -16h-310l-51 -188h332q23 0 39 -16t16 -39t-16 -39t-39 -16zM490 756
q-64 0 -104.5 33t-40.5 78q0 19 13 31t31 12q28 0 40 -24q18 -45 72 -45q48 0 84 45q21 24 44 24q17 0 27.5 -10t10.5 -26q0 -15 -11 -29q-27 -39 -70 -64t-96 -25z" />
    <glyph glyph-name="ebreve" unicode="&#x115;" horiz-adv-x="600" 
d="M296 87q59 0 106 32q22 12 38 12q20 0 33 -13t13 -34q0 -26 -23 -41q-75 -55 -179 -55q-110 0 -175 62.5t-65 168.5q0 79 38.5 152t111.5 120.5t161 47.5q99 0 155 -58t56 -147q0 -24 -6 -58q-12 -54 -60 -54h-340v-10q2 -58 37.5 -91.5t98.5 -33.5zM398 593
q-64 0 -104.5 33t-40.5 78q0 19 13 31t31 12q28 0 40 -24q18 -45 72 -45q48 0 84 45q21 24 44 24q17 0 27.5 -10t10.5 -26q0 -15 -11 -29q-27 -39 -70 -64t-96 -25zM172 302h274q5 15 5 37q0 44 -26.5 72.5t-78.5 28.5q-60 0 -107 -38.5t-67 -99.5z" />
    <glyph glyph-name="Edotaccent" unicode="&#x116;" horiz-adv-x="660" 
d="M503 0h-413q-31 0 -45.5 21.5t-4.5 56.5l150 560q8 29 26.5 45.5t43.5 16.5h396q22 0 38.5 -16t16.5 -39t-16 -39t-39 -16h-356l-49 -183h281q23 0 39.5 -16t16.5 -39q0 -22 -16.5 -38t-39.5 -16h-310l-51 -188h332q23 0 39 -16t16 -39t-16 -39t-39 -16zM504 883
q28 0 45 -17.5t11 -41.5l-4 -16q-6 -24 -27 -40t-48 -16q-29 0 -46 17.5t-11 41.5l4 16q7 25 28 40.5t48 15.5z" />
    <glyph glyph-name="edotaccent" unicode="&#x117;" horiz-adv-x="600" 
d="M296 87q59 0 106 32q22 12 38 12q20 0 33 -13t13 -34q0 -26 -23 -41q-75 -55 -179 -55q-110 0 -175 62.5t-65 168.5q0 79 38.5 152t111.5 120.5t161 47.5q99 0 155 -58t56 -147q0 -24 -6 -58q-12 -54 -60 -54h-340v-10q2 -58 37.5 -91.5t98.5 -33.5zM172 302h274
q5 15 5 37q0 44 -26.5 72.5t-78.5 28.5q-60 0 -107 -38.5t-67 -99.5zM412 720q28 0 45 -17.5t11 -41.5l-4 -16q-6 -24 -27 -40t-48 -16q-29 0 -46 17.5t-11 41.5l4 16q7 25 28 40.5t48 15.5z" />
    <glyph glyph-name="Eogonek" unicode="&#x118;" horiz-adv-x="660" 
d="M527 2q-36 -29 -49 -45t-13 -32q0 -12 8.5 -18t28.5 -11q28 -9 27 -30q-2 -33 -58 -33q-49 0 -76.5 18.5t-27.5 48.5q0 45 70 100h-347q-31 0 -45.5 21.5t-4.5 56.5l150 560q8 29 26.5 45.5t43.5 16.5h396q22 0 38.5 -16t16.5 -39t-16 -39t-39 -16h-356l-49 -183h281
q23 0 39.5 -16t16.5 -39q0 -22 -16.5 -38t-39.5 -16h-310l-51 -188h331q23 0 39.5 -16t16.5 -39q0 -26 -31 -53z" />
    <glyph glyph-name="eogonek" unicode="&#x119;" horiz-adv-x="600" 
d="M408 -1q-51 -45 -51 -74q0 -21 36 -29q28 -9 27 -30q0 -33 -58 -33q-48 0 -75.5 18.5t-27.5 48.5q0 43 54 90q-18 -2 -29 -2q-110 0 -175 62.5t-65 168.5q0 79 38.5 152t111.5 120.5t161 47.5q99 0 155 -58t56 -147q0 -24 -6 -58q-12 -54 -60 -54h-340v-10
q2 -58 37.5 -91.5t98.5 -33.5q59 0 106 32q22 12 38 12q20 0 33 -13t13 -34q0 -25 -23 -41zM172 302h274q5 15 5 37q0 44 -26.5 72.5t-78.5 28.5q-60 0 -107 -38.5t-67 -99.5z" />
    <glyph glyph-name="Ecaron" unicode="&#x11a;" horiz-adv-x="660" 
d="M410 786l-41 78q-10 20 -10 26q0 20 28 20q25 0 40 -5t31 -23l38 -44l65 45q40 27 76 27q27 0 27 -19q0 -13 -14 -27l-86 -81q-29 -29 -64 -29h-33q-40 0 -57 32zM503 0h-413q-31 0 -45.5 21.5t-4.5 56.5l150 560q8 29 26.5 45.5t43.5 16.5h396q22 0 38.5 -16t16.5 -39
t-16 -39t-39 -16h-356l-49 -183h281q23 0 39.5 -16t16.5 -39q0 -22 -16.5 -38t-39.5 -16h-310l-51 -188h332q23 0 39 -16t16 -39t-16 -39t-39 -16z" />
    <glyph glyph-name="ecaron" unicode="&#x11b;" horiz-adv-x="600" 
d="M296 87q59 0 106 32q22 12 38 12q20 0 33 -13t13 -34q0 -26 -23 -41q-75 -55 -179 -55q-110 0 -175 62.5t-65 168.5q0 79 38.5 152t111.5 120.5t161 47.5q99 0 155 -58t56 -147q0 -24 -6 -58q-12 -54 -60 -54h-340v-10q2 -58 37.5 -91.5t98.5 -33.5zM172 302h274
q5 15 5 37q0 44 -26.5 72.5t-78.5 28.5q-60 0 -107 -38.5t-67 -99.5zM318 623l-41 78q-10 20 -10 26q0 20 28 20q25 0 40 -5t31 -23l38 -44l65 45q40 27 76 27q27 0 27 -19q0 -13 -14 -27l-86 -81q-29 -29 -64 -29h-33q-40 0 -57 32z" />
    <glyph glyph-name="Gbreve" unicode="&#x11e;" horiz-adv-x="782" 
d="M720 313l-60 -210q-12 -45 -51 -66q-89 -49 -214 -49q-132 0 -226.5 79.5t-94.5 221.5q0 108 55.5 205t156.5 157.5t222 60.5q161 0 243 -86q24 -22 24 -50q0 -25 -17.5 -42.5t-42.5 -17.5q-24 0 -40 14q-74 69 -176 69q-124 0 -210 -92t-86 -214q0 -90 56 -141t144 -51
q83 0 148 36l43 147h-123q-23 0 -38.5 15.5t-15.5 37.5q0 23 15.5 38.5t38.5 15.5h199q31 0 45.5 -21.5t4.5 -56.5zM549 766q-64 0 -104.5 33t-40.5 78q0 19 13 31t31 12q28 0 40 -24q18 -45 72 -45q48 0 84 45q21 24 44 24q17 0 27.5 -10t10.5 -26q0 -15 -11 -29
q-27 -39 -70 -64t-96 -25z" />
    <glyph glyph-name="gbreve" unicode="&#x11f;" horiz-adv-x="666" 
d="M296 141q73 0 128.5 53.5t55.5 123.5q0 51 -35 84.5t-93 33.5q-72 0 -125 -53.5t-53 -128.5q0 -54 34.5 -83.5t87.5 -29.5zM514 433l11 40q16 61 67 61q31 0 45 -21.5t4 -57.5l-97 -363q-19 -71 -39 -110.5t-51 -69.5q-74 -74 -208 -74q-126 0 -230 57q-33 17 -33 47
q0 22 14.5 37.5t36.5 15.5q18 0 37 -10q79 -49 168 -49q82 0 129 47q35 35 55 107l9 32q-86 -80 -181 -80q-83 0 -143 51.5t-60 139.5q0 128 89 217t203 89q68 0 108 -29t66 -77zM433 593q-64 0 -104.5 33t-40.5 78q0 19 13 31t31 12q28 0 40 -24q18 -45 72 -45q48 0 84 45
q21 24 44 24q17 0 27.5 -10t10.5 -26q0 -15 -11 -29q-27 -39 -70 -64t-96 -25z" />
    <glyph glyph-name="Gdotaccent" unicode="&#x120;" horiz-adv-x="782" 
d="M720 313l-60 -210q-12 -45 -51 -66q-89 -49 -214 -49q-132 0 -226.5 79.5t-94.5 221.5q0 108 55.5 205t156.5 157.5t222 60.5q161 0 243 -86q24 -22 24 -50q0 -25 -17.5 -42.5t-42.5 -17.5q-24 0 -40 14q-74 69 -176 69q-124 0 -210 -92t-86 -214q0 -90 56 -141t144 -51
q83 0 148 36l43 147h-123q-23 0 -38.5 15.5t-15.5 37.5q0 23 15.5 38.5t38.5 15.5h199q31 0 45.5 -21.5t4.5 -56.5zM563 893q28 0 45 -17.5t11 -41.5l-4 -16q-6 -24 -27 -40t-48 -16q-29 0 -46 17.5t-11 41.5l4 16q7 25 28 40.5t48 15.5z" />
    <glyph glyph-name="gdotaccent" unicode="&#x121;" horiz-adv-x="666" 
d="M296 141q73 0 128.5 53.5t55.5 123.5q0 51 -35 84.5t-93 33.5q-72 0 -125 -53.5t-53 -128.5q0 -54 34.5 -83.5t87.5 -29.5zM514 433l11 40q16 61 67 61q31 0 45 -21.5t4 -57.5l-97 -363q-19 -71 -39 -110.5t-51 -69.5q-74 -74 -208 -74q-126 0 -230 57q-33 17 -33 47
q0 22 14.5 37.5t36.5 15.5q18 0 37 -10q79 -49 168 -49q82 0 129 47q35 35 55 107l9 32q-86 -80 -181 -80q-83 0 -143 51.5t-60 139.5q0 128 89 217t203 89q68 0 108 -29t66 -77zM447 720q28 0 45 -17.5t11 -41.5l-4 -16q-6 -24 -27 -40t-48 -16q-29 0 -46 17.5t-11 41.5
l4 16q7 25 28 40.5t48 15.5z" />
    <glyph glyph-name="Gcommaaccent" unicode="&#x122;" horiz-adv-x="782" 
d="M306 -169q-47 10 -47 45q0 25 19 44t49 19q27 0 42.5 -15.5t15.5 -43.5q0 -59 -46 -103q-50 -52 -115 -52q-23 0 -23 19q0 17 27 23q67 14 78 64zM720 313l-60 -210q-12 -45 -51 -66q-89 -49 -214 -49q-132 0 -226.5 79.5t-94.5 221.5q0 108 55.5 205t156.5 157.5
t222 60.5q161 0 243 -86q24 -22 24 -50q0 -25 -17.5 -42.5t-42.5 -17.5q-24 0 -40 14q-74 69 -176 69q-124 0 -210 -92t-86 -214q0 -90 56 -141t144 -51q83 0 148 36l43 147h-123q-23 0 -38.5 15.5t-15.5 37.5q0 23 15.5 38.5t38.5 15.5h199q31 0 45.5 -21.5t4.5 -56.5z" />
    <glyph glyph-name="gcommaaccent" unicode="&#x123;" horiz-adv-x="666" 
d="M446 696q47 -10 47 -45q0 -25 -19 -44t-49 -19q-27 0 -42.5 15.5t-15.5 43.5q0 59 46 103q50 52 115 52q23 0 23 -19q0 -17 -27 -23q-67 -14 -78 -64zM296 141q73 0 128.5 53.5t55.5 123.5q0 51 -35 84.5t-93 33.5q-72 0 -125 -53.5t-53 -128.5q0 -54 34.5 -83.5
t87.5 -29.5zM514 433l11 40q16 61 67 61q31 0 45 -21.5t4 -57.5l-97 -363q-19 -71 -39 -110.5t-51 -69.5q-74 -74 -208 -74q-126 0 -230 57q-33 17 -33 47q0 22 14.5 37.5t36.5 15.5q18 0 37 -10q79 -49 168 -49q82 0 129 47q35 35 55 107l9 32q-86 -80 -181 -80
q-83 0 -143 51.5t-60 139.5q0 128 89 217t203 89q68 0 108 -29t66 -77z" />
    <glyph glyph-name="Hbar" unicode="&#x126;" horiz-adv-x="756" 
d="M763 626l-8 -28h22q18 0 31.5 -13t13.5 -31q0 -17 -13.5 -30t-31.5 -13h-45l-122 -456q-8 -28 -26.5 -44t-42.5 -16q-31 0 -45.5 21t-4.5 58l60 221h-329l-65 -240q-16 -60 -68 -60q-31 0 -45.5 21.5t-4.5 57.5l117 437h-20q-19 0 -32 13t-13 30q0 18 13 31t32 13h43
l13 47q8 28 26.5 44t42.5 16q31 0 45.5 -21t4.5 -58l-8 -28h329l13 47q16 60 68 60q31 0 45.5 -21.5t4.5 -57.5zM253 409h329l27 102h-329z" />
    <glyph glyph-name="hbar" unicode="&#x127;" horiz-adv-x="618" 
d="M554 288l-62 -233q-16 -60 -67 -60q-31 0 -45 21t-4 57l59 220q8 27 8 53q0 40 -24 61.5t-68 21.5q-50 0 -89.5 -36.5t-55.5 -95.5l-65 -242q-16 -60 -67 -60q-31 0 -45 21t-4 57l140 529h-28q-15 0 -25.5 10.5t-10.5 25.5q0 14 10.5 25t25.5 11h47l1 1q17 60 68 60
q27 0 41 -16.5t11 -44.5h125q14 0 25 -11t11 -25q0 -15 -11 -25.5t-25 -10.5h-143l-38 -141q80 78 161 78q73 0 116.5 -42.5t43.5 -115.5q0 -31 -16 -93z" />
    <glyph glyph-name="Imacron" unicode="&#x12a;" horiz-adv-x="317" 
d="M318 626l-154 -571q-16 -60 -68 -60q-31 0 -45.5 21.5t-4.5 57.5l153 571q8 28 26.5 44t42.5 16q31 0 45.5 -21t4.5 -58zM439 769h-265q-18 0 -31 13t-13 31t13 31t31 13h265q19 0 32 -13t13 -31t-13 -31t-32 -13z" />
    <glyph glyph-name="imacron" unicode="&#x12b;" horiz-adv-x="286" 
d="M255 455l-107 -400q-17 -60 -68 -60q-31 0 -45 21t-4 57l108 400q16 61 67 61q31 0 45 -21.5t4 -57.5zM380 606h-265q-18 0 -31 13t-13 31t13 31t31 13h265q19 0 32 -13t13 -31t-13 -31t-32 -13z" />
    <glyph glyph-name="Ibreve" unicode="&#x12c;" horiz-adv-x="317" 
d="M318 626l-154 -571q-16 -60 -68 -60q-31 0 -45.5 21.5t-4.5 57.5l153 571q8 28 26.5 44t42.5 16q31 0 45.5 -21t4.5 -58zM304 756q-64 0 -104.5 33t-40.5 78q0 19 13 31t31 12q28 0 40 -24q18 -45 72 -45q48 0 84 45q21 24 44 24q17 0 27.5 -10t10.5 -26q0 -15 -11 -29
q-27 -39 -70 -64t-96 -25z" />
    <glyph glyph-name="ibreve" unicode="&#x12d;" horiz-adv-x="286" 
d="M255 455l-107 -400q-17 -60 -68 -60q-31 0 -45 21t-4 57l108 400q16 61 67 61q31 0 45 -21.5t4 -57.5zM245 593q-64 0 -104.5 33t-40.5 78q0 19 13 31t31 12q28 0 40 -24q18 -45 72 -45q48 0 84 45q21 24 44 24q17 0 27.5 -10t10.5 -26q0 -15 -11 -29q-27 -39 -70 -64
t-96 -25z" />
    <glyph glyph-name="Iogonek" unicode="&#x12e;" horiz-adv-x="317" 
d="M79 -167q-49 0 -76.5 18.5t-27.5 48.5q0 48 81 111q-22 20 -10 63l153 571q8 28 26.5 44t42.5 16q31 0 45.5 -21t4.5 -58l-154 -571q-7 -26 -30 -49q-61 -54 -61 -81q0 -21 36 -29q28 -9 28 -30q-2 -33 -58 -33z" />
    <glyph glyph-name="iogonek" unicode="&#x12f;" horiz-adv-x="286" 
d="M255 455l-107 -400q-8 -27 -30 -49q-61 -54 -61 -81q0 -12 8.5 -18t28.5 -11q28 -9 27 -30q-2 -33 -58 -33q-49 0 -76.5 18.5t-27.5 48.5q0 48 81 111q-12 15 -12 38q0 12 3 24l108 400q16 61 67 61q31 0 45 -21.5t4 -57.5zM319 660q-6 -25 -28 -40.5t-51 -15.5
q-30 0 -47.5 16.5t-11.5 40.5l3 12q6 26 27.5 41t51.5 15q29 0 46.5 -16.5t12.5 -40.5z" />
    <glyph glyph-name="Idotaccent" unicode="&#x130;" horiz-adv-x="317" 
d="M318 626l-154 -571q-16 -60 -68 -60q-31 0 -45.5 21.5t-4.5 57.5l153 571q8 28 26.5 44t42.5 16q31 0 45.5 -21t4.5 -58zM320 883q28 0 45 -17.5t11 -41.5l-4 -16q-6 -24 -27 -40t-48 -16q-29 0 -46 17.5t-11 41.5l4 16q7 25 28 40.5t48 15.5z" />
    <glyph glyph-name="dotlessi" unicode="&#x131;" horiz-adv-x="286" 
d="M255 455l-107 -400q-17 -60 -68 -60q-31 0 -45 21t-4 57l108 400q16 61 67 61q31 0 45 -21.5t4 -57.5z" />
    <glyph glyph-name="Kcommaaccent" unicode="&#x136;" horiz-adv-x="723" 
d="M268 -161q-47 10 -47 45q0 25 19 44t49 19q27 0 42.5 -15.5t15.5 -43.5q0 -59 -46 -103q-50 -52 -115 -52q-23 0 -23 19q0 17 27 23q67 14 78 64zM192 186l-35 -131q-16 -60 -68 -60q-31 0 -45.5 21.5t-4.5 57.5l153 571q8 28 26.5 44t42.5 16q31 0 45.5 -21t4.5 -58
l-75 -279l405 335q27 23 51 23q26 0 41 -15.5t15 -39.5q0 -28 -22 -46l-260 -211l144 -302q10 -21 10 -41q0 -24 -18.5 -39.5t-42.5 -15.5q-43 0 -63 43l-131 286z" />
    <glyph glyph-name="kcommaaccent" unicode="&#x137;" horiz-adv-x="582" 
d="M182 -166q-47 10 -47 45q0 25 19 44t49 19q27 0 42.5 -15.5t15.5 -43.5q0 -59 -46 -103q-50 -52 -115 -52q-23 0 -23 19q0 17 27 23q67 14 78 64zM303 657l-97 -362l278 217q28 22 47 22q22 0 36 -14t14 -35q0 -27 -23 -42l-182 -139l97 -213q12 -27 12 -42
q0 -25 -19 -39.5t-44 -14.5q-44 0 -62 43l-89 191l-105 -80l-25 -94q-16 -60 -67 -60q-31 0 -45 21t-4 57l162 602q16 60 67 60q31 0 45 -21t4 -57z" />
    <glyph glyph-name="Lacute" unicode="&#x139;" horiz-adv-x="618" 
d="M467 844l-85 -64q-37 -27 -74 -27q-33 0 -33 23q0 12 10 22l80 88q28 28 48 28q25 0 49 -13.5t24 -28.5q0 -14 -19 -28zM475 0h-385q-31 0 -45.5 21.5t-4.5 56.5l152 567q8 28 26.5 44t42.5 16q31 0 45.5 -21t4.5 -58l-138 -514h302q23 0 39.5 -16.5t16.5 -39.5
q0 -24 -16.5 -40t-39.5 -16z" />
    <glyph glyph-name="lacute" unicode="&#x13a;" horiz-adv-x="286" 
d="M449 861l-85 -64q-37 -27 -74 -27q-33 0 -33 23q0 12 10 22l80 88q28 28 48 28q25 0 49 -13.5t24 -28.5q0 -14 -19 -28zM309 657l-161 -602q-17 -60 -68 -60q-31 0 -45 21t-4 57l162 602q16 60 68 60q31 0 44.5 -21t3.5 -57z" />
    <glyph glyph-name="Lcommaaccent" unicode="&#x13b;" horiz-adv-x="618" 
d="M209 -166q-47 10 -47 45q0 25 19 44t49 19q27 0 42.5 -15.5t15.5 -43.5q0 -59 -46 -103q-50 -52 -115 -52q-23 0 -23 19q0 17 27 23q67 14 78 64zM475 0h-385q-31 0 -45.5 21.5t-4.5 56.5l152 567q8 28 26.5 44t42.5 16q31 0 45.5 -21t4.5 -58l-138 -514h302
q23 0 39.5 -16.5t16.5 -39.5q0 -24 -16.5 -40t-39.5 -16z" />
    <glyph glyph-name="lcommaaccent" unicode="&#x13c;" horiz-adv-x="286" 
d="M30 -166q-47 10 -47 45q0 25 19 44t49 19q27 0 42.5 -15.5t15.5 -43.5q0 -59 -46 -103q-50 -52 -115 -52q-23 0 -23 19q0 17 27 23q67 14 78 64zM309 657l-161 -602q-17 -60 -68 -60q-31 0 -45 21t-4 57l162 602q16 60 68 60q31 0 44.5 -21t3.5 -57z" />
    <glyph glyph-name="Lcaron" unicode="&#x13d;" horiz-adv-x="618" 
d="M351 536l37 125q11 41 53 41h20q24 0 24 -20q0 -11 -11 -31l-69 -123q-15 -24 -35 -24q-22 0 -22 19q0 7 3 13zM475 0h-385q-31 0 -45.5 21.5t-4.5 56.5l152 567q8 28 26.5 44t42.5 16q31 0 45.5 -21t4.5 -58l-138 -514h302q23 0 39.5 -16.5t16.5 -39.5q0 -24 -16.5 -40
t-39.5 -16z" />
    <glyph glyph-name="lcaron" unicode="&#x13e;" horiz-adv-x="286" 
d="M340 566l37 125q11 41 53 41h20q24 0 24 -20q0 -11 -11 -31l-69 -123q-15 -24 -35 -24q-22 0 -22 19q0 7 3 13zM309 657l-161 -602q-17 -60 -68 -60q-31 0 -45 21t-4 57l162 602q16 60 68 60q31 0 44.5 -21t3.5 -57z" />
    <glyph glyph-name="Ldot" unicode="&#x13f;" horiz-adv-x="618" 
d="M518 442q28 0 45 -17.5t11 -41.5l-4 -16q-6 -24 -27 -40t-48 -16q-29 0 -46 17.5t-11 41.5l4 16q7 25 28 40.5t48 15.5zM475 0h-385q-31 0 -45.5 21.5t-4.5 56.5l152 567q8 28 26.5 44t42.5 16q31 0 45.5 -21t4.5 -58l-138 -514h302q23 0 39.5 -16.5t16.5 -39.5
q0 -24 -16.5 -40t-39.5 -16z" />
    <glyph glyph-name="ldot" unicode="&#x140;" horiz-adv-x="367" 
d="M365 436q25 0 39 -17.5t9 -39.5l-3 -13q-12 -52 -61 -52q-25 0 -39.5 17.5t-9.5 39.5l3 13q13 52 62 52zM309 657l-161 -602q-17 -60 -68 -60q-31 0 -45 21t-4 57l162 602q16 60 68 60q31 0 44.5 -21t3.5 -57z" />
    <glyph glyph-name="Lslash" unicode="&#x141;" horiz-adv-x="655" 
d="M99 375l62 17l68 253q7 28 25 44t42 16q30 0 44 -21.5t4 -57.5l-53 -197l132 37q14 4 23 4q23 0 37 -13.5t14 -36.5q0 -39 -41 -51l-196 -55l-54 -202h306q23 0 39 -16.5t16 -39.5q0 -24 -16 -40t-39 -16h-385q-31 0 -45.5 21.5t-4.5 56.5l53 199h-1q-18 -3 -20 -3
q-23 0 -37.5 13.5t-14.5 36.5q0 39 42 51z" />
    <glyph glyph-name="lslash" unicode="&#x142;" horiz-adv-x="344" 
d="M339 657l-56 -210l7 2q12 3 21 3q21 0 33 -13.5t12 -35.5q0 -42 -45 -54l-59 -16l-74 -278q-17 -60 -68 -60q-31 0 -45 21t-4 57l60 223l-6 -1q-12 -3 -21 -3q-21 0 -33 13.5t-12 35.5q0 42 45 54l58 16l71 264q16 60 68 60q31 0 44.5 -21t3.5 -57z" />
    <glyph glyph-name="Nacute" unicode="&#x143;" horiz-adv-x="786" 
d="M692 844l-85 -64q-37 -27 -74 -27q-33 0 -33 23q0 12 10 22l80 88q28 28 48 28q25 0 49 -13.5t24 -28.5q0 -14 -19 -28zM558 205l119 440q16 60 68 60q31 0 45 -21t4 -58l-155 -573q-15 -57 -65 -57h-2q-48 0 -70 47l-225 466l-122 -454q-16 -60 -67 -60q-31 0 -45 21
t-4 58l152 568q17 62 73 62h6q50 0 73 -51z" />
    <glyph glyph-name="nacute" unicode="&#x144;" horiz-adv-x="617" 
d="M557 681l-85 -64q-37 -27 -74 -27q-33 0 -33 23q0 12 10 22l80 88q28 28 48 28q25 0 49 -13.5t24 -28.5q0 -14 -19 -28zM201 534q26 0 40.5 -15t13.5 -37l-6 -21q80 78 161 78q73 0 116.5 -42.5t43.5 -115.5q0 -31 -16 -93l-62 -233q-16 -60 -67 -60q-31 0 -45 21t-4 57
l59 220q8 27 8 53q0 40 -24 61.5t-68 21.5q-50 0 -89.5 -36.5t-55.5 -95.5l-65 -242q-16 -60 -67 -60q-31 0 -45 21t-4 57l107 400q16 61 69 61z" />
    <glyph glyph-name="Ncommaaccent" unicode="&#x145;" horiz-adv-x="786" 
d="M280 -161q-47 10 -47 45q0 25 19 44t49 19q27 0 42.5 -15.5t15.5 -43.5q0 -59 -46 -103q-50 -52 -115 -52q-23 0 -23 19q0 17 27 23q67 14 78 64zM558 205l119 440q16 60 68 60q31 0 45 -21t4 -58l-155 -573q-15 -57 -65 -57h-2q-48 0 -70 47l-225 466l-122 -454
q-16 -60 -67 -60q-31 0 -45 21t-4 58l152 568q17 62 73 62h6q50 0 73 -51z" />
    <glyph glyph-name="ncommaaccent" unicode="&#x146;" horiz-adv-x="617" 
d="M189 -166q-47 10 -47 45q0 25 19 44t49 19q27 0 42.5 -15.5t15.5 -43.5q0 -59 -46 -103q-50 -52 -115 -52q-23 0 -23 19q0 17 27 23q67 14 78 64zM201 534q26 0 40.5 -15t13.5 -37l-6 -21q80 78 161 78q73 0 116.5 -42.5t43.5 -115.5q0 -31 -16 -93l-62 -233
q-16 -60 -67 -60q-31 0 -45 21t-4 57l59 220q8 27 8 53q0 40 -24 61.5t-68 21.5q-50 0 -89.5 -36.5t-55.5 -95.5l-65 -242q-16 -60 -67 -60q-31 0 -45 21t-4 57l107 400q16 61 69 61z" />
    <glyph glyph-name="Ncaron" unicode="&#x147;" horiz-adv-x="786" 
d="M458 786l-41 78q-10 20 -10 26q0 20 28 20q25 0 40 -5t31 -23l38 -44l65 45q40 27 76 27q27 0 27 -19q0 -13 -14 -27l-86 -81q-29 -29 -64 -29h-33q-40 0 -57 32zM558 205l119 440q16 60 68 60q31 0 45 -21t4 -58l-155 -573q-15 -57 -65 -57h-2q-48 0 -70 47l-225 466
l-122 -454q-16 -60 -67 -60q-31 0 -45 21t-4 58l152 568q17 62 73 62h6q50 0 73 -51z" />
    <glyph glyph-name="ncaron" unicode="&#x148;" horiz-adv-x="617" 
d="M324 623l-41 78q-10 20 -10 26q0 20 28 20q25 0 40 -5t31 -23l38 -44l65 45q40 27 76 27q27 0 27 -19q0 -13 -14 -27l-86 -81q-29 -29 -64 -29h-33q-40 0 -57 32zM201 534q26 0 40.5 -15t13.5 -37l-6 -21q80 78 161 78q73 0 116.5 -42.5t43.5 -115.5q0 -31 -16 -93
l-62 -233q-16 -60 -67 -60q-31 0 -45 21t-4 57l59 220q8 27 8 53q0 40 -24 61.5t-68 21.5q-50 0 -89.5 -36.5t-55.5 -95.5l-65 -242q-16 -60 -67 -60q-31 0 -45 21t-4 57l107 400q16 61 69 61z" />
    <glyph glyph-name="Omacron" unicode="&#x14c;" horiz-adv-x="836" 
d="M690 779h-265q-18 0 -31 13t-13 31t13 31t31 13h265q19 0 32 -13t13 -31t-13 -31t-32 -13zM390 -12q-139 0 -226.5 87.5t-87.5 219.5q0 106 52.5 201.5t149 155.5t213.5 60q140 0 227.5 -87.5t87.5 -219.5q0 -106 -52.5 -201.5t-149.5 -155.5t-214 -60zM403 101
q78 0 142.5 44.5t98.5 112.5t34 140q0 88 -53.5 144.5t-145.5 56.5q-78 0 -142.5 -44.5t-98.5 -112.5t-34 -140q0 -89 53.5 -145t145.5 -56z" />
    <glyph glyph-name="omacron" unicode="&#x14d;" horiz-adv-x="646" 
d="M554 606h-265q-18 0 -31 13t-13 31t13 31t31 13h265q19 0 32 -13t13 -31t-13 -31t-32 -13zM293 -12q-112 0 -180 67.5t-68 173.5q0 122 91 216t217 94q112 0 180 -68t68 -174q0 -122 -91.5 -215.5t-216.5 -93.5zM300 93q74 0 127.5 63.5t53.5 137.5q0 66 -37 103t-98 37
q-75 0 -128 -63.5t-53 -137.5q0 -66 37 -103t98 -37z" />
    <glyph glyph-name="Obreve" unicode="&#x14e;" horiz-adv-x="836" 
d="M390 -12q-139 0 -226.5 87.5t-87.5 219.5q0 106 52.5 201.5t149 155.5t213.5 60q140 0 227.5 -87.5t87.5 -219.5q0 -106 -52.5 -201.5t-149.5 -155.5t-214 -60zM403 101q78 0 142.5 44.5t98.5 112.5t34 140q0 88 -53.5 144.5t-145.5 56.5q-78 0 -142.5 -44.5
t-98.5 -112.5t-34 -140q0 -89 53.5 -145t145.5 -56zM556 766q-64 0 -104.5 33t-40.5 78q0 19 13 31t31 12q28 0 40 -24q18 -45 72 -45q48 0 84 45q21 24 44 24q17 0 27.5 -10t10.5 -26q0 -15 -11 -29q-27 -39 -70 -64t-96 -25z" />
    <glyph glyph-name="obreve" unicode="&#x14f;" horiz-adv-x="646" 
d="M293 -12q-112 0 -180 67.5t-68 173.5q0 122 91 216t217 94q112 0 180 -68t68 -174q0 -122 -91.5 -215.5t-216.5 -93.5zM300 93q74 0 127.5 63.5t53.5 137.5q0 66 -37 103t-98 37q-75 0 -128 -63.5t-53 -137.5q0 -66 37 -103t98 -37zM420 593q-64 0 -104.5 33t-40.5 78
q0 19 13 31t31 12q28 0 40 -24q18 -45 72 -45q48 0 84 45q21 24 44 24q17 0 27.5 -10t10.5 -26q0 -15 -11 -29q-27 -39 -70 -64t-96 -25z" />
    <glyph glyph-name="Ohungarumlaut" unicode="&#x150;" horiz-adv-x="836" 
d="M542 924q23 0 40.5 -12.5t17.5 -29.5q0 -14 -19 -29l-83 -63q-37 -27 -67 -27q-28 0 -28 22q0 13 11 23l80 88q26 28 48 28zM725 924q23 0 40.5 -12.5t17.5 -29.5q0 -14 -19 -29l-83 -63q-37 -27 -67 -27q-28 0 -28 22q0 13 10 23l80 88q28 28 49 28zM390 -12
q-139 0 -226.5 87.5t-87.5 219.5q0 106 52.5 201.5t149 155.5t213.5 60q140 0 227.5 -87.5t87.5 -219.5q0 -106 -52.5 -201.5t-149.5 -155.5t-214 -60zM403 101q78 0 142.5 44.5t98.5 112.5t34 140q0 88 -53.5 144.5t-145.5 56.5q-78 0 -142.5 -44.5t-98.5 -112.5t-34 -140
q0 -89 53.5 -145t145.5 -56z" />
    <glyph glyph-name="ohungarumlaut" unicode="&#x151;" horiz-adv-x="646" 
d="M405 751q23 0 40.5 -12.5t17.5 -29.5q0 -14 -19 -29l-83 -63q-37 -27 -67 -27q-28 0 -28 22q0 13 11 23l80 88q26 28 48 28zM588 751q23 0 40.5 -12.5t17.5 -29.5q0 -14 -19 -29l-83 -63q-37 -27 -67 -27q-28 0 -28 22q0 13 10 23l80 88q28 28 49 28zM293 -12
q-112 0 -180 67.5t-68 173.5q0 122 91 216t217 94q112 0 180 -68t68 -174q0 -122 -91.5 -215.5t-216.5 -93.5zM300 93q74 0 127.5 63.5t53.5 137.5q0 66 -37 103t-98 37q-75 0 -128 -63.5t-53 -137.5q0 -66 37 -103t98 -37z" />
    <glyph glyph-name="OE" unicode="&#x152;" horiz-adv-x="1096" 
d="M434 112h63l128 476h-88q-162 0 -257 -95q-77 -77 -77 -193q0 -81 48 -129q59 -59 183 -59zM933 0h-509q-182 0 -277 95q-72 72 -72 200q0 163 113 274q131 131 363 131h536q23 0 39 -16t16 -39t-16 -39t-39 -16h-339l-48 -183h263q23 0 39.5 -16t16.5 -39
q0 -22 -16.5 -38t-39.5 -16h-293l-51 -188h314q23 0 39.5 -16t16.5 -39t-16.5 -39t-39.5 -16z" />
    <glyph glyph-name="oe" unicode="&#x153;" horiz-adv-x="1033" 
d="M606 302h274q5 15 5 37q0 44 -26.5 72.5t-78.5 28.5q-60 0 -106.5 -38.5t-67.5 -99.5zM299 93q76 0 129 61t53 138q0 65 -37 103.5t-97 38.5q-76 0 -129 -61.5t-53 -138.5q0 -64 37 -102.5t97 -38.5zM730 87q57 0 106 32q22 12 38 12q20 0 33.5 -13t13.5 -34
q0 -26 -24 -41q-76 -55 -178 -55q-74 0 -126.5 30t-76.5 85q-87 -115 -223 -115q-111 0 -179.5 68t-68.5 173q0 123 90.5 216.5t216.5 93.5q77 0 130.5 -33.5t77.5 -89.5q87 123 229 123q99 0 155 -58t56 -147q0 -32 -6 -59q-12 -53 -59 -53h-340q-1 -3 -1 -10
q2 -58 37.5 -91.5t98.5 -33.5z" />
    <glyph glyph-name="Racute" unicode="&#x154;" horiz-adv-x="723" 
d="M628 844l-85 -64q-37 -27 -74 -27q-33 0 -33 23q0 12 10 22l80 88q28 28 48 28q25 0 49 -13.5t24 -28.5q0 -14 -19 -28zM208 244l-51 -189q-16 -60 -68 -60q-31 0 -45.5 21.5t-4.5 57.5l151 564q8 29 26.5 45.5t43.5 16.5h201q145 0 212 -68q51 -51 51 -132
q0 -98 -64 -160q-57 -59 -168 -83l99 -165q14 -20 14 -41q0 -26 -18 -41t-42 -15q-47 0 -70 40l-121 209h-146zM238 353h158q114 0 165 53q35 35 35 84q0 37 -25 64q-36 34 -117 34h-153z" />
    <glyph glyph-name="racute" unicode="&#x155;" horiz-adv-x="412" 
d="M462 681l-85 -64q-37 -27 -74 -27q-33 0 -33 23q0 12 10 22l80 88q28 28 48 28q25 0 49 -13.5t24 -28.5q0 -14 -19 -28zM249 462l-12 -45q33 57 73.5 87.5t82.5 30.5q25 0 39 -14.5t14 -40.5q0 -50 -57 -64q-160 -36 -210 -220l-38 -141q-17 -60 -68 -60q-31 0 -45 21
t-4 57l108 400q16 61 67 61q30 0 44 -20t6 -52z" />
    <glyph glyph-name="Rcommaaccent" unicode="&#x156;" horiz-adv-x="723" 
d="M248 -161q-47 10 -47 45q0 25 19 44t49 19q27 0 42.5 -15.5t15.5 -43.5q0 -59 -46 -103q-50 -52 -115 -52q-23 0 -23 19q0 17 27 23q67 14 78 64zM208 244l-51 -189q-16 -60 -68 -60q-31 0 -45.5 21.5t-4.5 57.5l151 564q8 29 26.5 45.5t43.5 16.5h201q145 0 212 -68
q51 -51 51 -132q0 -98 -64 -160q-57 -59 -168 -83l99 -165q14 -20 14 -41q0 -26 -18 -41t-42 -15q-47 0 -70 40l-121 209h-146zM238 353h158q114 0 165 53q35 35 35 84q0 37 -25 64q-36 34 -117 34h-153z" />
    <glyph glyph-name="rcommaaccent" unicode="&#x157;" horiz-adv-x="412" 
d="M30 -166q-47 10 -47 45q0 25 19 44t49 19q27 0 42.5 -15.5t15.5 -43.5q0 -59 -46 -103q-50 -52 -115 -52q-23 0 -23 19q0 17 27 23q67 14 78 64zM249 462l-12 -45q33 57 73.5 87.5t82.5 30.5q25 0 39 -14.5t14 -40.5q0 -50 -57 -64q-160 -36 -210 -220l-38 -141
q-17 -60 -68 -60q-31 0 -45 21t-4 57l108 400q16 61 67 61q30 0 44 -20t6 -52z" />
    <glyph glyph-name="Rcaron" unicode="&#x158;" horiz-adv-x="723" 
d="M395 786l-41 78q-10 20 -10 26q0 20 28 20q25 0 40 -5t31 -23l38 -44l65 45q40 27 76 27q27 0 27 -19q0 -13 -14 -27l-86 -81q-29 -29 -64 -29h-33q-40 0 -57 32zM208 244l-51 -189q-16 -60 -68 -60q-31 0 -45.5 21.5t-4.5 57.5l151 564q8 29 26.5 45.5t43.5 16.5h201
q145 0 212 -68q51 -51 51 -132q0 -98 -64 -160q-57 -59 -168 -83l99 -165q14 -20 14 -41q0 -26 -18 -41t-42 -15q-47 0 -70 40l-121 209h-146zM238 353h158q114 0 165 53q35 35 35 84q0 37 -25 64q-36 34 -117 34h-153z" />
    <glyph glyph-name="rcaron" unicode="&#x159;" horiz-adv-x="412" 
d="M229 623l-41 78q-10 20 -10 26q0 20 28 20q25 0 40 -5t31 -23l38 -44l65 45q40 27 76 27q27 0 27 -19q0 -13 -14 -27l-86 -81q-29 -29 -64 -29h-33q-40 0 -57 32zM249 462l-12 -45q33 57 73.5 87.5t82.5 30.5q25 0 39 -14.5t14 -40.5q0 -50 -57 -64q-160 -36 -210 -220
l-38 -141q-17 -60 -68 -60q-31 0 -45 21t-4 57l108 400q16 61 67 61q30 0 44 -20t6 -52z" />
    <glyph glyph-name="Sacute" unicode="&#x15a;" horiz-adv-x="637" 
d="M604 854l-85 -64q-37 -27 -74 -27q-33 0 -33 23q0 12 10 22l80 88q28 28 48 28q25 0 49 -13.5t24 -28.5q0 -14 -19 -28zM303 99q59 0 97 27t38 70q0 32 -27.5 54.5t-101.5 51.5q-90 36 -135 78t-45 110q0 97 77 158.5t192 61.5q126 0 217 -69q28 -21 28 -52
q0 -25 -17.5 -42.5t-42.5 -17.5q-23 0 -36 13q-71 59 -158 59q-59 0 -94.5 -27.5t-35.5 -64.5q0 -33 28.5 -54.5t107.5 -52.5q88 -34 131 -76.5t43 -111.5q0 -100 -79.5 -162t-193.5 -62q-165 0 -260 90q-24 20 -24 51q0 26 17 44t43 18q23 0 41 -16q45 -42 88 -60t102 -18z
" />
    <glyph glyph-name="sacute" unicode="&#x15b;" horiz-adv-x="499" 
d="M492 681l-85 -64q-37 -27 -74 -27q-33 0 -33 23q0 12 10 22l80 88q28 28 48 28q25 0 49 -13.5t24 -28.5q0 -14 -19 -28zM227 83q36 0 60 17t24 46q0 19 -18 34t-59 32q-78 32 -115 63.5t-37 87.5q0 76 57 126t150 50q90 0 170 -50q28 -16 28 -46q0 -22 -14.5 -37.5
t-36.5 -15.5q-14 0 -33 12q-61 42 -123 42q-38 0 -59.5 -17t-21.5 -43q0 -20 19 -35t65 -34q71 -30 108 -62.5t37 -85.5q0 -81 -59.5 -130t-151.5 -49q-112 0 -204 69q-22 16 -22 43q0 22 14.5 37t34.5 15q18 0 35 -13q70 -56 152 -56z" />
    <glyph glyph-name="Scedilla" unicode="&#x15e;" horiz-adv-x="637" 
d="M303 99q59 0 97 27t38 70q0 32 -27.5 54.5t-101.5 51.5q-90 36 -135 78t-45 110q0 97 77 158.5t192 61.5q126 0 217 -69q28 -21 28 -52q0 -25 -17.5 -42.5t-42.5 -17.5q-23 0 -36 13q-71 59 -158 59q-59 0 -94.5 -27.5t-35.5 -64.5q0 -33 28.5 -54.5t107.5 -52.5
q88 -34 131 -76.5t43 -111.5q0 -100 -79.5 -162t-193.5 -62h-2l-86 -124q-17 -26 -42 -26q-19 0 -37.5 13.5t-18.5 29.5q0 14 14 29l81 86q-104 20 -169 82q-24 20 -24 51q0 26 17 44t43 18q23 0 41 -16q45 -42 88 -60t102 -18z" />
    <glyph glyph-name="scedilla" unicode="&#x15f;" horiz-adv-x="499" 
d="M227 83q36 0 60 17t24 46q0 19 -18 34t-59 32q-78 32 -115 63.5t-37 87.5q0 76 57 126t150 50q90 0 170 -50q28 -16 28 -46q0 -22 -14.5 -37.5t-36.5 -15.5q-14 0 -33 12q-61 42 -123 42q-38 0 -59.5 -17t-21.5 -43q0 -20 19 -35t65 -34q71 -30 108 -62.5t37 -85.5
q0 -79 -57.5 -128t-147.5 -51l-84 -122q-17 -26 -42 -26q-19 0 -37.5 13.5t-18.5 29.5q0 14 14 29l81 86q-68 17 -123 59q-22 16 -22 43q0 22 14.5 37t34.5 15q18 0 35 -13q70 -56 152 -56z" />
    <glyph glyph-name="Scaron" unicode="&#x160;" horiz-adv-x="637" 
d="M370 796l-41 78q-10 20 -10 26q0 20 28 20q25 0 40 -5t31 -23l38 -44l65 45q40 27 76 27q27 0 27 -19q0 -13 -14 -27l-86 -81q-29 -29 -64 -29h-33q-40 0 -57 32zM303 99q59 0 97 27t38 70q0 32 -27.5 54.5t-101.5 51.5q-90 36 -135 78t-45 110q0 97 77 158.5t192 61.5
q126 0 217 -69q28 -21 28 -52q0 -25 -17.5 -42.5t-42.5 -17.5q-23 0 -36 13q-71 59 -158 59q-59 0 -94.5 -27.5t-35.5 -64.5q0 -33 28.5 -54.5t107.5 -52.5q88 -34 131 -76.5t43 -111.5q0 -100 -79.5 -162t-193.5 -62q-165 0 -260 90q-24 20 -24 51q0 26 17 44t43 18
q23 0 41 -16q45 -42 88 -60t102 -18z" />
    <glyph glyph-name="scaron" unicode="&#x161;" horiz-adv-x="499" 
d="M260 623l-41 78q-10 20 -10 26q0 20 28 20q25 0 40 -5t31 -23l38 -44l65 45q40 27 76 27q27 0 27 -19q0 -13 -14 -27l-86 -81q-29 -29 -64 -29h-33q-40 0 -57 32zM227 83q36 0 60 17t24 46q0 19 -18 34t-59 32q-78 32 -115 63.5t-37 87.5q0 76 57 126t150 50
q90 0 170 -50q28 -16 28 -46q0 -22 -14.5 -37.5t-36.5 -15.5q-14 0 -33 12q-61 42 -123 42q-38 0 -59.5 -17t-21.5 -43q0 -20 19 -35t65 -34q71 -30 108 -62.5t37 -85.5q0 -81 -59.5 -130t-151.5 -49q-112 0 -204 69q-22 16 -22 43q0 22 14.5 37t34.5 15q18 0 35 -13
q70 -56 152 -56z" />
    <glyph glyph-name="Tcommaaccent" unicode="&#x162;" horiz-adv-x="619" 
d="M192 -166q-47 10 -47 45q0 25 19 44t49 19q27 0 42.5 -15.5t15.5 -43.5q0 -59 -46 -103q-50 -52 -115 -52q-23 0 -23 19q0 17 27 23q67 14 78 64zM455 586l-143 -531q-16 -60 -68 -60q-31 0 -45.5 21.5t-4.5 57.5l138 512h-155q-23 0 -40 17t-17 40t17 40t40 17h464
q23 0 40 -17t17 -40t-17 -40t-40 -17h-186z" />
    <glyph glyph-name="tcommaaccent" unicode="&#x163;" horiz-adv-x="409" 
d="M118 -166q-47 10 -47 45q0 25 19 44t49 19q27 0 42.5 -15.5t15.5 -43.5q0 -59 -46 -103q-50 -52 -115 -52q-23 0 -23 19q0 17 27 23q67 14 78 64zM172 528l25 90q16 60 67 60q31 0 45 -21t4 -57l-20 -72h81q21 0 36 -15t15 -37t-15 -37t-36 -15h-109l-68 -255
q-4 -20 -4 -30q0 -41 51 -41q11 0 21 2q21 2 34 -10t13 -35q0 -37 -33 -50q-32 -14 -81 -14q-64 0 -99 28t-35 76q0 31 9 61l71 268h-14q-18 3 -32 16.5t-14 35.5t15 37t36 15h37z" />
    <glyph glyph-name="Tcaron" unicode="&#x164;" horiz-adv-x="619" 
d="M372 786l-41 78q-10 20 -10 26q0 20 28 20q25 0 40 -5t31 -23l38 -44l65 45q40 27 76 27q27 0 27 -19q0 -13 -14 -27l-86 -81q-29 -29 -64 -29h-33q-40 0 -57 32zM455 586l-143 -531q-16 -60 -68 -60q-31 0 -45.5 21.5t-4.5 57.5l138 512h-155q-23 0 -40 17t-17 40t17 40
t40 17h464q23 0 40 -17t17 -40t-17 -40t-40 -17h-186z" />
    <glyph glyph-name="tcaron" unicode="&#x165;" horiz-adv-x="409" 
d="M383 616l37 125q11 41 53 41h20q24 0 24 -20q0 -11 -11 -31l-69 -123q-15 -24 -35 -24q-22 0 -22 19q0 7 3 13zM172 528l25 90q16 60 67 60q31 0 45 -21t4 -57l-20 -72h81q21 0 36 -15t15 -37t-15 -37t-36 -15h-109l-68 -255q-4 -20 -4 -30q0 -41 51 -41q11 0 21 2
q21 2 34 -10t13 -35q0 -37 -33 -50q-32 -14 -81 -14q-64 0 -99 28t-35 76q0 31 9 61l71 268h-14q-18 3 -32 16.5t-14 35.5t15 37t36 15h37z" />
    <glyph glyph-name="Umacron" unicode="&#x16a;" horiz-adv-x="762" 
d="M776 626l-93 -343q-36 -134 -109 -207q-87 -87 -229 -87q-122 0 -190.5 62t-68.5 169q0 50 16 111l83 314q8 28 26.5 44t42.5 16q31 0 45.5 -21t4.5 -58l-84 -312q-10 -46 -10 -77q0 -60 38 -97t109 -37q79 0 131 52q53 53 77 147l92 343q7 28 26 44t43 16q31 0 45.5 -21
t4.5 -58zM652 769h-265q-18 0 -31 13t-13 31t13 31t31 13h265q19 0 32 -13t13 -31t-13 -31t-32 -13z" />
    <glyph glyph-name="umacron" unicode="&#x16b;" horiz-adv-x="618" 
d="M417 -5q-25 0 -40 14.5t-14 36.5l6 22q-79 -79 -160 -79q-74 0 -117.5 42.5t-43.5 115.5q0 31 16 93l62 233q16 61 67 61q31 0 45 -21.5t4 -57.5l-59 -220q-7 -28 -7 -53q0 -40 24 -61.5t67 -21.5q50 0 89.5 36.5t55.5 95.5l65 242q16 61 67 61q31 0 45 -21.5t4 -57.5
l-106 -400q-17 -60 -70 -60zM538 606h-265q-18 0 -31 13t-13 31t13 31t31 13h265q19 0 32 -13t13 -31t-13 -31t-32 -13z" />
    <glyph glyph-name="Ubreve" unicode="&#x16c;" horiz-adv-x="762" 
d="M776 626l-93 -343q-36 -134 -109 -207q-87 -87 -229 -87q-122 0 -190.5 62t-68.5 169q0 50 16 111l83 314q8 28 26.5 44t42.5 16q31 0 45.5 -21t4.5 -58l-84 -312q-10 -46 -10 -77q0 -60 38 -97t109 -37q79 0 131 52q53 53 77 147l92 343q7 28 26 44t43 16q31 0 45.5 -21
t4.5 -58zM518 756q-64 0 -104.5 33t-40.5 78q0 19 13 31t31 12q28 0 40 -24q18 -45 72 -45q48 0 84 45q21 24 44 24q17 0 27.5 -10t10.5 -26q0 -15 -11 -29q-27 -39 -70 -64t-96 -25z" />
    <glyph glyph-name="ubreve" unicode="&#x16d;" horiz-adv-x="618" 
d="M417 -5q-25 0 -40 14.5t-14 36.5l6 22q-79 -79 -160 -79q-74 0 -117.5 42.5t-43.5 115.5q0 31 16 93l62 233q16 61 67 61q31 0 45 -21.5t4 -57.5l-59 -220q-7 -28 -7 -53q0 -40 24 -61.5t67 -21.5q50 0 89.5 36.5t55.5 95.5l65 242q16 61 67 61q31 0 45 -21.5t4 -57.5
l-106 -400q-17 -60 -70 -60zM404 593q-64 0 -104.5 33t-40.5 78q0 19 13 31t31 12q28 0 40 -24q18 -45 72 -45q48 0 84 45q21 24 44 24q17 0 27.5 -10t10.5 -26q0 -15 -11 -29q-27 -39 -70 -64t-96 -25z" />
    <glyph glyph-name="Uring" unicode="&#x16e;" horiz-adv-x="762" 
d="M521 750q-48 0 -76.5 27.5t-28.5 69.5q0 51 37 87.5t89 36.5q48 0 76.5 -27.5t28.5 -69.5q0 -50 -37 -87t-89 -37zM522 798q30 0 50 22.5t20 52.5q0 22 -14 36t-37 14q-30 0 -50 -22.5t-20 -52.5q0 -22 14 -36t37 -14zM776 626l-93 -343q-36 -134 -109 -207
q-87 -87 -229 -87q-122 0 -190.5 62t-68.5 169q0 50 16 111l83 314q8 28 26.5 44t42.5 16q31 0 45.5 -21t4.5 -58l-84 -312q-10 -46 -10 -77q0 -60 38 -97t109 -37q79 0 131 52q53 53 77 147l92 343q7 28 26 44t43 16q31 0 45.5 -21t4.5 -58z" />
    <glyph glyph-name="uring" unicode="&#x16f;" horiz-adv-x="618" 
d="M409 593q-48 0 -76.5 27.5t-28.5 69.5q0 51 37 87.5t89 36.5q48 0 76.5 -27.5t28.5 -69.5q0 -50 -37 -87t-89 -37zM410 641q30 0 50 22.5t20 52.5q0 22 -14 36t-37 14q-30 0 -50 -22.5t-20 -52.5q0 -22 14 -36t37 -14zM417 -5q-25 0 -40 14.5t-14 36.5l6 22
q-79 -79 -160 -79q-74 0 -117.5 42.5t-43.5 115.5q0 31 16 93l62 233q16 61 67 61q31 0 45 -21.5t4 -57.5l-59 -220q-7 -28 -7 -53q0 -40 24 -61.5t67 -21.5q50 0 89.5 36.5t55.5 95.5l65 242q16 61 67 61q31 0 45 -21.5t4 -57.5l-106 -400q-17 -60 -70 -60z" />
    <glyph glyph-name="Uhungarumlaut" unicode="&#x170;" horiz-adv-x="762" 
d="M776 626l-93 -343q-36 -134 -109 -207q-87 -87 -229 -87q-122 0 -190.5 62t-68.5 169q0 50 16 111l83 314q8 28 26.5 44t42.5 16q31 0 45.5 -21t4.5 -58l-84 -312q-10 -46 -10 -77q0 -60 38 -97t109 -37q79 0 131 52q53 53 77 147l92 343q7 28 26 44t43 16q31 0 45.5 -21
t4.5 -58zM504 914q23 0 40.5 -12.5t17.5 -29.5q0 -14 -19 -29l-83 -63q-37 -27 -67 -27q-28 0 -28 22q0 13 11 23l80 88q26 28 48 28zM687 914q23 0 40.5 -12.5t17.5 -29.5q0 -14 -19 -29l-83 -63q-37 -27 -67 -27q-28 0 -28 22q0 13 10 23l80 88q28 28 49 28z" />
    <glyph glyph-name="uhungarumlaut" unicode="&#x171;" horiz-adv-x="618" 
d="M417 -5q-25 0 -40 14.5t-14 36.5l6 22q-79 -79 -160 -79q-74 0 -117.5 42.5t-43.5 115.5q0 31 16 93l62 233q16 61 67 61q31 0 45 -21.5t4 -57.5l-59 -220q-7 -28 -7 -53q0 -40 24 -61.5t67 -21.5q50 0 89.5 36.5t55.5 95.5l65 242q16 61 67 61q31 0 45 -21.5t4 -57.5
l-106 -400q-17 -60 -70 -60zM390 751q23 0 40.5 -12.5t17.5 -29.5q0 -14 -19 -29l-83 -63q-37 -27 -67 -27q-28 0 -28 22q0 13 11 23l80 88q26 28 48 28zM573 751q23 0 40.5 -12.5t17.5 -29.5q0 -14 -19 -29l-83 -63q-37 -27 -67 -27q-28 0 -28 22q0 13 10 23l80 88
q28 28 49 28z" />
    <glyph glyph-name="Uogonek" unicode="&#x172;" horiz-adv-x="762" 
d="M776 626l-93 -343q-36 -134 -109 -207q-84 -84 -222 -87q-42 -39 -42 -64q0 -12 8.5 -18t28.5 -11q28 -9 27 -30q-2 -33 -58 -33q-49 0 -76.5 18.5t-27.5 48.5q0 44 62 96q-90 16 -139 75t-49 149q0 50 16 111l83 314q8 28 26.5 44t42.5 16q31 0 45.5 -21t4.5 -58
l-84 -312q-10 -46 -10 -77q0 -60 38 -97t109 -37q79 0 131 52q53 53 77 147l92 343q7 28 26 44t43 16q31 0 45.5 -21t4.5 -58z" />
    <glyph glyph-name="uogonek" unicode="&#x173;" horiz-adv-x="618" 
d="M593 455l-106 -400q-8 -27 -30 -49q-61 -54 -61 -81q0 -12 8.5 -18t28.5 -11q28 -9 27 -30q-2 -33 -58 -33q-49 0 -76.5 18.5t-27.5 48.5q0 49 80 110q-15 13 -15 36l6 22q-79 -79 -160 -79q-74 0 -117.5 42.5t-43.5 115.5q0 31 16 93l62 233q16 61 67 61q31 0 45 -21.5
t4 -57.5l-59 -220q-7 -28 -7 -53q0 -40 24 -61.5t67 -21.5q50 0 89.5 36.5t55.5 95.5l65 242q16 61 67 61q31 0 45 -21.5t4 -57.5z" />
    <glyph glyph-name="Wcircumflex" unicode="&#x174;" horiz-adv-x="1098" 
d="M773 877l41 -78q11 -18 11 -26q0 -20 -28 -20q-25 0 -40 4.5t-31 22.5l-39 45l-64 -45q-39 -27 -77 -27q-26 0 -26 19q0 11 14 27l86 81q29 29 64 29h33q40 0 56 -32zM1145 621l-364 -580q-31 -51 -82 -51h-5q-54 0 -57 55l-33 447l-274 -451q-32 -51 -80 -51h-6
q-52 0 -57 55l-51 574q-2 16 -2 29q0 24 18 40.5t46 16.5q27 0 43.5 -14t17.5 -38l34 -472l284 478q27 48 70 48h7q52 0 55 -49l31 -477l292 483q25 41 67 41q25 0 41 -13.5t16 -36.5q0 -14 -11 -34z" />
    <glyph glyph-name="wcircumflex" unicode="&#x175;" horiz-adv-x="853" 
d="M612 714l41 -78q11 -18 11 -26q0 -20 -28 -20q-25 0 -40 4.5t-31 22.5l-39 45l-64 -45q-39 -27 -77 -27q-26 0 -26 19q0 11 14 27l86 81q29 29 64 29h33q40 0 56 -32zM117 47l-28 399q-2 18 -2 30q0 24 19 41t43 17q27 0 43.5 -14.5t17.5 -38.5l15 -313l188 318
q27 48 71 48h6q51 0 54 -49l18 -318l195 329q21 38 58 38q23 0 36 -12.5t13 -33.5q0 -15 -11 -35l-252 -413q-28 -49 -78 -49h-4q-53 0 -56 56l-19 310l-189 -316q-29 -50 -78 -50h-4q-53 0 -56 56z" />
    <glyph glyph-name="Ycircumflex" unicode="&#x176;" horiz-adv-x="655" 
d="M382 261l-55 -206q-8 -28 -26.5 -44t-42.5 -16q-31 0 -45.5 21t-4.5 58l54 200l-138 327q-12 28 -12 46q0 25 18.5 41.5t47.5 16.5q43 0 60 -48l108 -276l270 290q33 35 67 35q24 0 38 -13.5t14 -37.5q0 -27 -22 -49zM549 877l41 -78q11 -18 11 -26q0 -20 -28 -20
q-25 0 -40 4.5t-31 22.5l-39 45l-64 -45q-39 -27 -77 -27q-26 0 -26 19q0 11 14 27l86 81q29 29 64 29h33q40 0 56 -32z" />
    <glyph glyph-name="ycircumflex" unicode="&#x177;" horiz-adv-x="585" 
d="M30 -48q31 -12 53 -12q43 0 85 59l-74 447q-2 18 -2 30q0 25 17 41.5t43 16.5q25 0 41.5 -14.5t18.5 -39.5l47 -346l220 360q23 40 63 40q24 0 38.5 -13t14.5 -35q0 -16 -16 -42l-296 -459q-53 -81 -102.5 -114.5t-112.5 -33.5q-47 0 -77 15q-37 16 -37 53
q0 22 14.5 37.5t34.5 15.5q7 0 27 -6zM467 714l41 -78q11 -18 11 -26q0 -20 -28 -20q-25 0 -40 4.5t-31 22.5l-39 45l-64 -45q-39 -27 -77 -27q-26 0 -26 19q0 11 14 27l86 81q29 29 64 29h33q40 0 56 -32z" />
    <glyph glyph-name="Ydieresis" unicode="&#x178;" horiz-adv-x="655" 
d="M382 261l-55 -206q-8 -28 -26.5 -44t-42.5 -16q-31 0 -45.5 21t-4.5 58l54 200l-138 327q-12 28 -12 46q0 25 18.5 41.5t47.5 16.5q43 0 60 -48l108 -276l270 290q33 35 67 35q24 0 38 -13.5t14 -37.5q0 -27 -22 -49zM373 883q28 0 44.5 -17.5t10.5 -41.5l-4 -16
q-6 -24 -26.5 -40t-47.5 -16q-29 0 -45.5 17.5t-10.5 41.5l4 16q7 25 27.5 40.5t47.5 15.5zM572 883q28 0 44.5 -17.5t10.5 -41.5l-4 -16q-6 -24 -26.5 -40t-47.5 -16q-29 0 -45.5 17.5t-10.5 41.5l4 16q7 25 27.5 40.5t47.5 15.5z" />
    <glyph glyph-name="Zacute" unicode="&#x179;" horiz-adv-x="681" 
d="M624 844l-85 -64q-37 -27 -74 -27q-33 0 -33 23q0 12 10 22l80 88q28 28 48 28q25 0 49 -13.5t24 -28.5q0 -14 -19 -28zM26 110l514 481h-323q-23 0 -39 16t-16 38q0 23 16 39t39 16h458q25 0 39 -12.5t14 -34.5v-2q0 -29 -34 -61l-514 -481h341q23 0 39 -16.5t16 -38.5
t-16 -38t-39 -16h-476q-24 0 -38.5 12.5t-14.5 34.5v2q0 27 34 61z" />
    <glyph glyph-name="zacute" unicode="&#x17a;" horiz-adv-x="554" 
d="M515 681l-85 -64q-37 -27 -74 -27q-33 0 -33 23q0 12 10 22l80 88q28 28 48 28q25 0 49 -13.5t24 -28.5q0 -14 -19 -28zM160 528h347q25 0 39.5 -12t14.5 -32v-1q0 -29 -29 -54l-370 -330h241q20 0 35 -14.5t15 -35.5q0 -20 -15 -34.5t-35 -14.5h-361q-25 0 -39.5 12
t-14.5 33v1q0 28 29 53l370 330h-227q-21 0 -35.5 14.5t-14.5 34.5q0 21 14.5 35.5t35.5 14.5z" />
    <glyph glyph-name="Zdotaccent" unicode="&#x17b;" horiz-adv-x="681" 
d="M26 110l514 481h-323q-23 0 -39 16t-16 38q0 23 16 39t39 16h458q25 0 39 -12.5t14 -34.5v-2q0 -29 -34 -61l-514 -481h341q23 0 39 -16.5t16 -38.5t-16 -38t-39 -16h-476q-24 0 -38.5 12.5t-14.5 34.5v2q0 27 34 61zM484 883q28 0 45 -17.5t11 -41.5l-4 -16
q-6 -24 -27 -40t-48 -16q-29 0 -46 17.5t-11 41.5l4 16q7 25 28 40.5t48 15.5z" />
    <glyph glyph-name="zdotaccent" unicode="&#x17c;" horiz-adv-x="554" 
d="M160 528h347q25 0 39.5 -12t14.5 -32v-1q0 -29 -29 -54l-370 -330h241q20 0 35 -14.5t15 -35.5q0 -20 -15 -34.5t-35 -14.5h-361q-25 0 -39.5 12t-14.5 33v1q0 28 29 53l370 330h-227q-21 0 -35.5 14.5t-14.5 34.5q0 21 14.5 35.5t35.5 14.5zM376 720q28 0 45 -17.5
t11 -41.5l-4 -16q-6 -24 -27 -40t-48 -16q-29 0 -46 17.5t-11 41.5l4 16q7 25 28 40.5t48 15.5z" />
    <glyph glyph-name="Zcaron" unicode="&#x17d;" horiz-adv-x="681" 
d="M390 786l-41 78q-10 20 -10 26q0 20 28 20q25 0 40 -5t31 -23l38 -44l65 45q40 27 76 27q27 0 27 -19q0 -13 -14 -27l-86 -81q-29 -29 -64 -29h-33q-40 0 -57 32zM26 110l514 481h-323q-23 0 -39 16t-16 38q0 23 16 39t39 16h458q25 0 39 -12.5t14 -34.5v-2
q0 -29 -34 -61l-514 -481h341q23 0 39 -16.5t16 -38.5t-16 -38t-39 -16h-476q-24 0 -38.5 12.5t-14.5 34.5v2q0 27 34 61z" />
    <glyph glyph-name="zcaron" unicode="&#x17e;" horiz-adv-x="554" 
d="M282 623l-41 78q-10 20 -10 26q0 20 28 20q25 0 40 -5t31 -23l38 -44l65 45q40 27 76 27q27 0 27 -19q0 -13 -14 -27l-86 -81q-29 -29 -64 -29h-33q-40 0 -57 32zM160 528h347q25 0 39.5 -12t14.5 -32v-1q0 -29 -29 -54l-370 -330h241q20 0 35 -14.5t15 -35.5
q0 -20 -15 -34.5t-35 -14.5h-361q-25 0 -39.5 12t-14.5 33v1q0 28 29 53l370 330h-227q-21 0 -35.5 14.5t-14.5 34.5q0 21 14.5 35.5t35.5 14.5z" />
    <glyph glyph-name="florin" unicode="&#x192;" horiz-adv-x="538" 
d="M54 -11q-30 0 -49.5 13t-19.5 39q0 24 17 36t41 13q56 1 90 77l83 189h-26q-18 0 -32.5 14.5t-14.5 35.5t15 36t36 15h67l45 100q67 154 206 154q33 0 53 -6q42 -11 42 -49q0 -24 -16.5 -38.5t-36.5 -12.5q-3 0 -17 1.5t-22 1.5q-67 0 -106 -85l-29 -66h72q21 0 36 -15
t15 -36t-15 -35.5t-36 -14.5h-117l-99 -225q-63 -142 -182 -142z" />
    <glyph glyph-name="Aringacute" unicode="&#x1fa;" horiz-adv-x="758" 
d="M719 996l-85 -64q-37 -27 -74 -27q-33 0 -33 23q0 12 10 22l80 88q28 28 48 28q25 0 49 -13.5t24 -28.5q0 -14 -19 -28zM38 -5q-23 0 -37 13.5t-14 35.5t15 40l434 604q-33 27 -33 72q0 51 37 87.5t89 36.5q48 0 77 -28t29 -69q0 -34 -18 -63.5t-48 -44.5l108 -593
q4 -22 4 -32q0 -24 -18 -41.5t-45 -17.5q-25 0 -41 14t-19 36l-21 124h-341l-95 -135q-28 -39 -63 -39zM272 278h247l-48 283zM511 710q29 0 48.5 23t19.5 53q0 22 -14 36t-37 14q-30 0 -49.5 -23t-19.5 -53q0 -22 14 -36t38 -14z" />
    <glyph glyph-name="aringacute" unicode="&#x1fb;" horiz-adv-x="583" 
d="M219 76q55 0 101.5 36.5t61.5 89.5l7 24q-62 20 -128 20q-57 0 -92.5 -27t-35.5 -72q0 -32 23.5 -51.5t62.5 -19.5zM391 -5q-57 0 -51 56l5 19q-73 -81 -174 -81q-69 0 -114 40t-45 104q0 89 64.5 140t166.5 51q77 0 164 -26l3 9q6 26 6 44q0 80 -117 80q-51 0 -104 -15
q-10 -3 -21 -3q-21 0 -34.5 14t-13.5 35q0 36 38 48q77 25 159 25q103 0 157 -42.5t54 -120.5q0 -29 -11 -77l-64 -240q-17 -60 -68 -60zM587 934l-85 -64q-37 -27 -74 -27q-33 0 -33 23q0 12 10 22l80 88q28 28 48 28q25 0 49 -13.5t24 -28.5q0 -14 -19 -28zM388 594
q-48 0 -76.5 27.5t-28.5 69.5q0 51 37 87.5t89 36.5q48 0 76.5 -27.5t28.5 -69.5q0 -50 -37 -87t-89 -37zM389 642q30 0 50 22.5t20 52.5q0 22 -14 36t-37 14q-30 0 -50 -22.5t-20 -52.5q0 -22 14 -36t37 -14z" />
    <glyph glyph-name="AEacute" unicode="&#x1fc;" horiz-adv-x="1061" 
d="M901 844l-85 -64q-37 -27 -74 -27q-33 0 -33 23q0 12 10 22l80 88q28 28 48 28q25 0 49 -13.5t24 -28.5q0 -14 -19 -28zM311 278h196l84 315h-21zM572 700h480q22 0 38.5 -16t16.5 -39t-16 -39t-39 -16h-339l-49 -183h264q23 0 39.5 -16t16.5 -39q0 -22 -16.5 -38
t-39.5 -16h-293l-51 -188h315q23 0 39 -16t16 -39t-16 -39t-39 -16h-396q-31 0 -45.5 21.5t-4.5 56.5l25 91h-256l-113 -138q-31 -36 -62 -36q-22 0 -34.5 12t-12.5 32q0 25 19 48l469 566q40 47 84 47z" />
    <glyph glyph-name="aeacute" unicode="&#x1fd;" horiz-adv-x="948" 
d="M706 681l-85 -64q-37 -27 -74 -27q-33 0 -33 23q0 12 10 22l80 88q28 28 48 28q25 0 49 -13.5t24 -28.5q0 -14 -19 -28zM262 246q-57 0 -93 -27t-36 -71q0 -33 24.5 -52.5t70.5 -19.5q45 0 92.5 22.5t86.5 62.5q-5 23 -5 46q0 9 1 13q-64 26 -141 26zM914 334
q0 -32 -6 -58q-12 -54 -60 -54h-339q-1 -3 -1 -10q3 -58 38 -91.5t98 -33.5q58 0 107 32q20 12 37 12q20 0 33.5 -13t13.5 -34q0 -26 -24 -41q-75 -55 -178 -55q-147 0 -204 110q-104 -109 -244 -109q-80 0 -126.5 39t-46.5 107q0 88 65.5 138.5t166.5 50.5q83 0 163 -26
l3 9q6 26 6 44q0 80 -117 80q-54 0 -104 -15q-10 -3 -21 -3q-21 0 -34.5 14t-13.5 35q0 36 38 48q75 25 159 25q142 0 181 -92q86 96 203 96q96 0 151.5 -58t55.5 -147zM520 302h275q4 18 4 37q0 44 -26 72.5t-79 28.5q-60 0 -106.5 -38.5t-67.5 -99.5z" />
    <glyph glyph-name="Oslashacute" unicode="&#x1fe;" horiz-adv-x="836" 
d="M200 302q0 -51 18 -93l404 340q-54 54 -143 54q-78 0 -143.5 -45.5t-100.5 -114.5t-35 -141zM403 96q78 0 143.5 46t100.5 115t35 141q0 46 -17 86l-402 -337q53 -51 140 -51zM171 69l-72 -60q-21 -19 -42 -19q-17 0 -27 10t-10 25q0 19 25 42l75 63q-44 71 -44 165
q0 106 52.5 201.5t149 155.5t213.5 60q134 0 223 -84l76 64q22 18 42 18q18 0 27.5 -10t9.5 -25q0 -19 -25 -42l-80 -68q42 -72 42 -160q0 -106 -52.5 -201.5t-149.5 -155.5t-214 -60q-130 0 -219 81zM720 854l-85 -64q-37 -27 -74 -27q-33 0 -33 23q0 12 10 22l80 88
q28 28 48 28q25 0 49 -13.5t24 -28.5q0 -14 -19 -28z" />
    <glyph glyph-name="oslashacute" unicode="&#x1ff;" horiz-adv-x="646" 
d="M300 89q75 0 130 64t55 141q0 30 -10 58l-262 -237q34 -26 87 -26zM161 233q0 -28 8 -54l260 234q-31 25 -83 25q-75 0 -130 -64.5t-55 -140.5zM132 40l-37 -33q-19 -17 -40 -17q-16 0 -26.5 9.5t-10.5 24.5q0 18 20 38l42 35q-35 54 -35 132q0 122 91 216t217 94
q93 0 156 -50l37 33q21 17 40 17q16 0 26.5 -9.5t10.5 -24.5q0 -18 -20 -38l-39 -33q37 -60 37 -137q0 -122 -91.5 -215.5t-216.5 -93.5q-95 0 -161 52zM575 681l-85 -64q-37 -27 -74 -27q-33 0 -33 23q0 12 10 22l80 88q28 28 48 28q25 0 49 -13.5t24 -28.5q0 -14 -19 -28z
" />
    <glyph glyph-name="Scommaaccent" unicode="&#x218;" horiz-adv-x="637" 
d="M201 -169q-47 10 -47 45q0 25 19 44t49 19q27 0 42.5 -15.5t15.5 -43.5q0 -59 -46 -103q-50 -52 -115 -52q-23 0 -23 19q0 17 27 23q67 14 78 64zM303 99q59 0 97 27t38 70q0 32 -27.5 54.5t-101.5 51.5q-90 36 -135 78t-45 110q0 97 77 158.5t192 61.5q126 0 217 -69
q28 -21 28 -52q0 -25 -17.5 -42.5t-42.5 -17.5q-23 0 -36 13q-71 59 -158 59q-59 0 -94.5 -27.5t-35.5 -64.5q0 -33 28.5 -54.5t107.5 -52.5q88 -34 131 -76.5t43 -111.5q0 -100 -79.5 -162t-193.5 -62q-165 0 -260 90q-24 20 -24 51q0 26 17 44t43 18q23 0 41 -16
q45 -42 88 -60t102 -18z" />
    <glyph glyph-name="scommaaccent" unicode="&#x219;" horiz-adv-x="499" 
d="M131 -166q-47 10 -47 45q0 25 19 44t49 19q27 0 42.5 -15.5t15.5 -43.5q0 -59 -46 -103q-50 -52 -115 -52q-23 0 -23 19q0 17 27 23q67 14 78 64zM227 83q36 0 60 17t24 46q0 19 -18 34t-59 32q-78 32 -115 63.5t-37 87.5q0 76 57 126t150 50q90 0 170 -50q28 -16 28 -46
q0 -22 -14.5 -37.5t-36.5 -15.5q-14 0 -33 12q-61 42 -123 42q-38 0 -59.5 -17t-21.5 -43q0 -20 19 -35t65 -34q71 -30 108 -62.5t37 -85.5q0 -81 -59.5 -130t-151.5 -49q-112 0 -204 69q-22 16 -22 43q0 22 14.5 37t34.5 15q18 0 35 -13q70 -56 152 -56z" />
    <glyph glyph-name="schwa" unicode="&#x259;" horiz-adv-x="600" 
d="M303 441q-59 0 -106 -32q-22 -12 -38 -12q-20 0 -33 13t-13 34q0 26 23 41q75 55 179 55q110 0 175 -62.5t65 -168.5q0 -79 -38.5 -152t-111.5 -120.5t-161 -47.5q-99 0 -155 58t-56 147q0 24 6 58q12 54 60 54h340v10q-2 58 -37.5 91.5t-98.5 33.5zM427 226h-274
q-5 -15 -5 -37q0 -44 26.5 -72.5t78.5 -28.5q60 0 107 38.5t67 99.5z" />
    <glyph glyph-name="circumflex" unicode="&#x2c6;" horiz-adv-x="500" 
d="M449 714l41 -78q11 -18 11 -26q0 -20 -28 -20q-25 0 -40 4.5t-31 22.5l-39 45l-64 -45q-39 -27 -77 -27q-26 0 -26 19q0 11 14 27l86 81q29 29 64 29h33q40 0 56 -32z" />
    <glyph glyph-name="caron" unicode="&#x2c7;" horiz-adv-x="500" 
d="M265 623l-41 78q-10 20 -10 26q0 20 28 20q25 0 40 -5t31 -23l38 -44l65 45q40 27 76 27q27 0 27 -19q0 -13 -14 -27l-86 -81q-29 -29 -64 -29h-33q-40 0 -57 32z" />
    <glyph glyph-name="breve" unicode="&#x2d8;" horiz-adv-x="500" 
d="M353 593q-64 0 -104.5 33t-40.5 78q0 19 13 31t31 12q28 0 40 -24q18 -45 72 -45q48 0 84 45q21 24 44 24q17 0 27.5 -10t10.5 -26q0 -15 -11 -29q-27 -39 -70 -64t-96 -25z" />
    <glyph glyph-name="dotaccent" unicode="&#x2d9;" horiz-adv-x="500" 
d="M367 720q28 0 45 -17.5t11 -41.5l-4 -16q-6 -24 -27 -40t-48 -16q-29 0 -46 17.5t-11 41.5l4 16q7 25 28 40.5t48 15.5z" />
    <glyph glyph-name="ring" unicode="&#x2da;" horiz-adv-x="500" 
d="M357 594q-48 0 -76.5 27.5t-28.5 69.5q0 51 37 87.5t89 36.5q48 0 76.5 -27.5t28.5 -69.5q0 -50 -37 -87t-89 -37zM358 642q30 0 50 22.5t20 52.5q0 22 -14 36t-37 14q-30 0 -50 -22.5t-20 -52.5q0 -22 14 -36t37 -14z" />
    <glyph glyph-name="ogonek" unicode="&#x2db;" horiz-adv-x="500" 
d="M193 -167q-49 0 -76.5 18.5t-27.5 48.5q0 49 84 112l77 -5q-63 -54 -63 -82q0 -12 8.5 -18t28.5 -11q28 -9 27 -30q-2 -33 -58 -33z" />
    <glyph glyph-name="tilde" unicode="&#x2dc;" horiz-adv-x="500" 
d="M200 591q-15 0 -25.5 9.5t-10.5 24.5q0 13 8 26q52 93 123 93q37 0 75 -31q36 -27 52 -27q27 0 53 37q17 20 38 20q15 0 25 -9t10 -24q0 -14 -7 -27q-53 -92 -123 -92q-37 0 -76 31q-36 27 -51 27q-26 0 -54 -37q-16 -21 -37 -21z" />
    <glyph glyph-name="hungarumlaut" unicode="&#x2dd;" horiz-adv-x="500" 
d="M308 751q23 0 40.5 -12.5t17.5 -29.5q0 -14 -19 -29l-83 -63q-37 -27 -67 -27q-28 0 -28 22q0 13 11 23l80 88q26 28 48 28zM491 751q23 0 40.5 -12.5t17.5 -29.5q0 -14 -19 -29l-83 -63q-37 -27 -67 -27q-28 0 -28 22q0 13 10 23l80 88q28 28 49 28z" />
    <glyph glyph-name="commaaccent" unicode="&#x326;" horiz-adv-x="500" 
d="M133 -166q-47 10 -47 45q0 25 19 44t49 19q27 0 42.5 -15.5t15.5 -43.5q0 -59 -46 -103q-50 -52 -115 -52q-23 0 -23 19q0 17 27 23q67 14 78 64z" />
    <glyph glyph-name="Wgrave" unicode="&#x1e80;" horiz-adv-x="1098" 
d="M1145 621l-364 -580q-31 -51 -82 -51h-5q-54 0 -57 55l-33 447l-274 -451q-32 -51 -80 -51h-6q-52 0 -57 55l-51 574q-2 16 -2 29q0 24 18 40.5t46 16.5q27 0 43.5 -14t17.5 -38l34 -472l284 478q27 48 70 48h7q52 0 55 -49l31 -477l292 483q25 41 67 41q25 0 41 -13.5
t16 -36.5q0 -14 -11 -34zM603 780l-51 64q-12 17 -12 27q0 15 23 28.5t48 13.5q35 0 45 -31l32 -85q4 -9 4 -18q0 -26 -38 -26q-18 0 -28.5 5.5t-22.5 21.5z" />
    <glyph glyph-name="wgrave" unicode="&#x1e81;" horiz-adv-x="853" 
d="M117 47l-28 399q-2 18 -2 30q0 24 19 41t43 17q27 0 43.5 -14.5t17.5 -38.5l15 -313l188 318q27 48 71 48h6q51 0 54 -49l18 -318l195 329q21 38 58 38q23 0 36 -12.5t13 -33.5q0 -15 -11 -35l-252 -413q-28 -49 -78 -49h-4q-53 0 -56 56l-19 310l-189 -316
q-29 -50 -78 -50h-4q-53 0 -56 56zM440 617l-51 64q-12 17 -12 27q0 15 23 28.5t48 13.5q35 0 45 -31l32 -85q4 -9 4 -18q0 -26 -38 -26q-18 0 -28.5 5.5t-22.5 21.5z" />
    <glyph glyph-name="Wacute" unicode="&#x1e82;" horiz-adv-x="1098" 
d="M836 844l-85 -64q-37 -27 -74 -27q-33 0 -33 23q0 12 10 22l80 88q28 28 48 28q25 0 49 -13.5t24 -28.5q0 -14 -19 -28zM1145 621l-364 -580q-31 -51 -82 -51h-5q-54 0 -57 55l-33 447l-274 -451q-32 -51 -80 -51h-6q-52 0 -57 55l-51 574q-2 16 -2 29q0 24 18 40.5
t46 16.5q27 0 43.5 -14t17.5 -38l34 -472l284 478q27 48 70 48h7q52 0 55 -49l31 -477l292 483q25 41 67 41q25 0 41 -13.5t16 -36.5q0 -14 -11 -34z" />
    <glyph glyph-name="wacute" unicode="&#x1e83;" horiz-adv-x="853" 
d="M673 681l-85 -64q-37 -27 -74 -27q-33 0 -33 23q0 12 10 22l80 88q28 28 48 28q25 0 49 -13.5t24 -28.5q0 -14 -19 -28zM117 47l-28 399q-2 18 -2 30q0 24 19 41t43 17q27 0 43.5 -14.5t17.5 -38.5l15 -313l188 318q27 48 71 48h6q51 0 54 -49l18 -318l195 329
q21 38 58 38q23 0 36 -12.5t13 -33.5q0 -15 -11 -35l-252 -413q-28 -49 -78 -49h-4q-53 0 -56 56l-19 310l-189 -316q-29 -50 -78 -50h-4q-53 0 -56 56z" />
    <glyph glyph-name="Wdieresis" unicode="&#x1e84;" horiz-adv-x="1098" 
d="M597 883q28 0 44.5 -17.5t10.5 -41.5l-4 -16q-6 -24 -26.5 -40t-47.5 -16q-29 0 -45.5 17.5t-10.5 41.5l4 16q7 25 27.5 40.5t47.5 15.5zM796 883q28 0 44.5 -17.5t10.5 -41.5l-4 -16q-6 -24 -26.5 -40t-47.5 -16q-29 0 -45.5 17.5t-10.5 41.5l4 16q7 25 27.5 40.5
t47.5 15.5zM1145 621l-364 -580q-31 -51 -82 -51h-5q-54 0 -57 55l-33 447l-274 -451q-32 -51 -80 -51h-6q-52 0 -57 55l-51 574q-2 16 -2 29q0 24 18 40.5t46 16.5q27 0 43.5 -14t17.5 -38l34 -472l284 478q27 48 70 48h7q52 0 55 -49l31 -477l292 483q25 41 67 41
q25 0 41 -13.5t16 -36.5q0 -14 -11 -34z" />
    <glyph glyph-name="wdieresis" unicode="&#x1e85;" horiz-adv-x="853" 
d="M435 720q28 0 44.5 -17.5t10.5 -41.5l-4 -16q-6 -24 -26.5 -40t-47.5 -16q-29 0 -45.5 17.5t-10.5 41.5l4 16q7 25 27.5 40.5t47.5 15.5zM634 720q28 0 44.5 -17.5t10.5 -41.5l-4 -16q-6 -24 -26.5 -40t-47.5 -16q-29 0 -45.5 17.5t-10.5 41.5l4 16q7 25 27.5 40.5
t47.5 15.5zM117 47l-28 399q-2 18 -2 30q0 24 19 41t43 17q27 0 43.5 -14.5t17.5 -38.5l15 -313l188 318q27 48 71 48h6q51 0 54 -49l18 -318l195 329q21 38 58 38q23 0 36 -12.5t13 -33.5q0 -15 -11 -35l-252 -413q-28 -49 -78 -49h-4q-53 0 -56 56l-19 310l-189 -316
q-29 -50 -78 -50h-4q-53 0 -56 56z" />
    <glyph glyph-name="Ygrave" unicode="&#x1ef2;" horiz-adv-x="655" 
d="M382 261l-55 -206q-8 -28 -26.5 -44t-42.5 -16q-31 0 -45.5 21t-4.5 58l54 200l-138 327q-12 28 -12 46q0 25 18.5 41.5t47.5 16.5q43 0 60 -48l108 -276l270 290q33 35 67 35q24 0 38 -13.5t14 -37.5q0 -27 -22 -49zM379 780l-51 64q-12 17 -12 27q0 15 23 28.5t48 13.5
q35 0 45 -31l32 -85q4 -9 4 -18q0 -26 -38 -26q-18 0 -28.5 5.5t-22.5 21.5z" />
    <glyph glyph-name="ygrave" unicode="&#x1ef3;" horiz-adv-x="585" 
d="M30 -48q31 -12 53 -12q43 0 85 59l-74 447q-2 18 -2 30q0 25 17 41.5t43 16.5q25 0 41.5 -14.5t18.5 -39.5l47 -346l220 360q23 40 63 40q24 0 38.5 -13t14.5 -35q0 -16 -16 -42l-296 -459q-53 -81 -102.5 -114.5t-112.5 -33.5q-47 0 -77 15q-37 16 -37 53
q0 22 14.5 37.5t34.5 15.5q7 0 27 -6zM298 617l-51 64q-12 17 -12 27q0 15 23 28.5t48 13.5q35 0 45 -31l32 -85q4 -9 4 -18q0 -26 -38 -26q-18 0 -28.5 5.5t-22.5 21.5z" />
    <glyph glyph-name="enspace" unicode="&#x2002;" horiz-adv-x="500" 
 />
    <glyph glyph-name="emspace" unicode="&#x2003;" horiz-adv-x="1000" 
 />
    <glyph glyph-name="threeperemspace" unicode="&#x2004;" horiz-adv-x="333" 
 />
    <glyph glyph-name="fourperemspace" unicode="&#x2005;" horiz-adv-x="250" 
 />
    <glyph glyph-name="thinspace" unicode="&#x2009;" horiz-adv-x="133" 
 />
    <glyph glyph-name="hairspace" unicode="&#x200a;" horiz-adv-x="75" 
 />
    <glyph glyph-name="endash" unicode="&#x2013;" horiz-adv-x="530" 
d="M123 249q-25 0 -42 16.5t-17 40.5t17 41t42 17h308q24 0 41.5 -17t17.5 -41t-17.5 -40.5t-41.5 -16.5h-308z" />
    <glyph glyph-name="emdash" unicode="&#x2014;" horiz-adv-x="900" 
d="M123 249q-25 0 -42 16.5t-17 40.5t17 41t42 17h678q24 0 41.5 -17t17.5 -41t-17.5 -40.5t-41.5 -16.5h-678z" />
    <glyph glyph-name="quoteleft" unicode="&#x2018;" horiz-adv-x="293" 
d="M187 417q-35 0 -50.5 24t-7.5 64l4 17q21 88 79 136q47 41 106 46q31 1 31 -27q0 -22 -28 -28q-85 -21 -94 -89q50 -13 39 -65l-3 -14q-7 -29 -27.5 -46.5t-48.5 -17.5z" />
    <glyph glyph-name="quoteright" unicode="&#x2019;" horiz-adv-x="293" 
d="M247 705q35 0 50.5 -24t7.5 -64l-4 -17q-21 -88 -79 -136q-47 -41 -106 -46q-31 -1 -31 27q0 22 28 28q85 21 94 89q-50 13 -39 65l3 14q7 29 27.5 46.5t48.5 17.5z" />
    <glyph glyph-name="quotesinglbase" unicode="&#x201a;" horiz-adv-x="293" 
d="M103 143q35 0 50.5 -24t7.5 -64l-4 -17q-21 -88 -79 -136q-47 -41 -106 -46q-31 -1 -31 27q0 22 28 28q85 21 94 89q-50 13 -39 65l3 14q7 29 27.5 46.5t48.5 17.5z" />
    <glyph glyph-name="quotedblleft" unicode="&#x201c;" horiz-adv-x="524" 
d="M187 417q-35 0 -50.5 24t-7.5 64l4 17q21 88 79 136q47 41 106 46q31 1 31 -27q0 -22 -28 -28q-85 -21 -94 -89q50 -13 39 -65l-3 -14q-7 -29 -27.5 -46.5t-48.5 -17.5zM419 417q-35 0 -50.5 24t-7.5 64l4 17q21 88 79 136q47 41 106 46q31 1 31 -27q0 -22 -28 -28
q-85 -21 -94 -89q50 -13 39 -65l-3 -14q-7 -29 -27.5 -46.5t-48.5 -17.5z" />
    <glyph glyph-name="quotedblright" unicode="&#x201d;" horiz-adv-x="524" 
d="M479 705q35 0 50.5 -24t7.5 -64l-4 -17q-21 -88 -79 -136q-47 -41 -106 -46q-31 -1 -31 27q0 22 28 28q85 21 94 89q-50 13 -39 65l3 14q7 29 27.5 46.5t48.5 17.5zM247 705q35 0 50.5 -24t7.5 -64l-4 -17q-21 -88 -79 -136q-47 -41 -106 -46q-31 -1 -31 27q0 22 28 28
q85 21 94 89q-50 13 -39 65l3 14q7 29 27.5 46.5t48.5 17.5z" />
    <glyph glyph-name="quotedblbase" unicode="&#x201e;" horiz-adv-x="525" 
d="M335 143q35 0 50.5 -24t7.5 -64l-4 -17q-21 -88 -79 -136q-47 -41 -106 -46q-31 -1 -31 27q0 22 28 28q85 21 94 89q-50 13 -39 65l3 14q7 29 27.5 46.5t48.5 17.5zM103 143q35 0 50.5 -24t7.5 -64l-4 -17q-21 -88 -79 -136q-47 -41 -106 -46q-31 -1 -31 27q0 22 28 28
q85 21 94 89q-50 13 -39 65l3 14q7 29 27.5 46.5t48.5 17.5z" />
    <glyph glyph-name="dagger" unicode="&#x2020;" horiz-adv-x="411" 
d="M341 655l-31 -89l82 6q15 1 26 -8.5t11 -24.5t-10.5 -25t-26.5 -9l-98 8l-58 -245q-9 -35 -39 -35q-17 0 -25.5 12t-2.5 32l70 236l-82 -6q-16 -1 -26.5 8.5t-10.5 24.5t10.5 25t25.5 9l97 -8l18 101q8 38 41 38q21 0 29 -13.5t0 -36.5z" />
    <glyph glyph-name="daggerdbl" unicode="&#x2021;" horiz-adv-x="417" 
d="M262 350l-52 -163l82 6q16 1 26.5 -8.5t10.5 -24.5t-10.5 -25t-25.5 -9l-96 8l-20 -101q-6 -38 -40 -38q-21 0 -29 13.5t0 36.5l32 89l-84 -6q-15 -1 -25.5 9t-10.5 24q0 15 10.5 25t26.5 9l97 -8l36 163l51 163l-81 -6q-16 -1 -26.5 8.5t-10.5 24.5t10.5 25t25.5 9
l97 -8l18 101q8 38 41 38q21 0 29 -13.5t0 -36.5l-31 -89l82 6q15 1 26 -8.5t11 -24.5t-10.5 -25t-26.5 -9l-97 8z" />
    <glyph glyph-name="bullet" unicode="&#x2022;" horiz-adv-x="491" 
d="M242 207q-52 0 -82.5 30.5t-30.5 83.5q0 69 46.5 123.5t114.5 54.5q52 0 82 -31t30 -83q0 -69 -46.5 -123.5t-113.5 -54.5z" />
    <glyph glyph-name="ellipsis" unicode="&#x2026;" horiz-adv-x="815" 
d="M162 59q-5 -29 -27 -46.5t-53 -17.5q-32 0 -49 18.5t-12 46.5l4 16q6 29 27.5 46.5t52.5 17.5q32 0 49 -19t12 -47zM425 59q-5 -29 -27 -46.5t-53 -17.5q-32 0 -49 18.5t-12 46.5l4 16q6 29 27.5 46.5t52.5 17.5q32 0 49 -19t12 -47zM688 59q-5 -29 -27 -46.5t-53 -17.5
q-32 0 -49 18.5t-12 46.5l4 16q6 29 27.5 46.5t52.5 17.5q32 0 49 -19t12 -47z" />
    <glyph glyph-name="perthousand" unicode="&#x2030;" horiz-adv-x="1263" 
d="M236 346q-67 0 -108 42t-41 109q0 82 55.5 146.5t137.5 64.5q66 0 107.5 -42.5t41.5 -108.5q0 -82 -55.5 -146.5t-137.5 -64.5zM628 -8q-66 0 -107.5 42.5t-41.5 108.5q0 83 55.5 147t137.5 64q67 0 108 -42t41 -108q0 -83 -55.5 -147.5t-137.5 -64.5zM241 420
q44 0 74 41.5t30 91.5q0 38 -18.5 59.5t-52.5 21.5q-44 0 -74 -42t-30 -91q0 -38 19 -59.5t52 -21.5zM633 66q44 0 74.5 42t30.5 91q0 38 -19 60t-52 22q-44 0 -74.5 -42t-30.5 -92q0 -37 19 -59t52 -22zM1028 -8q-66 0 -107.5 42.5t-41.5 108.5q0 83 55.5 147t137.5 64
q67 0 108 -42t41 -108q0 -83 -55.5 -147.5t-137.5 -64.5zM1034 66q44 0 74 42t30 91q0 38 -19 60t-52 22q-44 0 -74 -42t-30 -92q0 -37 19 -59t52 -22zM785 636l-602 -623q-18 -18 -37 -18q-16 0 -27 10t-11 26q0 18 15 33l602 624q18 18 37 18q16 0 27 -10.5t11 -26.5
t-15 -33z" />
    <glyph glyph-name="guilsinglleft" unicode="&#x2039;" horiz-adv-x="354" 
d="M67 281l176 173q29 25 49 25q21 0 33.5 -12t12.5 -33q0 -24 -18 -38l-155 -150l65 -130q8 -19 8 -32q0 -21 -15 -35t-37 -14q-32 0 -48 31l-74 147q-13 26 -13 36q0 18 16 32z" />
    <glyph glyph-name="guilsinglright" unicode="&#x203a;" horiz-adv-x="354" 
d="M285 240l-176 -173q-27 -25 -49 -25q-21 0 -33.5 12t-12.5 33q0 24 18 38l155 150l-65 130q-8 19 -8 32q0 21 15.5 35t36.5 14q32 0 48 -31l74 -147q13 -26 13 -36q0 -18 -16 -32z" />
    <glyph glyph-name="fraction" unicode="&#x2044;" horiz-adv-x="529" 
d="M621 678l-609 -749q-26 -32 -51 -32q-17 0 -28 10.5t-11 29.5q0 20 21 45l609 749q26 32 51 32q17 0 28 -10.5t11 -29.5q0 -20 -21 -45z" />
    <glyph glyph-name="Euro" unicode="&#x20ac;" horiz-adv-x="709" 
d="M306 480h176q18 0 30.5 -12.5t12.5 -30.5q0 -17 -12.5 -29.5t-30.5 -12.5h-208q-11 -31 -19 -84h182q18 0 30.5 -13t12.5 -30q0 -18 -12.5 -30.5t-30.5 -12.5h-183q8 -59 45 -92.5t92 -33.5q77 0 139 59q19 17 41 17q24 0 40.5 -15t16.5 -38q0 -27 -24 -47
q-96 -87 -215 -87q-110 0 -181.5 64t-81.5 173h-49q-18 0 -30.5 12.5t-12.5 30.5q0 17 12.5 30t30.5 13h50q5 46 16 84h-21q-18 0 -30.5 12.5t-12.5 29.5q0 18 12.5 30.5t30.5 12.5h47q44 104 130 168t196 64q151 0 219 -112q16 -26 16 -45q0 -25 -17.5 -41.5t-44.5 -16.5
q-31 0 -47 25q-22 38 -51 58.5t-83 20.5q-117 0 -181 -121z" />
    <glyph glyph-name="published" unicode="&#x2117;" horiz-adv-x="830" 
d="M436 -12q-151 0 -256 105.5t-105 254.5v2q0 149 106 255.5t257 106.5t256 -105.5t105 -254.5v-2q0 -149 -106 -255.5t-257 -106.5zM436 24q138 0 231.5 95.5t93.5 230.5v2q0 135 -93 229.5t-230 94.5q-138 0 -231 -95.5t-93 -230.5v-2q0 -135 92.5 -229.5t229.5 -94.5z
M308 199v311q0 15 11 26t26 11h116q68 0 107.5 -34.5t39.5 -93.5v-2q0 -62 -44 -96t-110 -34h-72v-88q0 -16 -10.5 -26.5t-26.5 -10.5q-15 0 -26 10.5t-11 26.5zM382 352h73q36 0 57 17.5t21 46.5v2q0 30 -20.5 46.5t-57.5 16.5h-73v-129z" />
    <glyph glyph-name="servicemark" unicode="&#x2120;" horiz-adv-x="705" 
d="M728 703h5q14 0 20 -10.5t2 -28.5l-68 -248q-8 -28 -32 -28q-14 0 -20.5 10t-1.5 27l46 167l-98 -105q-14 -16 -31 -16q-18 0 -26 18l-41 104l-49 -177q-8 -28 -31 -28q-15 0 -21.5 10t-1.5 27l68 248q8 30 32 30h5q18 0 27 -23l55 -142l126 146q16 19 35 19zM102 477
q10 0 21 -9q39 -34 84 -34q27 0 43.5 12t16.5 32q0 14 -11.5 24t-46.5 23q-44 18 -62.5 36.5t-18.5 46.5q0 43 34 70.5t87 27.5q60 0 96 -32q13 -10 13 -23q0 -11 -7 -18.5t-18 -7.5q-13 0 -21 8q-32 25 -69 25q-26 0 -42 -12t-16 -29q0 -15 12.5 -25t49.5 -24
q40 -16 58 -34t18 -47q0 -46 -34.5 -73.5t-86.5 -27.5q-70 0 -116 43q-11 9 -11 22q0 11 8 18.5t19 7.5z" />
    <glyph glyph-name="trademark" unicode="&#x2122;" horiz-adv-x="697" 
d="M272 646l-63 -231q-8 -28 -34 -28q-14 0 -21 10t-3 27l61 222h-64q-12 0 -20 8t-8 19t8 19t20 8h204q11 0 19 -8t8 -19t-8 -19t-19 -8h-80zM721 703h4q14 0 20.5 -10.5t2.5 -28.5l-68 -248q-9 -28 -32 -28q-14 0 -20.5 10t-1.5 27l45 167l-98 -105q-13 -16 -31 -16
t-26 18l-40 104l-49 -177q-8 -28 -32 -28q-15 0 -21 10t-1 27l68 248q6 30 32 30h4q18 0 27 -23l55 -142l126 146q17 19 36 19z" />
    <glyph glyph-name="minus" unicode="&#x2212;" horiz-adv-x="634" 
d="M537 295h-395q-24 0 -40.5 16.5t-16.5 39.5q0 24 16.5 40.5t40.5 16.5h395q23 0 40 -16.5t17 -40.5q0 -23 -17 -39.5t-40 -16.5z" />
    <glyph glyph-name="Q.alt" horiz-adv-x="836" 
d="M546 292l62 -85q70 84 70 191q0 88 -53.5 144.5t-145.5 56.5q-78 0 -142.5 -44.5t-98.5 -112.5t-34 -140q0 -89 53.5 -145t145.5 -56q63 0 119 32l-60 73q-22 31 -22 51q0 25 17.5 42.5t42.5 17.5q30 0 46 -25zM618 -2l-32 41q-91 -51 -196 -51q-139 0 -226.5 87.5
t-87.5 219.5q0 106 52.5 201.5t149 155.5t213.5 60q140 0 227.5 -87.5t87.5 -219.5q0 -83 -33.5 -161t-93.5 -137l26 -30q20 -23 20 -48t-16.5 -41.5t-41.5 -16.5q-33 0 -49 27z" />
    <glyph glyph-name="a.alt" 
d="M296 93q74 0 132 63t58 146q0 58 -37.5 95.5t-96.5 37.5q-74 0 -128 -62t-54 -150q0 -60 34.5 -95t91.5 -35zM516 434l11 39q16 61 67 61q31 0 44.5 -21.5t3.5 -57.5l-106 -400q-16 -60 -70 -60q-26 0 -40 14.5t-13 38.5l6 22q-81 -81 -169 -81q-90 0 -148 61.5
t-58 164.5q0 137 88.5 230.5t205.5 93.5q121 0 178 -105z" />
    <glyph glyph-name="aacute.alt" 
d="M585 681l-85 -64q-37 -27 -74 -27q-33 0 -33 23q0 12 10 22l80 88q28 28 48 28q25 0 49 -13.5t24 -28.5q0 -14 -19 -28zM296 93q74 0 132 63t58 146q0 58 -37.5 95.5t-96.5 37.5q-74 0 -128 -62t-54 -150q0 -60 34.5 -95t91.5 -35zM516 434l11 39q16 61 67 61
q31 0 44.5 -21.5t3.5 -57.5l-106 -400q-16 -60 -70 -60q-26 0 -40 14.5t-13 38.5l6 22q-81 -81 -169 -81q-90 0 -148 61.5t-58 164.5q0 137 88.5 230.5t205.5 93.5q121 0 178 -105z" />
    <glyph glyph-name="abreve.alt" 
d="M296 93q74 0 132 63t58 146q0 58 -37.5 95.5t-96.5 37.5q-74 0 -128 -62t-54 -150q0 -60 34.5 -95t91.5 -35zM516 434l11 39q16 61 67 61q31 0 44.5 -21.5t3.5 -57.5l-106 -400q-16 -60 -70 -60q-26 0 -40 14.5t-13 38.5l6 22q-81 -81 -169 -81q-90 0 -148 61.5
t-58 164.5q0 137 88.5 230.5t205.5 93.5q121 0 178 -105zM431 593q-64 0 -104.5 33t-40.5 78q0 19 13 31t31 12q28 0 40 -24q18 -45 72 -45q48 0 84 45q21 24 44 24q17 0 27.5 -10t10.5 -26q0 -15 -11 -29q-27 -39 -70 -64t-96 -25z" />
    <glyph glyph-name="acircumflex.alt" 
d="M523 714l41 -78q11 -18 11 -26q0 -20 -28 -20q-25 0 -40 4.5t-31 22.5l-39 45l-64 -45q-39 -27 -77 -27q-26 0 -26 19q0 11 14 27l86 81q29 29 64 29h33q40 0 56 -32zM296 93q74 0 132 63t58 146q0 58 -37.5 95.5t-96.5 37.5q-74 0 -128 -62t-54 -150q0 -60 34.5 -95
t91.5 -35zM516 434l11 39q16 61 67 61q31 0 44.5 -21.5t3.5 -57.5l-106 -400q-16 -60 -70 -60q-26 0 -40 14.5t-13 38.5l6 22q-81 -81 -169 -81q-90 0 -148 61.5t-58 164.5q0 137 88.5 230.5t205.5 93.5q121 0 178 -105z" />
    <glyph glyph-name="adieresis.alt" 
d="M347 720q28 0 44.5 -17.5t10.5 -41.5l-4 -16q-6 -24 -26.5 -40t-47.5 -16q-29 0 -45.5 17.5t-10.5 41.5l4 16q7 25 27.5 40.5t47.5 15.5zM546 720q28 0 44.5 -17.5t10.5 -41.5l-4 -16q-6 -24 -26.5 -40t-47.5 -16q-29 0 -45.5 17.5t-10.5 41.5l4 16q7 25 27.5 40.5
t47.5 15.5zM296 93q74 0 132 63t58 146q0 58 -37.5 95.5t-96.5 37.5q-74 0 -128 -62t-54 -150q0 -60 34.5 -95t91.5 -35zM516 434l11 39q16 61 67 61q31 0 44.5 -21.5t3.5 -57.5l-106 -400q-16 -60 -70 -60q-26 0 -40 14.5t-13 38.5l6 22q-81 -81 -169 -81q-90 0 -148 61.5
t-58 164.5q0 137 88.5 230.5t205.5 93.5q121 0 178 -105z" />
    <glyph glyph-name="agrave.alt" 
d="M296 93q74 0 132 63t58 146q0 58 -37.5 95.5t-96.5 37.5q-74 0 -128 -62t-54 -150q0 -60 34.5 -95t91.5 -35zM516 434l11 39q16 61 67 61q31 0 44.5 -21.5t3.5 -57.5l-106 -400q-16 -60 -70 -60q-26 0 -40 14.5t-13 38.5l6 22q-81 -81 -169 -81q-90 0 -148 61.5
t-58 164.5q0 137 88.5 230.5t205.5 93.5q121 0 178 -105zM351 617l-51 64q-12 17 -12 27q0 15 23 28.5t48 13.5q35 0 45 -31l32 -85q4 -9 4 -18q0 -26 -38 -26q-18 0 -28.5 5.5t-22.5 21.5z" />
    <glyph glyph-name="amacron.alt" 
d="M296 93q74 0 132 63t58 146q0 58 -37.5 95.5t-96.5 37.5q-74 0 -128 -62t-54 -150q0 -60 34.5 -95t91.5 -35zM516 434l11 39q16 61 67 61q31 0 44.5 -21.5t3.5 -57.5l-106 -400q-16 -60 -70 -60q-26 0 -40 14.5t-13 38.5l6 22q-81 -81 -169 -81q-90 0 -148 61.5
t-58 164.5q0 137 88.5 230.5t205.5 93.5q121 0 178 -105zM566 606h-265q-18 0 -31 13t-13 31t13 31t31 13h265q19 0 32 -13t13 -31t-13 -31t-32 -13z" />
    <glyph glyph-name="aogonek.alt" 
d="M296 93q74 0 132 63t58 146q0 58 -37.5 95.5t-96.5 37.5q-74 0 -128 -62t-54 -150q0 -60 34.5 -95t91.5 -35zM516 434l11 39q16 61 67 61q31 0 44.5 -21.5t3.5 -57.5l-106 -400q-8 -27 -30 -49q-61 -54 -61 -81q0 -12 8.5 -18t28.5 -11q28 -9 27 -30q-2 -33 -58 -33
q-49 0 -76.5 18.5t-27.5 48.5q0 50 81 110q-15 13 -15 38l6 22q-81 -81 -169 -81q-90 0 -148 61.5t-58 164.5q0 137 88.5 230.5t205.5 93.5q121 0 178 -105z" />
    <glyph glyph-name="aring.alt" 
d="M437 594q-48 0 -76.5 27.5t-28.5 69.5q0 51 37 87.5t89 36.5q48 0 76.5 -27.5t28.5 -69.5q0 -50 -37 -87t-89 -37zM438 642q30 0 50 22.5t20 52.5q0 22 -14 36t-37 14q-30 0 -50 -22.5t-20 -52.5q0 -22 14 -36t37 -14zM296 93q74 0 132 63t58 146q0 58 -37.5 95.5
t-96.5 37.5q-74 0 -128 -62t-54 -150q0 -60 34.5 -95t91.5 -35zM516 434l11 39q16 61 67 61q31 0 44.5 -21.5t3.5 -57.5l-106 -400q-16 -60 -70 -60q-26 0 -40 14.5t-13 38.5l6 22q-81 -81 -169 -81q-90 0 -148 61.5t-58 164.5q0 137 88.5 230.5t205.5 93.5q121 0 178 -105z
" />
    <glyph glyph-name="aring.alt2" horiz-adv-x="583" 
d="M391 -5q-57 0 -51 56l5 19q-73 -81 -174 -81q-69 0 -114 40t-45 104q0 89 64.5 140t166.5 51q77 0 164 -26l3 9q6 26 6 44q0 80 -117 80q-51 0 -104 -15q-10 -3 -21 -3q-21 0 -34.5 14t-13.5 35q0 36 38 48q57 18 109 22q-14 21 -14 50q0 51 37 88t89 37q48 0 76.5 -28
t28.5 -70q0 -58 -50 -95q94 -38 94 -142q0 -29 -11 -77l-64 -240q-17 -60 -68 -60zM219 76q55 0 101.5 36.5t61.5 89.5l7 24q-62 20 -128 20q-57 0 -92.5 -27t-35.5 -72q0 -32 23.5 -51.5t62.5 -19.5zM365 533q30 0 50 22.5t20 52.5q0 22 -14 36t-37 14q-30 0 -50 -22.5
t-20 -52.5q0 -22 14 -36t37 -14z" />
    <glyph glyph-name="aringacute.alt" 
d="M637 934l-85 -64q-37 -27 -74 -27q-33 0 -33 23q0 12 10 22l80 88q28 28 48 28q25 0 49 -13.5t24 -28.5q0 -14 -19 -28zM437 594q-48 0 -76.5 27.5t-28.5 69.5q0 51 37 87.5t89 36.5q48 0 76.5 -27.5t28.5 -69.5q0 -50 -37 -87t-89 -37zM438 642q30 0 50 22.5t20 52.5
q0 22 -14 36t-37 14q-30 0 -50 -22.5t-20 -52.5q0 -22 14 -36t37 -14zM296 93q74 0 132 63t58 146q0 58 -37.5 95.5t-96.5 37.5q-74 0 -128 -62t-54 -150q0 -60 34.5 -95t91.5 -35zM516 434l11 39q16 61 67 61q31 0 44.5 -21.5t3.5 -57.5l-106 -400q-16 -60 -70 -60
q-26 0 -40 14.5t-13 38.5l6 22q-81 -81 -169 -81q-90 0 -148 61.5t-58 164.5q0 137 88.5 230.5t205.5 93.5q121 0 178 -105z" />
    <glyph glyph-name="aringacute.alt2" horiz-adv-x="583" 
d="M391 -5q-57 0 -51 56l5 19q-73 -81 -174 -81q-69 0 -114 40t-45 104q0 89 64.5 140t166.5 51q77 0 164 -26l3 9q6 26 6 44q0 80 -117 80q-51 0 -104 -15q-10 -3 -21 -3q-21 0 -34.5 14t-13.5 35q0 36 38 48q57 18 109 22q-14 21 -14 50q0 51 37 88t89 37q48 0 76.5 -28
t28.5 -70q0 -58 -50 -95q94 -38 94 -142q0 -29 -11 -77l-64 -240q-17 -60 -68 -60zM219 76q55 0 101.5 36.5t61.5 89.5l7 24q-62 20 -128 20q-57 0 -92.5 -27t-35.5 -72q0 -32 23.5 -51.5t62.5 -19.5zM365 533q30 0 50 22.5t20 52.5q0 22 -14 36t-37 14q-30 0 -50 -22.5
t-20 -52.5q0 -22 14 -36t37 -14zM563 825l-85 -64q-37 -27 -74 -27q-33 0 -33 23q0 12 10 22l80 88q28 28 48 28q25 0 49 -13.5t24 -28.5q0 -14 -19 -28z" />
    <glyph glyph-name="atilde.alt" 
d="M296 93q74 0 132 63t58 146q0 58 -37.5 95.5t-96.5 37.5q-74 0 -128 -62t-54 -150q0 -60 34.5 -95t91.5 -35zM516 434l11 39q16 61 67 61q31 0 44.5 -21.5t3.5 -57.5l-106 -400q-16 -60 -70 -60q-26 0 -40 14.5t-13 38.5l6 22q-81 -81 -169 -81q-90 0 -148 61.5
t-58 164.5q0 137 88.5 230.5t205.5 93.5q121 0 178 -105zM279 591q-15 0 -25.5 9.5t-10.5 24.5q0 13 8 26q52 93 123 93q37 0 75 -31q36 -27 52 -27q27 0 53 37q17 20 38 20q15 0 25 -9t10 -24q0 -14 -7 -27q-53 -92 -123 -92q-37 0 -76 31q-36 27 -51 27q-26 0 -54 -37
q-16 -21 -37 -21z" />
    <glyph glyph-name="three.alt" horiz-adv-x="615" 
d="M109 163q62 -64 157 -64q68 0 108.5 32.5t40.5 77.5q0 46 -37 69.5t-104 23.5h-2q-24 0 -39 14.5t-15 36.5q0 21 15 36.5t36 15.5h36q77 0 124.5 29t47.5 80q0 39 -32 63t-81 24q-72 0 -134 -46q-22 -16 -42 -16q-23 0 -38 14.5t-15 36.5q0 25 20 42q52 41 98.5 59
t122.5 20q101 4 164.5 -48t63.5 -131q0 -138 -172 -182q47 -16 77.5 -53t30.5 -91q0 -93 -79 -155.5t-204 -62.5q-145 0 -230 88q-21 23 -21 47t17 41.5t41 17.5t45 -19z" />
    <glyph glyph-name="registered.alt" horiz-adv-x="830" 
d="M436 -12q-151 0 -256 105.5t-105 254.5v2q0 149 106 255.5t257 106.5t256 -105.5t105 -254.5v-2q0 -149 -106 -255.5t-257 -106.5zM436 24q138 0 231.5 95.5t93.5 230.5v2q0 135 -93 229.5t-230 94.5q-138 0 -231 -95.5t-93 -230.5v-2q0 -135 92.5 -229.5t229.5 -94.5z
M291 201v313q0 15 10.5 25.5t25.5 10.5h133q74 0 116 -40q30 -32 30 -80v-2q0 -85 -84 -113l73 -90q9 -10 9 -25q0 -14 -10 -24.5t-24 -10.5q-17 0 -31 17l-95 120h-80v-101q0 -15 -11 -25.5t-26 -10.5t-25.5 10.5t-10.5 25.5zM364 365h93q35 0 55.5 16t20.5 44v1
q0 28 -20 43.5t-56 15.5h-93v-120z" />
    <glyph glyph-name="NUL" horiz-adv-x="0" 
 />
    <glyph glyph-name="hfjslug" horiz-adv-x="694" 
d="M644 -200h-208l-8 14h-163l-8 -14h-207v303q14 0 23 9.5t9 22.5t-9.5 22.5t-22.5 9.5v554h100l30 79h334l29 -79h101v-921zM400 563v-172h15v78h38v14h-38v66h43v14h-58zM184 563v-172h15v79h47v-79h15v172h-15v-79h-47v79h-15zM460 394q10 -4 21 -4q31 0 31 36v137h-16
v-137q0 -22 -16 -22q-8 0 -20 5v-15zM371 465l-13 3q-4 -18 -8 -30h-1l-16 31q23 21 23 42q0 31 -27 31q-12 0 -20 -9t-8 -22t14 -39q-23 -18 -23 -47q0 -16 8 -26.5t21 -10.5q19 0 29 24h1l12 -24l12 6l-17 32q6 14 13 39zM523 323v-46h8v12l8 8l15 -20h10l-20 26l18 20
h-10l-20 -24h-1v24h-8zM488 292l10 -15h9l-12 17q10 4 10 14q0 15 -17 15h-20v-46h8v15h12zM426 276q10 0 17 7t7 17q0 9 -7 16.5t-17 7.5t-17 -7.5t-7 -16.5q0 -10 7 -17t17 -7zM370 301l-13 22h-9l18 -29v-17h8v17l18 29h-9zM193 323v-46h34v7h-26v13h23v7h-23v12h26v7
h-34zM132 323v-46h8v32l25 -32h7v46h-8v-32l-25 32h-7zM241 323l14 -47h8l11 34h1l11 -34h8l14 47h-8l-10 -35h-1l-11 35h-7l-11 -35h-1l-10 35h-8zM327 479q-12 22 -12 32q0 19 14 19q13 0 13 -19q0 -15 -15 -32zM342 423q-8 -21 -20 -21q-16 0 -16 25q0 19 16 35zM487 299
h-11v17h11q10 0 10 -8q0 -9 -10 -9zM426 283q-16 0 -16 17q0 6 4.5 11.5t11.5 5.5t11.5 -5.5t4.5 -11.5q0 -17 -16 -17z" />
    <glyph glyph-name="i.dot" horiz-adv-x="286" 
d="M319 660q-6 -25 -28 -40.5t-51 -15.5q-30 0 -47.5 16.5t-11.5 40.5l3 12q6 26 27.5 41t51.5 15q29 0 46.5 -16.5t12.5 -40.5zM255 455l-107 -400q-17 -60 -68 -60q-31 0 -45 21t-4 57l108 400q16 61 67 61q31 0 45 -21.5t4 -57.5z" />
    <glyph glyph-name="caron.alt" horiz-adv-x="500" 
d="M289 566l37 125q11 41 53 41h20q24 0 24 -20q0 -11 -11 -31l-69 -123q-15 -24 -35 -24q-22 0 -22 19q0 7 3 13z" />
    </font>
</defs>
</svg>
